<mxfile host="app.diagrams.net" modified="2024-01-10T13:19:53.297Z" agent="Mozilla/5.0 (Windows NT 10.0; Win64; x64) AppleWebKit/537.36 (KHTML, like Gecko) Chrome/120.0.0.0 Safari/537.36" etag="o2SyBF-D4Eqh8mVfWIue" version="22.1.18" type="google">
  <diagram name="Page-1" id="sIAN92kar_J9IHs-o34i">
    <mxGraphModel grid="0" page="0" gridSize="10" guides="1" tooltips="1" connect="1" arrows="1" fold="1" pageScale="1" pageWidth="3300" pageHeight="2339" math="0" shadow="0">
      <root>
        <mxCell id="0" />
        <mxCell id="1" parent="0" />
        <mxCell id="nXrkIV4bhLo-9C3fiboj-49" value="" style="group;movable=1;resizable=1;rotatable=1;deletable=1;editable=1;locked=0;connectable=1;" connectable="0" vertex="1" parent="1">
          <mxGeometry x="1544" y="1486" width="409.00425083705386" height="797" as="geometry" />
        </mxCell>
        <mxCell id="nXrkIV4bhLo-9C3fiboj-51" value="" style="shape=image;verticalLabelPosition=bottom;labelBackgroundColor=default;verticalAlign=top;aspect=fixed;imageAspect=0;image=data:image/png,iVBORw0KGgoAAAANSUhEUgAAAaQAAAMlCAYAAAA8P4dhAAAgAElEQVR4Aey9d3QUR7Y//v76PeecEzgbGyeiARMUEZJAQgJJBAnlLIECoAAClLNEEtlgTM45R5Oc1hsc1l5HHHZtcNrveW/PefvC/e2nRLWqe7p7ekYz0kiqOadOdVd3xe75fPpW3br330j+5AjIEZAjIEdAjoAHjMC/eUAbZBPkCMgRkCMgR0COAElCki+BHAE5AnIE5Ah4xAhIQvKIxyAbIUdAjoAcATkCkpDkOyBHQI6AHAE5Ah4xApKQPOIxyEbIEZAjIEdAjoAkJPkOyBGQIyBHQI6AR4yAxxHSf//3f9Ply5fprbfeom3btlFzczMVFBZSzLRpHhkmT5lCw4a9KoMcA/kOyHdA9x0YOXKUR2LXnLlzGb7u3buX4S1w95///GenEpNHENIvv/xCH3zwAVVWVZGfvz+N8vLqMmHEyJH08sv9ZJBjIN8B+Q7ovgP9+vXvMng2JjCQ4fCHH35Iv/32W4eTU6cS0rfffku5eXnkP3p0l3lgWrKUhCTJWH6QyHfA7B3oSoQk4tvogACGz8Dpjvp1OCH9z//8D+3bv5/i4uPJx9e3yxIRf3CSkCQYmYGRvCbfj65KSBzjgNPA6+MnTtD//d//uZWbOpSQjh47RolJSV2ehPiDQiwJSQKOJB35Dpi9A12dkES8S0pOpmPHjrmNlDqEkL766ivKnzmzWxERf0iSkCQYmYGRvCbfj+5ESBz3oGj23XffuZyY3EpImJ47fPhwt5ia4w9CG0tCkoAjSUe+A2bvQHckJOAgFNBOnTpFwHlX/dxGSP/4xz8oOSWlW0pFIilJQpJgZAZG8pp8P7orIXEcBM5ju44rfm4hJGhlxMTEdHsywgNxNyENHTqM9MNQGjq0o4J+GzobbFv7r9e2jhoXsR5tO4bSkCFDdNWAO2LcULf++Iht7ojjYTRsmG3ouHeX91H7fFrPQRbufh7dnZCAg7FxceQKbTyXE9L7779PYeHhPYKMOoKQ9P7MnpLm7j+yvfI9ZRyM2jFkyFC3g53RGAHwjdol09sIUhKS6/Z8Rk2aRMD/9vxcSkiffvopYWMVF+V6QuxuCcmTwcMIDDsq3ZPHBm2ThNQG/J76rCQhuY6QgPfAf/CAsz+XEdI333zTo4iIk60kpM5bI/BUkOPtkoQkCQkfZz1hyo7jIY+d1cBzCSH97W9/63GSER94SUiSkDgBaWNJSJKQeiohBQUHO6UW3m5C+s///E+2oMUBuqfFkpAkIWmJiJ9LQpKE1FMJCTwA6w6OGmttNyHBYmxPIyGxv51FSAMHDqT+/Qe4PaAeDrDauKPWiozq0baHnw8cOMjt4yKO/aBBg3THyBMJafDgwR02NgMGGL87Awa4/90VnxF/N7Rxv37u/6DqiVN2HCMrKiocWk5qFyEdPHiwR5MRBr2zCKl/f/erq4IIUI/2T8zPjYiio9J5O7QxgKij2oB6jIDXEwkJ5NlRYwMg1j4bft5RbeD18Hq1sSQk1yo1cCIS49OnT1smJacJCbtzA4OCJCG52f2E9g/EzyUh9TMEO0lI/dgeJP6uiLEkJPU0oiQk9xNSSGgoYWnHys9pQkpOTu7xZCQlJPdPd/AvXL1YBFrxWBKSJCTt+yK+H+KxJCT3ExJwMis72wofkVOEBOdNokjWk4/llF3nkZIILOKxJCRJSJKQOoZoHMH+jz/+2C4pOUxI0JqAO3FHGtKd75WEJAlJriHpvwNyDal1XHqyUoOI/ZlZWXYNsTpMSGfffFOSkeBiXRKSPhhpv1DdcS5KReKxlJCkhKR938T3QzyWU3YdK0m98+67plKSw4Q0a/ZsSUiSkJhCgfZP39HnIrCIx5KQJCFp30Xx/RCPJSF1LCGVlZW5jpA+++wz8vL2loQkCUkS0sttkqGcsmsbC5EI5JSdnLITp+xwDHfoZmaFHJKQmpubJRkJZIQBllN2+mAkApO7jsUvXfFYSkhSQtK+c+L7IR5LCaljJSRgZvPChYZSkkOEJJUZbB+eJCRJSFJC0n8HpIQkJSSthIRz8IjRzzIh9VRr3noDKqZJQtIHI+0XqjvOxS9d8VhKSFJC0r5v4vshHksJyfYjW8Q3dx0bbZS1TEh19fVyuk4zXYeHJQlJEpKUkPTfASkhSQnJiNDWvf66rpBkiZD+93//lyIiIyUhSUJSmevRfoV29Ln4pSseSwlJSkjad1F8P8RjKSF1joQ0NTraeUL6r//6L4J/CyO268npUkLS/zrWAoI7zkVgEY8lIUlC0r5v4vshHktC6hxCGhcSouuawpKE9B//8R9MXa8nE49R3yUhSUKSU3b674CcspNTdka46efvT//4xz9spCRLhPT7P/xBSkc603UYbElI+mCk/UJ1x7n4pSseSwlJSkja9018P8RjKSF1joQE7Lxy5YpzhLR6zRpJSJKQVOtH+FNr//QdfS4Ci3gsCUkSkvZdFN8P8VgSUucR0qVLl5wjpOqaGklIkpAkIQnWGUTAk1N2+lKynLKTU3ZGU3ZIX7lqlXOEBF8WZgX35Gtyyk4fjETAdtex+KUrHksJSUpI2ndOfD/EYykhdZ6EVDxnjiQkV5OnJCRJSFJC0n8HpIQkJSQzvNVz2mdJqcGs0J5+TRKSPhhpv1DdcS5+6YrHUkKSEpL2fRPfD/FYSkidJyFJQjJYB2oPqUpCkoQkJST9d0BKSFJCMsNWSUiSkBzWjOvfv7+NMgP/wtR+hXb0OW+HNpYSkpSQtO+i9h3h51JCkhJSt1KQkBKS/texFhDccc5BRRtLQpKEpH3ftO8IP5eEJAlJEpKB+rD2T4Rz/sfRxpBc9O53dZqUkOwTrpyy0x8jOWUnp+zklJ0bpuXMBlVKSPpg5Gpi1CtPS9L8XEpIUkLSvi/83dDGUkKSEpKUkKSE5BLpTgsu/FwSkiQkSUidRzRmH/DiNanU4AbpSUpIUkKSU3b674CcspNTdiIBaY8lIUlCclgykWtI+mArfoFLQtIfI0lIkpC0JCSeS0KShCQJyYHpUpF0zI4lIUlCMns/QMwiEMvj1ulESUiSkCQhSUJy+B0wA1uza1JCkhKSGflKQpKE5DAYySk7/a9/EYilhKQ/RpKQJCFJQnID6ZgNqlRq0AcjEbDddcy16rSx1LKTWnbad077jvBzqfbdedp4UkJyA1lJQpKEJCUk/XdASkhSQjL7mJeEJAlJTtnJNSSH3wGttGH1XBKSJCRJSG4gHbNBlRKS/texVdBqz3182kUbyyk7OWWnfa+07wg/l1N2csquW6lA9mRCGjp0KHVm4KCijQcOHNhhUgCAz2jKbujQYR43PoMGDe6wsZESkpSQzD7m5ZSdG6SnnkxIWiLwlHNPISRPGQ+xHZKQhqkMFksJSUpIUkJyYB1DBBPx2BOsfYvt8aRjSUhq0BWfjSQk9dhIQpKEJAlJEpLqK1UETFccS0JSg644ppKQ1GMjCUkSkiQkSUiSkIapgVEkDXceS0JSj7skJElIKkIKCQmhvJwcFtJSUyk0JER13WxRzBOuyTUk9R/cnWBqtWwpIRk/E0lI6rHpSoS0asVK+vqrr+i3336l//f//q6EX375mb744nMqW7CgS2Gnxyg1xMXG0upVq+j0qVP0u/feswmnTp6kZS0tNC0mxuMHuLsTErTIoEatDQMG2KZp73H3ObTb9IJW5bcjzrV9bW1X542R3rggDZpvHTEeqENq2blOy66hvp4R0fFjR6mkpITi4uJYSE1NpdLSUrp08SL9+usvlJ+Xp4uZoaGhNjirh73OpgUFBenWayY0dDohhYaOp9fXraP33n3X8uCAuMZ5sNTUEwipowBM1tN5e7rcMfaSkFxDSAEBAfTdt9/Qju3bDEHfz9+fPv7oI/ri88/JS0ebWBKSZlCmTp3KWNwZBj575gxNCJ9g+DA4C0+YMIFqqqqpqaGRwsLC2f3Tp0+nL7/4gom3+/bupaDgYLvl8PKsxJKQuheIugOYe2qZkpBcQ0ghoaF09eoVSkxMVLDL28eHfHx9lXNgVX5OLsO5sWPHqtJxTRKSQEhYJ3rn7bd1pSKkb9ywkYUd23fo3gMSe/PMWfL397cZaE4aUZGR9NNPV5V5VRyXLShlYu5HH3xIZ06dYteOHztmWAYvy5FYEpIkpJ5KOPb6LQnJtYQUHx+vYNeG11+nfXv2KOfArKyMDElIVsAbJKCVjDa88QZNmTLVhuV9fX0J0tTuXbtt8pw5fZpGBwSoHgKvf++ePfTRRx9SZGQkjR07jrZs3kQ///QTHdi/X7k/Iz2dEdSkyCgljed3NpaEJAnJHjD31OuSkFxDSAFjxtB3333L1tU5TuED+9zZswqO+Y8eTV999SV9+sknShq/F7EVCamosJAmTowg1AecHTNmDEVFRVFNdbUNFmvxvMusIa1auVLVmXfffptWLauholnTqHBmjGEomhlDLYvrbCSrstJS3QG/cP48rV69WrmGeVdoouTn5StpeDBff/WlTZr44Bw9loQkCamnEo69fktCcg0hAZNaliyhX37+mXbt2kWVFRX00YcfKIQ0ceJEevfdd5hSQ1ZmpgrvOJ6ZEdLO7ZupID+OZmRGGYaSwlTau3unCstFUuoShISpurffekvViX271lNdeSLNL5pqGOYVTqEZmeMpZqovLVq4UJUfg6A3R/rm2bO0efNm1cPAvGt2VpaShjnXH374G82YPl1J4w/M2VgSkiQke8DcU69LQnIdIQGf1qxeTZ999he6/PXXLGzasIHhWEFBAQH/EuMTDHHNiJAOH9xN5SWxhljMcTp/+gSKjRlNx44etcFjYHKXIKS5c+aoGn/40CE6sruMhYbKZMNB4GQEQsKDOKGZ8svLV0s9uGfdunX0888/UVpKivJQIiMilGMfHx/aumULuycwMFBJd5aIeD5JSJKQeirh2Ou3JCTXEhLHHGdiPUICie3ZUkb7t8+nsrkxhniclz2BCQfRU3xp3NhgGyGjyxDSsSNHVIRUWb5AIaRDu0qpuTaF6ioTVKFiQSzrPMiIE1JxcbGqnJUrVtgQCgjn/Lk3mdg6Rodwjh49Sn//+2+0QievMw+Y55GEJAnJHjD31OuSkDybkOaVlCh4fHDHAmqoTlJhMcdmjsUgJG8fb7aHVJyu6xKEhDUcbaPDw0KVAYCktLAuheqrElWhUoeQoKgglnXy+HEbQgJB+Pr60fjxYbrXUAY2k3l7e+te5wTjaCwJSRJSTyUce/2WhOQaQgKunXvzLH3yyZ/thrcuXdLFNz0JCWtPfMYKcWNNkgqLOTZrCSk+Lk6Fxy4lJHTgvffeI7OfoyCN+zGnKJIINO2CgwNVA2CVkKBBIpaFY22bkpOTqb6+niZFuU6DTluH3rkkJElI9oC5p16XhOQaQgLuzJkzh83uYIZHG7Zu3coUuGBSCBpxejilR0he3t4qPLZKSL5+fjZ47LI1pMd79SYEzCca/fQ6aC9NS0gHDxxwmpAwHWePkFqWLmX7kPBQTp88yR7g+DB9acle2x25LglJElJPJRx7/ZaE5DpC0sMkzPbML5lH31y+TJ9++gnlzMjRJSPk1SMkpDsjISGfFo9dRkjvv/8+ffLnPxtxEUvXGwx7aVAc0DZ63Lgg1QBYlZBgOkgsC5p7evVjmnDtmjX09ddfEQwOQu373Nk3CSKm0f4lvXIcSZOEJAnJHjD31OuSkNxHSDDDBkyEItf2bcYmhTiW6RGSsxISrESIeIxjlxGSKRNdu8g75WiMvUFiw7Mz050ipKysLFU5WzTq3dp2+fn5U1h4OLUsXkJXfvyRKTN8+803tHPHdpoQ3mpSSJvH2XN3ExL+1Hqhp4Kc7HfX+QCQhOQeQqqpqqIrV36kH/72N4qJjiEQiz380iMkZ9eQYMJIxPUuQ0hNDQ2qhu/cvk0hpM2vzaLlzVm0vDlTFZY1Z9K8oimKph0Geu1rr6nKKS8rs/sA+APCfCckpKWLF9NPV68ym1DhLpzKczchSQDuOgAsn5X6WUlCci0hTYuZRu+9+w7DMVj/NjOlxvGPx3qENHfuXAWPt64rpJamdGpptA05mWGK2je07FYsX6HC4y5DSFOmTKF333lHaTym2rZtbKBNa2bRioWZhgEkNbdgMhsEbGLVsjHK5QNtFkOMnFNcTPv37qUff/iBibf79+0lWMY1y+fINUlIahCSoCzHg78Do/1GUV72JMqfPlkVcjKj6NVhr3SYGww/nxH67ciKouGvDnF7O0DMjmCK3r3VVVXsY/ry5a+psrycoMSlF4z2WOoREoxW79lSTtvWFxliMXB6WVMG5WWHE9S+J0+KIu3MV5chJNilO6rZi3Tp4gVavmgWLWvKMg0tTVk0vziNzp87pyKkndu3mz5cWHGAjxDcB1t2WEv68IMPmB0oPQsPeg/fkTRJSBKAOQDLuO1dAAgvqU83BLrcrEluJwI8DzjgW1KfZtiOvKwot7ejvYSE9W+si4tO+fSOsc/y5IkTuvioR0ggkiMHd9OypmzD8eGCA0gpK30CnThua5e0yxASgH1ssP7O3unZ2YTFMT3wR3p6WpqNHTv4UTLSnBv3L5Pr3KI3HgzmWPfs2kVGXwx69TqTJgmpDYQkIMux4O/AK4MHmYJcRUmC24kAbRk0aKBpO6rmu78d7SUkZ3BJm8eIkEAmsKAzevRoXSzm5UCxTCscIC8PXUKpgXcGBlF5w3kMcoH17sULF1FsbCxNnjSJEuLjaWFTM0GU5PeJcc6MGYaDBsd/+GqASfbIqCjC3iVevztjSUgShDkIy7jtXZCE1DYWnk5IwFhMwy1qbraxExoREUHr162z68uuSxESCKGqslKXZETCMTteMH++KcFgXSgoyLXO96wQmSSktj+eBGQ5FvwdkITU9i64gpASExKpsaHBNNTX1VGYgcKWmYSkxV1M+/GgvWZ03uUICeA+Mz+fLmjWhIw6yNMhLeXm5pqSEScOqDE2NDaygAeA9MyMDCZxffjBn+i1NWsouIt5jOV/cBm3/cHlWHj+WEhCantG7SUkrCFh24reupE27ezp07pY6Qghcex1JO6ShASCwJrOurVr2XSdWYdPnzrFzK0HBgXpDjAnIR7DkRTcTWCjGJxZYQ2pYNYsZmz19++/T5cuXWR7kozs4PFyHI2lhNT2x5NEIceCvwP21m7mzIrukDWkgQPN15BKCqa5vR3tJSQYi/7+++9odkGBKRZi+ePihQu690hCElyYG4F8THQ0NTU20e5du9h03p7du9maEtKN8hil7969i7755rKyOAdTSPh6OHTwoFJWVmYWSwsbP15JMyrParokJAnCHIRlrH4Xpk4KNlQoCAn2cTsR8OcRNTHQsB3hof5ub4ckJC9dvM3Kzraxy/BvNik6CVbBuTPvO3/+HK1atUrpOMRcEFLBrNlKmpeXF33+2Wce6TF2wICBNHDgIBnkGHTpdwBq1pwIAMTeXiPJx1sdvEaNUO7h9+rFyN+/vyvCABo1agR5eY1UhZGjRrR7rPv3H6DbRrE/HUVIG9e/YSghwZpDUHCw2wKw1VH879aEBIlI6zEWhCR6h2UeY//2V48jpFdeeYWGDRsmgxyDLv8ODB06jADSAGQAsdF7LQK2eIw8Q4YMMcxnVJ6npQ8dOpQGDx6sjIOjYC3eD+PSX375BR09fNgQ9KHUBVNCu3bsNLxHLNMTjrs1IcG973fffkPFRcXKA8lMz1CO8QBWr1rFzG64cm+SK6bs8PJq/1D4Uw4e/Ipb/5ytdQx2ax28X0OGDCUQrzvBpm3MbMeTt6O9cVsdrgVNADkvW+99cE27B1N7y0Z+PEcEo7IGDRqkALFRu0US4sdGZISxQX34PxjVaVSPvXReNsq3d6/V62gj/+9iLNorIQG76mpq2YxPU2MjwYi0SChhYeG0Y9s2gqeDVMFjtniPJx53a0IKDgqiDz74E1NsGDNmjOqB4WFsXL+ePTCQkisfjjsICS80/5MifsUNX4zaOlz9Rxf/vABasT84F6+74ljbHxCgK8oVy0CZYj9cOWbiGAHAXFk2wJG3u71lQ0mAl4VpZnF8+LGzhGT0Xgy8RnCoF9KXK8dG25/2lo38mGbkY+QqQgJmYQMrSAfWZ6C8gPDRBx8yokLatq1bLRladSX+taesbk1I9gYGO5EjJ050KRmhTncQEhf1+Us9YMAA3T8+BwBnYg4avA6sXzlTjpU8gwa1Tl3wuoyAzEpZRveIwIJ6cG50r7PpeA68D4gxhs6Wpc3Hp7l4+XgHtPc4e64tuz3SAG8fj/WIn79bID+jNvP8PDYiI+QX16Vwv9m9RvUZpWvLbi8hYWx5nxBjDBDs4ZPV67Ex0+jEsWOMhLjKN6QjV29nsdqe9tzXowmpPQNnltcdhASJSHyp3UEWWtLDV7TRn7a96do/qSuBnLdtsAYI3FLHtTUB/mzaA+y83TzmIN5WtuukSHwA8HIRtwfQAa68LIC5HoDzvlglpFdeGUKYOuNjoY1FiQN169WpzWP1XOyPK8rG2PLxQYyPGFcSkhkWdbVrkpCc0ASx95DdQUj4M0GqwJctvvTN/qxW/3h69wE4Wutw3Ze+Xj0AEEy78LpcCSi8PpQp9qerjRkbo4GtY4Rnz/vlihhlg5Qw/u2VvPCxBJBFWUbE5ggh4V57fUQ9vE5XfgSgXpAhykYw6o+99mmv4+MO49Na5lBJSAa4KwnJYGDskY7ZdVcTEnycYHpRBjkGXfUd8PXxpVGjRhFUgY364DXKy/S6Ub6OSoenAi3ROHsuJSR9lXBJSB5OSONDQyktLVUGOQbyHfCAdwDrMs6SkJhPEpIkJJctIppJR7jmKgkpIjKCUlNTJBB5ABDJjwL5UYR3YNbMmVQ2f0G7SAnTgJKQJCF1KUKSZCQBUJKgZ70Ds2fPUlwu1FZXO01KWEeShCQJqcsQEl7WhIR4KRlJyUi+Ax7yDuTm5jD3C6LxZyhTOBK4YgM07SQhSUJyipCmxcZSZmamQyEpKUml5imqfFo5loTkWV/GUlLp2c8D7mr27tlj47vNyn/Z6B4Q2fx58yyH2JgYp/DL3vKCp133KKUGPz8/CgsPp/y8PKqurFTC7FmzCKbSYZupowdw44aNNi+i+JWkd3zs6EFDS8LcHz2P/X1H2ZCXPULKysokGeQYyHfA/e8APkZ27tyhiwF6ZBMZHmDpv99ck6Zbph6eIK1swYIOxz5gLbxsjx03jsaHhSlh7NhxbsNijyAkbx8fam5qYmYv4MZc76EgHWYx8GBwf0cRk6cR0vTsbFq2fJkMcgzkO+Dmd6BlWQu9sX49GWFSdyak8LAw2rVjB1sze/edd1SY/M7bbzMsxthgS4orsbjTCQmG/+AaV4+EjNJOnTxJmRmZLh0Io0H1REJavmI5ySDHQL4D7n0HVq5aaYpLnkRI2B4yZdJkJYSMC3EKHzETtWP7dtN+i7gMstq0cSNZdZpqhLM8vVMJqWTuXMsdFwcBx29dukRzitusePMOuTqWhOTeP70EVTm+nvoOdAVCqqqspM/+8heVHTtuz+6DP/2JioqKLBNTTEyMw8IBx+XDBw9RRESE5bqMcLrTCAmuxHlnxPj40aO0auUqpu+fkZ5OBbNnMxcRx48ds7kf7JySnNzuQTAaHKQ7Q0hvX7pEG9evpNdWVNHSxizTOWVH15AwZeepf2DZLkku3ekdcAchLanPotXLKmnzhtU2eCbioPZYbw2ppqqKEdHFixeooryc+XTLz8tncV1tLf3+9+8zS+DTp0+3i5GRkZEE/3HaenEOD9ubN22idevW0dYtW+jI4cO69x07epRCQ9vnebtTCAmeW7EeJHb+7bfeoqqKUhod4Kcbxozxp5qqCsL8pZgPx+Nd6H5cS07OEJLYvnNnz9DC2umGpCQJSYJ4dwLx7tQXVxPSkoYZdPH8ORv8EvHC6FhLSMDQb7/9hg7s22dINlACgzfsL7/4wvAe4B18wV26eFHVLqybHTtymKIiI8jf388mJCbE0cnjtkICyEuLoY6cdzghQSFh/759qs6DjGrKsmleYTTNK5xqGmbmJhDuFx8cFtcc6bQj97aXkNDOfXu2SUKS615Ssu1i74ArCWlJQzpdvOAcGQFDtIQUEhpKV69cobS0NFPsy8vJYVKUmSuKJYsW2ShuLF1USyWF0VRSMNUwzCuKoXWvrVJhMYgM04iOYKx4b4cT0sSJE0nU2oDEs2tLE61dnkvzi6YahrkFkykxLoBipvrSzPx81SDggUVFRTk9COKAaI9dQUhoX31Fui4pSQlJSkjdSaroTn1xJSG9tqzIBrOAC1aDLiFdvULTpk1TcG95Swtt3rhROQeW5c1oJaSxY8eq0jnOYd1H24a9O9fSovp0QywGTpcUTqG05LEUM9WPXl+3zqYMZz1wdzgh1dbUqBq/e9dOOrK7jIW1y3JpwZwYWlCsDpCakhICGRmBkDCYmNMUB7KkpER3wPnAOxu7ipBqyzIlIXWxL+TuBK6yL45/+LiSkNavnqfCKxG7rBxrCWlMYCB9//13bLsMx7Yzp07RubNnFRyEFfRPP/kz/fnjj5Q0fi+Py0pLVe3avWsXHdxRRod2ltLC2jRDUmolI1+KnuJLfv5+dOL4cVU5qamphnXyuvXiDiekM6dPqxo+Kz9XISQQ08K6FKqvSlSFygWxChlxQsJCnfggN27YYDMAiQkJtGnDRrth/brXDfXpXUFIF869SQtrUyUhSUKS03Zd6B1wJSG1NKnxSsQuK8daQgKYb928hSktLF60iDKzsti0GyckqG+fPnWSXc+dkWODjZwM4FlWrD83V43HjTVJKizm2AwcRgAheft4U31dnaqcFctXGNbJ69aLO5SQgoKCVI3G1F1wcKBThIQBFwcSi3LaDmJq769//atu+Nvf/kq//voLm1/9+quvCFYitPlx3l5CQh/feK1Bl4xgrUFO2Tn+5Sq/9uWYdbdk+0MAACAASURBVMQ74EpCwn+9sabYZq1GxDCzYz1CAj6BlLCW9MsvP7Owf88ehmMN9fX0+Wd/oUg7qtjaOrHWxGesEFslJL2pPz08tZfWqYQEjQxnCcnL21tFSBhYe53l1729vWnbli30888/0Ttvv0Xh4eGGedtDSPhaWdo4i5Y3Z0hC6kJfxh0BdrIOzydVVxPS8uZMaqrJo3NvnrHBLi0xaM+NCAmYFhAwhqDkgODj27qkAXzkxxz3tLH2o55jqDOEpIfHmFbU1mnvXJeQoE9+5swZMvvZK1jvulZCOnjggNOEBJMV2oemV6c2DYYS//iH39PVq1eosrKS/PzMTV84Q0gnTxylRbVZ1NJoTETO2rKT+5A8H8gk2XSPZ+RqQuL/+aUN6dRQlWWDX1o8E8/1CAkebEEEWozDOT66sY9T7xpPcyUhoUyxvTgG3vO6rMa6hPR4r96EcPH8BUNOslqBeF/AmDE2jQ4PC1WJiFbXkCIiIlVlwZyQWJf2OCgwkLDOBNH28KFDFGZx75IzhORO46qSkLoH2EnS8vzn6C5CAjG117gqPsgvX/6ajh05omshAcsVsNjw8ccfGc4AjdHBY5CcMxIStOq0hGREllpsFs91Cemjjz6iLz7/3JCMcEEsxJFjrTZGRdkCZQAO7lhAi+vTqLEmWRVqyxMoftpoRbEB9RUXqdUo16xardsmiK15ublseg4bxObOmaN7n1EfJCF5PnBIcJfPyB3vgCcTEteyu3LlR6ZJN3XqVBtcS05KYpp42JxvhG9aJbPo6GgFjw/vKqXm2hRqrE62CdOi1UoN8NAgEtLOHTsM6zRqC9J1CcmUia5dNCvU7BoIQWz4wQP76fCuMkLn1yydYbjW0lyTTHwQwLyHDh5SlTN79mybAQAZnTxxnP7+99/o5PHjBAnN18/PJpjNtWamp1NxYaFDYfbMXFrWlGEp+PuOdMj9hJSQJPi6A3xlmbbvlTOEFBEWYOl/31CR4hCmxERHq/CNE9LsggK6cP4cXfnxR4oT9iRxDM7PyWWSktE+pKWLF6twtLmpmRFSKx7nGOLxguJolZbdls2bVeU4+uHP29vhhBQWFqaytICdvVs3LqM1S4zN6/C51+bqZIqN8SPYaRJJDcfw18E7xWNM0UFsBSF99dWX9NWX+uGjDz8kiK88X3vjkaNG0cjhQy2F/v37S0KSCg9SHdwD3wFnCGnQwIGW/vcjhw9rF96IhBQQEECQSKCkVVRQqCo3PSXVlJDS0tJVWAqj1VvfqKK1y/IMyQh4DAWN8pJpTO17enaWytgB8Dh8wgRVO6xiaocTkpeXF72+dq1qEGCtYdXyGqouzaDq0nSTkEHLl9YyS98iITU2NOh2Pi4ujkrLyuyG6TNm6Oa3Ooja+0aMtJV69EzVG6WZOeiTEpLtl6z8updj4o53wBlCMvpPa9Pb68JcJCTgD5SzYALot99+pU2bNhEs4iTExdFnf/mUbYwF7mpxCudYMzp8SG0s9c2zp2hpo7F0xAUEkFLZvAwbO3j79u5jShV69dlL63BCQoMwRaaduwTBrF61StcEEKboMEf62po1Nnr85998kxkHtNdRZ687s4YEi+VhIX6WwuDBg6SE5IFfx+4AOFlm1yJOZwjp1WFDLP3voyaOVX2Uix/YesdaLTstIXF8q6qqYutG3AXFjz/8QPHx8bpkxPPgumjODfXD+HV2drah6jg8yWKZRNvW8+fOkZndPF6nUdwphITGYMHtLY2FWd65fXv2UH1tLVNGgIn1o0eO2nQc9144f97U0veUyZMpPi5O9TCg6ih+LUA9MnfGDFWaOFjOEJLUsutawCOJQj4vvXfAGULqSBfmR44cofBw26kxLD9UVVQwg6xWPbouXbzE5mMfGLt/336CgdbIqCgKCw+nSZMn0+xZs+j4MbWpINyLma7ysjIV3opYauW40wgJjUtJSdElGk5MZjHmOkEuZp08sH8fU2oQ78H+I/gM4WmTIqPYHCtinibGkpAkWOmBlUzr/u+FpxOSiFOuONbaBzXDX71rsA7R3nZ0KiGh8bCSAIN+eh00SoO5DHtkhLL1CAmirCSk7g8mkjDkM27vO9AVCAnO8mBtW48ImhoaKD3V3D2FNl9RoXo7jREGa9OtOAHU1qV33umEhEbBRxKM+sGvkZ4DPnQe6bienT2d3a/XGW1aZxHS6ZPHqbEqm7Ajmy8AGsXSlp0EzvYCp8zvnnfIXYS0pD6dGipzHPoI164hAeu2b93GZnewbqTFPlj6hn1P2OvEHiHtdbNzrNevXrnSZl1JS0KYpYLauCsdpHoEIYmDg/nP9PR0mju3RAlYB3LGv0ZnEZL44N54rd7UhJAkJPeAiQRpOa7tfQdcTUjQSlu7soYuXjjvEBkBT7SEBLM8f/3r91RZUaGQDT7sDx88SONCQlgaNOhOnzxF3337reWPeBGLoZxQMLuAKZtBGOBhxYoVTIBwBpPF8vWOPY6Q9BrpbNq+vXuZX/l5c+cSD5iye2PdOuW8qaGRfWVERUQqD1asz5k1JJGQcLx1w1JDSUkSkgTO9gKnzO+ed8iVhAQDy6uWqV00aHHC7FxLSMxj7NUrKq1kuDXHGjnW5jmGQbELmGe0MZbf5ylxtyakxsZWsuEqkEbxl19+YWik0BWE9O7bb1NTtfSHJIHTPcApx9U94+pKQmppmuGwVCQSlBEhiSrdUAWHrU7Ras3comJGSO6QZtxBYt2akKDejSlAe8HP39jitysICS9WXXm2rpTU0yWkKVOnkZc3rBabh8VLlqisGTQvbKbYuASaNCXaNJSUzFfyLV6y2G49re3wo5hpcaSts6am1rQusS3VNTVKvSJhLFm6hOLiE8nL24+1ZfArQ+nZ5/oqQRyH+fMX2JQxe3YhIUyLjTdsS3xCkk0+tKGwsJjl5WXoxQUFRbS0pUXJj37wfs2aVaCk8z7Nml2gXOf36cX8/q4Uu5KQNqxZ4FJCgv+2y19/RWfPnGHORWGtAWtGly5coO+++5aWL1vOvMlCYtp7zUeSOwjE1WV2a0JyxWC5ipBqy6SEJIJRbm4e3Xb7HfT//ft1lkJDQ4MChqMDxtB1199gKV/UpClKvqbmZkt5eJvuu/9BmjN3rpI/Jyffcv4bbryJxoeFK3nRd/ThmWeetVxGdnaOkj9/5iy6+577LOW9//4HlXyot6y8nB7p9ailvNffeBM1NDYq+fPy2/rs5x+gpKPcl17uT/9+3fWWyhWffVc5diUhrV5a4FJCArbBassPP/yNfrp6lX75+Wf66/ffM63lVStXMjNCmBF688wZZU3JFXjo7jIkIRmY1OAD7wpC2rl9va50BM27nighLVq8iG67/U5LQMbJgRNSybz5DuVrDyGh7qee7qOAsCOEhLy33Ho7QSLiABw8NsShtouENHDgYMt5tYT0ypBhlvNaJSRIePzZWIn5GHSl2JWEBN9oRw/vc5qUtFN2HJ+iIiOptqaGaqqrVfY4oWUXNt7WvifP56mxJCQ3E9LxoweovkJfOuqphJQ3c6YKzIaP8CKAvVlY2rKUAXtmVpaS98abbiZfvwAKGR9uGIqK5iiEoJWQomPibOpMz8ii5194WakDYMtJRSSke+69n029iW2Oj0+igDHBdP0NNyr58/NnKfU/0+c5JR3SDuoS82uPG5vaJJU777pHydt/wGDD/mIsJk2OVuoEAdx3/0NK3mf69DXNOz58ImFqkxOHnoTUsmyZUh7G555776Op0dNM+8LL60qxKwkJ//Ul9Zl08vgRXYsI4nqR3rERIXkqsTjbLklIbiCkSxcv0OqVC6mhMotZxcXLaBR6ooSkJaTKqioFAO0BVnpGhgKGgYFjLedDuVpCmjOnRDc/7rvhxpuVegqLitl9IiFh3ceorb0ffUzJKxLSo48/oaRj/cYov146l0JAws0LFzqUVySk0vJyh/LqEZJ2HFNS0x0qU69/npjmakICBkD1u6FqOq1e3uSQtCQJyY5TJGcZsKvlc2bKTtqyM9d60hLSkqWt0o8VUBIJKTh4nENAqAVSI0LClOJNN9+ikIejhPToY48reSdERCltFAmpsalJSbfSb05IaBfaZyUPv0ckJKwn8XQrsRVCMhpHK+V78j3uICT+Ydpej7FdDUettldKSG6QkCQhOUZIjoCSJCRJSI68L+25VxKSvssKq+TizH2SkOwQ0upVq+n0qdMOhT27thtO0fEvJB739Cm72++4y6Ev9p5OSNDea2p2TLqSEpL5B5IRabmVkKrTHMKUkjlzlM2uzgB9V8kjCckOITnzIH18vCkva5KlMGL4sB7nD0mcsnvo4UeZmjFUjfVCowZ8RULq+8JL1NDYYJNv4aKFqr00HHA8acquorLCpt1i/3mbecyn7KDuPn9BqU1e7MsS9w/xfIhFQoL6uFgPjlvz6k+byim79wzXerRO93Ae4D/K0v8+MyWiRxCMo/gpCckNhCQ9xpp/kYqEhH0sN996m2Ho1ftRlQQlatkBpG++5VabvLffcSfd/8CDFD4xklqWtW3ytEpI0G6DJMJJwNE1pAceaNNqM1pD0mu3OA4ioeBY3LOFdSTxXhzjOrTdRnn5UnNzs2rMREJCv/Ty3n3PvTRk6HCqqKhU5bVCSHfdfQ/dd/8DhkHbl65y7oyEpEdSemnt9RjrKNB3lfslIdkhpNwZOVReVu5QKC4qtpF69F5Ko7Tu7sJcJCQO+kYxgE4EsJraWhVZGOXj6U8/3YeWXlOa0BLSc8/1pWGvDqeAMUEsjBzlTf0HDCSQIM8PiYRrtYladjfcdDPd/+BDNuHe+x5Q5V1QWqq0X1Rq4OUbxWKfcezja33fz6233U7V1W2WIrBB16gebTpU1mcKqupWCElbhvZc25eucu5OQnrllSEOYUpcbGyPkKg8ipBiY2OppqaGNqxfT/DzgXBg/wFav24d2/gVp/H+2hGs75yW3WGaOzvGUhg16lUb8upJhHTrbXfQkCHDDIOv32gF0DmQzZ8/nx5/4inLVgJy8/JZGVpC0gKn3vmwV0co9YuEpHevmHbX3fdSzLRYJS/aLhLSwEGvGPYZ48H7ymO03cvLR7XHSaxPe/zkU20behcuWkRBwWMJY629T+/84UfapFJJSI5N2QUHelv63xfNnGY4Fegp+5B8fHwoMSGBSkpKmBmipUuWUGNDAxUXF9O0adOcsiBuD7M7nZC8vL0pOjqGjh05YukBbXzjDZoyZUqHfS04R0gHpVLDv9YuOJhqY1FCeqTXY4b3afNpzysrq3RtswUGjVUBb2ZWNqvDEULCfh+Yxqmrq1faJxISrkOS4uH+Bx6iG29qUxUHIZWVlSl50XaRkBxV++Z9xxQk7M1p7dAlJqXQHXfepeo3zyPGxcVzbfJmZk2nBx98WDevFUKSat/9lI/KjnRhbg/cnb0eFBxMJXPnGvqm44QJO3o5OTnMlp6zdWnzdSohwX9HfZ1zJtnramsJxlO1HXL1uSQkY2IRgc6RY5GQHNWys1qP+OWfkJioS0iOAqlISHobY2tqa+i669usNPR9/kWXE5JZ/yEFif02u1d7bfKUqbp5JSE5JiF1BiEFjBlDKUlJlJWRoQRM8cEdhaN4mJCQwIy0ctKxEp8/d44mTZrkcF16betUQtqyebMlqUhvUN57913mOEqvU65Mk4TkXkICgGrB0RXnIjDHxcd3CCGh3UlJqQqww9qD2BdXSEhiedrjkNAwpW5HxxXTi+KY8bIlIXk2IR3Yt49++ukqczGhda9z5cqPtGfPHkPXOlqchE08I4/dehgspsF7bGFBQbtJqdMIaeWKFbpkBEu1iUlJzGotfHiEh4dTcnIKLW9psbkfpLRy+fJ2D4L2wYjnzhDSW5cu0qEDO2jbpmW0tDHLdPqup+9DchQ4OVDai0Vw7UhCQrswncfrz57eZrFbEpLrP27svQftue6MUoM9Cam5Oo12bl1Fh/bvtMEzEeC1x3qmg/bs3s2IqGXpUoqOjmbO+qKioliM9fjNGzfS3//+G1uXFzFN73hOcbEuGb159ixbN8rMzCSEGTNm0JJFi+nieVuvtyCljPT0duFxpxASBuvdd95RPZAjhw/SnMLpNGVSiGHA9TOnT6ny4cFhgU1vkF2R5gwhiS/TiWOHafnCmYak1BMJaXZBoQLYAG5HTeFYARlOCIg7asqOtwvq17x+bx9/RUoSCam2tlZJ5/naG4sS0oMP9XaofCkh2ZKlqwlpUd10unD+rA1+iXhhdKwlJHysf//9d4QPeyOc8/H1ZcTx/XffmSogRERE0NtvvaVqF85XrVhMU6dMpIkTQ2xCfNwUWr92lSoP2n761Kl2rSl1OCHBGd7FCxdUHTlz6gSVzplG84ummobC/EiKmzaGDh86pMq/f99+0wE3emBW0ttLSHhI+/fuoGVNGbqk1BMJqbyiUgFsAHd5RYVD4GkPuLHwzwkBsZFSg6vXkHi7nn/hJaX+hx/ppfRNJCRYx+b3uyoeOy5UqfeZPs87VP7U6BglL8aMt0lO2blmyq6lMZPeefuSCreMyEcvXUtI3IU51nw4jvn7+5PWMyzWlTCVZ+TCHOv4wE+xzrcuXaDK0hmmWAysLp4VRQWz0mwkq3Wvvaa0ibfNatzhhBQfF6fp/CXau7WMdm4spgXF0YaDUJgfRTFTfVkAo2slLPHBWO28lftcQUh42NWl+i4oeiIhYfOlSBgPPdybxoWGsfUXrMHoBe4CYt68+brXxTyjvNR7dvLyZzKA1WrZuYuQomPa1mOwSZeD+4svqt1a9H70SXrs8ad0AzaptgieW8X+6R1HRE4m0UWFf0CQUq/e/WJa1KSpdO99DyrPBG3ibZaE5BpCem15sQr3RAKwcqxLSFeuUGJiogL+B/fvo3NnzyrnwLeigoJWQgoOVqVz7IudplY/xzLI1o2NtHltgSEWczKKjfan6Cm+VFFWauNSIzQ0VLc+Xq9R3OGEtHqVWsx74/W1dGR3GQtbXy+kyvkJVD5PHUrnxlJstJ9CSOgMdOLFB9lQV+fUABgNDE93HSFJCYmDHCQY0XqASE5Gx9xBHyx8G92jl37rbXcq/n06ipBguoi3BZYoeL+102L8HqN4xow8Ja/RPUbp5eVtUqfRPUbpaakZSr2SkFxDSBtfK1XhlYhdVo61hASX5d9++w2tf329gntnTp1SEVJQUBDzKHvpwnnlHo5rPAZuivWvXbOGYfHhXaW0cskMKp0TR6VzYm1C/LTRDI9BSD6+PrRrp3pNLD8vz7BOXrde3KGEhD1H2rnK1OREhZBATAvrUqi+KlEVKhfEKmQEKQkdSUlOUQ3kjm3bDQdgctQkqigro7zcPMKD1BsIozRXENKpE8dpSUO6nLIT9iZhsx02YBqBojbdGUKCxACJihNCRxES6rtPMB8UPiGStQFOBsc64DVW9BirHQ+z80GDhyp9RlvM7hWvgTyHjxhF3Bki8kpCcg0hLW3MVuGVSAJWjrWEBLwqLiqiX3/9hS6cP0+7d++mr778UiEkzBh98smfmSvzaTHGa+yHDx5UtQu4ygUExI01SSos5tjMZ6tASN4+3lRUWKQqZ9vWrQ7hLMffDiUkMLY4+BjI4OBA1QBYJSTMiYplgeh4p3gMAly79jWVSuTnn/2FkgQxl99rFLuCkNYsr9AlI1j87olTdpwgEJeUzKPYuASKiJxkGrgX01mzC0zv4+UkQTNTIEAcA2jT0jOVoLX5pr1few7lCxAcQkWl2uab9t7U1HSlnTBoKl4HucJbrNgWveP6+rZNuZMmT1HK433UxliXKiwsUtWFerX36Z1PmRpDc0tsHRbCygPvc21dHSsbEi5PQ7xkSZubdrGfXf3Y1UoNK5eW2XyQixhmdqxHSMCseSUldPrkSfrLp5/Sp598QvW1tQwHp0+fTthWY/YB7ufnp8JQ1A/X584QUkhIiE1ZRphqlt6phHTwwAGnCQmd0j5AbUfzcnPpt19/ZQ8mcuJESklKpi+/+IItwmnvNTp3hpCwvnXuzTN0+uRRaqrJNyQjSUi2mk1dHcRk+7vPM3U1IS1vzqCFdbPpzKljdP6cY9p2RoRkhFtW0rHOI2IocAv5nCEk5BPLwjEEECvtEO/pVEI6fuyY04SklZAwAGLHcLz5X18I0I0X0zFV9OMPP6jSxOvaY2cISTro6z6gJAmm5z5LVxMS94GG2BUeY8eNG2eoXQyV74qyclOc0xISx1CPIyTvESPJ18ubvvj8c0NH5lrgtnLu6+trw6LRUyepGNnqlN3UqVNVZR06eMhm8A/s30cnTxxXpScnJ7MpPCvtxT2SkHouIEky6tnP3pMJCeaCvvv2W/r6668oLTVVhXHArenZ2QznYK3BaJ8mVL61Ug3Uxp0hpAnh4TZlWcVY8T5dCclrxEgKDw2lr7/+2qWEhIq3bdmiavjSxQuVAdi9aS4tbUynxfWpqtBcm0wpiYGKYgPKqaioUJezZInNQ5GE1LMBRRKKfP7teQc8mZDGXNsY+83ly0zbrkDHbA+2x3z84Yf08Ucf2mAjJwEsm4iklJGRoeDxge3zaVFdOjXXptmEhNg2LTsoNcydO1dVzqYNGw3r5HXrxbqEZMhCwgW9wqykYV0Huu58EE6dPEn7t5fR7s0ltHKRsZmdxXWplJwwhpFScHAwIR8vAzG+CLT179u7l/7wh99TaVmZElauXMm+HMS0/Px8m7y8rHnz5tHyZcscCk2NdabrRqLo3tOVGtoDGDKvJBx3vgPuJKTGqhSaO7fEcoiJjlFhFCek2QUFtHnTJmbPrra62sZuXWZaOsM7o42x1VVVKhzd8MYbjJAObJ9HKxca43FDZSIlxgWwfUi+fr60f98+VTlQquAY6kjc4YSEha5LFy+qGn9g3y5aYdJ5DuDLmtIpOSGI1r/+uio/LD+MGTPGZgAaGxuZKiTUIc3CRx9+qJvfkYEU75UeYyVQuhMoZdkd8345Q0hGTje16e31GCsSErCnqaGBqYCvWrGCfP38FCwsLihkhGSkYAAbeOKHPY63blxiCY8X1qZQ3LTRtGTRQpsyjAhQxEm94w4nJDSiuLDQpgP79uymksJ0u+HYUVu/SZkZGcoD0OtkR6dJQuoYwJDALMfZne9AVyIkYFxCXBz99tuv9NFHH1JyYhIVzJzJyAgf7GYYuG3rNhs8bq6bTwtrZ9gNi5rUSycgNDP7embtwLVOISTsD9LOXaIj0LorKiwkaIiIDQfjwxrtsaNHbQYO5YhfBGI+s2Po52MhzuweXFvWsoyOHjniUNi6ZQt5jxpuKQwcMEBx7sW/orq7x1h3gogsW5KUq94BZwhp8KBBlv73QYH+BEvaVsO8uXNVWKWVkDiOxUybRp9//hkjItiwwxrThAkTVHn5vTwOCwuz2R8FNxSwqgPlCX6fGI8fP5559tZKVyeOHbPBbzGfveNOISQ0Chup9EgJHcSU3q4dOwm7fffs2kVvaab4+CAcOnjQrmVZbBzD/dy2kre3N+3asUN5YNhQlm5iMl1q2UmAcxXAyXK61rvkDCHZcz/Blx9cofZdumCB7lIDNrzGxEwjeFWAG3J7JIDrqampbIsMx1YeQ7rauGEDLWxupqamJlq4cCHb14ntNPweHsPQAeq0Up/RPZ1GSGgQSGL3rl02HeMdNIu3b9tmY9lW20mQEURYKDdAxRHX8RCRBrLLmTGD3v/d7+jTTz8hEJU2P84lIXUtEJGgL5+Xq94BTyckPbxqT9qsmbMI3l/NcNfoGtyZp6el6WKoI23qVEJCQzF911Bfb6PooNdxaOdhwKAZYqWTmGoDa4v3Hjl8mP7w+98raRETJjJpKT42TkkT7+/phLRo8WKqqq5ipnJgLkcbKquqaNnyZYq5mqUtLVRdXU1xcYk0fKQXjfL2peTkVKqrq6MWaCsK5nwWL1lClVW2ZVbX1FDzwoWqe3m+hsZGysqaTiNH+bDyExOTqb6hzcQOvw8xypg1azb5jw5k90ZHTyOYvxHbK94vHsMcTlZWNnEr4+I1foxyFpSWMjM6PA2GVR3tE/LCHE91TTVFRExibYUfpfT0DKpvaDBtb2NTI+Xm5JGXjz/LNy4kjD0v0R4dbxueJZ5F88Jm3bHl9/EYZpqKCost3cvzLFm6lEpLSyksfCJrT/DYUJo3f77uOKLPeH+io2PZvQFjgmnOnLmEdvLyeFxXX2/z7uG9RDrK4fe5MvZkQgJubt+6lbKysmw064BfkFR+unqVlixerHyMi7hmdDwtJoZALnr4q5cGTIbGM6bwjMp0JL3TCYk3Fn6SsH507s03dQcD6TnTpxPEUZ7HXgwyWvvaWtX9P/74A61bq067evUK5efpq347Q0inThylpip9dxNcZOexp6t99+37vF3jnE3NTQwQYOvtqaefJRjpFI124vi662+gV4a8qgIO0V2CeD/yw+tqaGi46v7Y2Hi6/oabbMq+/oYbCS4nRDCav2CBynMrLx/tgN8g8V694wcfeoTVEzVpsuG9IKvb77iL9Q3gDSAVvcXyOhEb9Ql1Qxv0gQcf0R039A3grtfG+IREuuFG2/FAfXfdfS/V1Nao8vn5B7I+9X3hJVW6Xtmpaens3ttub3OfoXefNu2RXr11+3HvfQ/YEOGAgYMN7xXLLSwqpuuuv9HmuaOfSL/zrrtp5uwCu30Sy7Ry7F5CytTFOT3QR5rWdBBfQ8Jsz5ZNm1UYB1yETbrjR48yj7F11TU2182wE7NJkHa0hrC1bQMRJcTH6xKiWflm1zyGkHgjwfxQUcR0XtSkSYx5A52wiYTysGB4YP9+5WHMuqZ1kpyUpKRBPRGLf64kJDw4fDmcPnWcVi2rMt2T5OmE1Kt3q0VuX7/RFBY20SZERk5SvlD7DRjIQOO6G26kxMQkKioupsKiIhJdRuAYYABJhwO2j4+/qlxYqwZx4Lq3TyvRwIjnYZ3fngAAIABJREFUDTfezADMx9efSubNY8ZAx4eFK+UUFrQaFq2srKJbbr2dpffrP4i1AYZDJ06MVO5NSU01BTB8raP+Z/o8Z3gfvtBBNCANGCGF0VTep8DAsao+PdOnr3ItYEybr6LFixfTw4/0ZtfQP7ioKJ4zhwoKC2mUl48C2BMmRqjaAYd6qBf1Dxw8hGbNns3ypaamMTJCO+6+B6TU5pn2ub4vXmvD9QSvvWag/PQzfdi9N99ym+l9vAxIKbwfiHNz86i0rJywT+b+a5bPn3jyaaWsUaO8Wfl4TgAhPM+cnFzq/djjLP2BBx9W3IYkp6Rea/d1qjH18w9QfEBhLCZMUI8Rb5uzsasJCbbsdmxZSWdPq/dQaoFe79yIkF5ft45+/uknOnlcbZEG+AcsXdGyjO1RckbxC/mh8ABLD7k5OVRYUMD2e0bHxBAcBOI6x21XxR5HSK7qGMpZtXIlc/MLyQsi7IcffEBffvmFSoSF0sTVK1cIm2316nZGQtK+UGuW1xiSUlchJHvO7OrrG5j0cuNNtzAi0oIArG/ja/bBh1o9qIrgXVBka6Ea02sA1ZtvuZW5OA8dP4GdDx48RAE1Xsfo0WPYNQAu0rjfIUg5WvfomOpDuS/3G2BTDi8PcUNDIyNASGTom3iNHw9+ZRgra+jQ4ey62Keq6mqbPJB0UPedd96tgO24a15e77jzLiYp8bIRY0oQxAPSATHU1bVNTd53/wOsrJCQ8Tb1NP5r8RmSG+oaE9hGfm2EZN7/mppa1vfW8bdGSPwDA88Y05hiPzAWeC/wkcHT777nPvr3626g7OkzlDRcKysvZ+3GvThGGt4dtAWB5xfjEaO82DWQG6RN8Vp7jl1JSCCjTa8vdUgqEnHEiJBA+Bnp6cxaw6ULF2xwDFNwZh5j9TCvM9O6NSHBLhMs2OKBIGBqDpYX+IDDvAXS31jf5uSKX+OxKwjp0sULXdYfEpeQ7BESplUAGPc98KAuICxbtowmTIykhIREdl0Ebz1CApDccefdrEwALM79Rwew9SktyMzIyWH3PfZ46xd4bFw83XTzLTRz5mybtvB6+zxn38X3o9e+1oOuSXVivVi74SA5fUaOTZ/0CAn5W4H5RoJvJpz36v0YKwcuOMTyxWMurQSPDWH3xEyLY3l6P/q4YR48DxAZpu54WW2EdD3dcuttTKrj13gMEsRUGvqG6UCrEhLyw1U8vOXyssT4kV6t/eRp99x7Pw1+Re23iV/D9CXq5+4w7BES8vXp8xzLo/UFxct0JnYlIS1rmuE0GYGYzAgJWDVp0iT67C+tLigSr7k1x9Tbzu072Ae3/+jRCu5xbPPEuFsTEh/wxPgEKltQauMbJCsjk6Xz+/RiVxASXqj6ium6UlJ3kZDKy/Blez376p0/f77pQjzAgRMDgMeIkLhXWU5IeqACAPXzC2BgFBzcCth69/G08WGtUkq//gN1gZPfhxiO9dA+PeDHFBkHba74IPbJiJDuufcBNkZ83Q0SBchBrFd7DEJEXX2ebZ0+fOnl1qnR0QFjTPMB9JGPf0xwQnriyWdY+qvDR9k8J0iUkEqRF6TtCCFp283Pq6qq2PSiSI78mjaGajHaDAmpvKLV660VQuJu47GepKfQoa3HyrkrCWnT2nK3EhKwCyref/rjH9m60Z8//oj+/PHH7LixoaFLkBH60CMISY9orKa5ipBqylK6NSHhD/7sc60KEJjPH/bqSF1ncRwIRPDWIyRcByghGGmFYU+Et7cfA3goE3Cpg9ehjaGRxZUiMjKzTMEceaExdtPNt7I82rJGefky4BQVL8Q+6RFSXv5MlufW2+5QphIBvlhj0ZYvnsfExrN8kKaQfv8DD7JzONoT79Me9+rVuv6XkprO7uOEBGkMbYDCAjQdxXyTp0SzsmNj41xCSBkZ2YTpOfQzLNz+Gk9QUOvaHaQkrj1nhZBgFw51gNwXLbHV0hP7aPXYlYS0pqXApYTk7+9Ply9/TZmZmSqygUeFyooKZgkcbnYgWfEtL1YxrzPvk4Tk5aV6oNqH4QpC2rX9DV0ygqZdV5GQ8EcHiGnDo489oQAH1LX7PNu2eA+AwFrGU0/3YV5LxfUcEby1hJSZmU2PP/EUA5j77n9QKR9AArVtvkiO8hFAhFArNwMakNfTT7cu1AcEBKrKNMs37NXhrI6x49rWarCmBAIEWdbWtSkNiH3KzJpOmDZDAKBCkeH2O+5kZUEpA5Id6kX773/QKiE9yvLw9SO7hHRNISUxqdV7LicktAdKEqgbY837D0kUBIz02to6pwkpPHyCooyBsiBlmU1J8voxFYlpwtvuuFP1PK0Q0qJFi1i7bwYh6aiN8zociV1JSMuaMunY0UNOk5J2yg44ZbTurcWwrnQuCcnNhLRv9zZqaZrR5QnpxZf60ZAhw2zC2LHjFHDFnx1ftVCBDh0fRk8/86wCcAAmfCkXF89hACiCN67phQcfepjKK2xdhQPceFu4ejaIq7y8dYpHCzqYUhv8yhBWx6OPPalIJ0lJKUo5vDwe+/sHsKmfrOzpLB+mgrgbdaxRtfbnXsK+K16fvT4BbP1Hq6fZUE5nEFJFRSXrA6bROIBzVe/RowNZn8QpOxDrsGHDdcdrlJe3MgYYC+wtevXVEexevDfQHoRkytfA+HiJMdafMFUIos/Ny1eVZ4WQQKYYS08lJHx8LqrNoIP7djpFSnqE1JWIxmpbJSG5gZCgxHD00DZqqp1JLU0ZhmTUlSQkvg4hgoiVY5BBXHwigVwAGFDnxaZTEbyhOPHkU88o4aWXX6awCREElWgrdfgHtO6vASlx0hDzeXm3Tq890qtVwuDXho/wspH4uASINRRMFaKt2C+FacjKylZyHHht0R/94mUhFvuEOiEVIQwePJT1HVKfdn0DY2KkCMLLbpuya23/Aw8+xMqzKiFlXJOCRAkJZWNfGOqHijY+JEDWWNPC1Caui4SEvvKx0cZQPuFt1YsXLChlKuhQssjJybO5d978BYyMcJ0rvYjlWCEkECb6Akle7x0Qy7N67EoJie87RLywfjYd3Kf2Cydq1OkdS0ISfB/pHVplvK5+nzNTdt3JhblVLTv8ybWWGMQ/Pqbrbr2tdW8Q1lJE8NZO2Yn5rBxD1RdghIA9PDwPpsUCg1oVAkAqWDDn1xyJuWo2ygJw40v+ttvvsClL7JN2DQkgjvbFXdMy5PW3gujtKimTX+MxJAvc91zfvqzO/gNateACxrRKMvw+bYx9SMg3t2Qey6clJGycBQm88FI/ysnNY/f2fvQJpV8iIWnLdvQc5NnahxeU8lEG9kkhHWGSwSZkK4Q0afJUVsZdd99DLYLU6mg7xfvdRUggJVfYsuvq2KrXfikhuUFC6omEhDWa3o8+xoBN/FPzY0gG99/fuhiflp7pMCFhv0q4gcUC1MFBDWTH65wytXUPD6aLyspa97Twa47Ec+bOZeVDSsLCPOp6/oXWPU9iOWaEBFNAyPfQw637sHi+hx5u3RSblGy8Ufexx59keUGIyDf12h4trcTHy0SM6UvUhzU8vl6lJSSkcxVrEBH2BXEpEGU4Qkj44ICUK66pie3he8Ow/sXT8SHBFR78/McYrutZISQ+RpB6efntjSUhma+v6xFKe9MkIUlCMv0DW5WQ+KZPbPAsLS2zKRNf49ysTm1trcOE9NhjAMzrKSIyyqbsvLx8Br4AYKxfAIgyM7OY0gHSCuxYJbAHXCBTTAeiLEwJIZ4+vXXvkZjXjJCw6M7VsGGvjucbFxLKyoP0qFXMAGGMGzee9Rsacdh8inyYBr33vlaVbm8fX6UsXmZdfR2bXkM7RSlKS0i4v6CwSFFAeOqpZ1RlOUJI2DOE+qDZp7c59blrJqh8/QNYHSAwKLsgz6BXhtpMZfK+ILZHSFinQjkgX1jMEPO251gSkiQkU4239rJvR+X38fGmmTMmWQojRwzzaH9InJCwWXLkSC+bAI0xACTAFPbKAAzY/Bk8dhwlJiUzMIGZEa5uPXJk6wK4CN5WpuwmTZrCgBOKAT4+fpSSmsY2YsJSATcT5Os7moER9r1wbTEoPei1OyhorEPgBbtx6BuCkZq22CftlB2AERuDkR/TSnydA5IlTOogHdpoGDcAMOqDVQqQMK5FRrWRGMqKiYm9du16JsnExSewfFAmufOu1qk6kCi0Ejko6xESrsFqxV1332djNcERQsJGYUxjoq3QvIRElJs/k7UJyi1Ix8cK17QcPmIUS4PUqfd8YFqIbzgWTQeJ9770cn/lIwfvnN76E++7M7EzhBQ42svS/z47bWK3wDpXY6qUkOxISM4MeHfyGDtk6DBF0gCoaAMAhe//gUFTTNsgTXsfCGLI0OGK1Wd8yQJEALgl8+YroGkGHCAlPYOskFpGjvJm+4aQv3jOXLbOo22DeI42Yt3ErD7xGgCX1z1+fJhuPqxRgXihVSYSAS8HShqQkkBoXLMN1yD5PPtsX8Vcj9hOkNfkKVN164uLS6B77m3d4yPmQd+efPIpm+kzbjZJVPXmbdOLn3/hJSZ16F3TS8NmX0hZ2uePZ4wPG9F+HjYmYyO12G7tMQgU9UDpgZtCEu+BAgaeCaSvOSUlumOk106rac4QEneyaS9urwtzq7g0MSKC2Z+zen9n3+dxhASDfTAECFMX8FaIGOfuMORnZfCnTJ5MMMXhSID9qH79+lkKei9uV/cYi0XllJR0Cgwex8KsWcaWmKHFZhUg+H2zZs6msSFhrOz8vFkO5+flOBNDorGXz5k+8TKhio5xCxk/gYqKrLl+KCstp5DQcJYPrhx4WXoxpDi9dL00SHHN10wc6V03SsP0JNyPoB+Tp8QoU41G93tqurOEZOW/P2TIULZpFdpzVkJ8nL57HHsYtnjhIrLnwtxeGbgO/OXByv3O3uMxhAS3EjVV1QR/RfDHAdcRsJiNwcQ5rHbDja9VD4jODog2n3NadoeopjTBUvDxGuHRU3aeChayXdIRn7vfAWcIafw4P0v/+/KSBIf2Izmr9t0eQoLHhZrqaoa9wGUe9u/fTwvmL6AxAQEun3bsdEKCH6TmpiZLDvqgn3/61CnmoK+jzGE4R0gHTfceiXsSPN1Sg7v/9LJ8SSye+g44Q0gd6cJ8xvTpBDt1ZuHUiZMOS0hJSUm0Y/t2JhDo7YniafCXtHnjRpoUFeUyYupUQgqfMIF27XRu5zIGLCQkxGUDoZWM+LkkJAmYngqYsl3ufTc9mZB8fH3pzTNnFE8G3KOBXmx1ys7b25uaGpscktw4OZWXlblkWaXTCAlO+A4f0rftBDflcD8OEfH4sWN0wcDPO+6BhMXJwx2xJCT3/uklqMrx9dR3wJMJySrWWZ2yw/oQpB1OMNoY0hBfRtFe4+f1dfXtxuJOI6SDBw7odn5GdrZup6ZnZ+veD9fm7py+c4aQ8IDefusS1VcVUktj1zYd5KlgIdsliczd74C7CKmxZg698/ZbunjGwV0bu3sNafPGTbrt2bljJ8VER6swOTE+ngkL2jbifNHCRap7rRInv69TCKmqstJmfnL9utVUPCuG8qdHGIY5s2Noz65tNgMH97q8Q66OnSUk/rDOnT1NSxrzDNeU5BqSBFZ3A6ss37l3zNWE1FiVSW+eOWWDXxwrzGJnCam2poZOnzhhio8ZGRk2eHzxwnmqLM2hvOnRlJs91SbMzJlGNZWzbfoCSWr8+PGm9ZlhdIcTUlBwML116ZKqI3t3baGK+fE0v2iqacjJCqdp0f4EP/Liw8McaWBQkNODYDZA7SUktPPQgV2SkFZYAwUYccXOe+zXwd4TmNrx9fNX9jpJcLU2jnKc2j9OriSklkbnyQgY4iwhYfbIbK199L88yZ45fVqFp2dOHaUFxXGmWAysnp07kTLTopjShIjHJ0+cIKxxmeGq0bUOJ6TsrCxV56E1t397GR3csYCqSxMMByEvewLFTPVlAetP2kHMNpjqM+q41XRXEBIeVk1Zmi4pSQmpDThm5OSyjZL9Bwyk6TNymadT+PKBhXAQE/wtuQJosWl13vz5zFMtTA1xW2/tKRvWKlAWrE4guMKEDcqDFWsjB4Xtaa/M2/beGY2FKwlp7YpiFe6JAG7lWEtIPj6+tHPHDpo/b57hVhhfXz+qqKig0gULDMkBDv7E+rF+v3NTFe3YUEwLiqMN8XhWzkSaNtWPoqf4UlJiAr3z9tuqciIiIgzrNMPeDiekrVvUZteXLV1ER3aXsQBSaqhKopqyeFUonxejkBFICR2qKFe7BF66ZIlTA2A2OLjmKkKqr8iWhGQiJYEkYOFgxEhv5swNbrYf6fUYwTMrbMlBYoKPHSPwMEuHhe6y8nIK+pdxUu4Wne/4h8FXrUsIs7LEa7DMMHPWLOrXf5CNdYK4+Hin2grr1xMnRhFcnfM2wr8U6gVx4npWVjZ5+/jRkGHDCa4dxDbJY/tEY3WMXElIG9YsUAG2SAJWjrWEBGw6cuQI/fLLz2wrjHaabOLEifTOW28xF+bbtmwxxMaVK1ao2lWNvaDX8HjXpjlUMS+eyktsA8gIWAxC8vbxpjfWr1eVU1FWZlinGeZ2KCFh86t28KdMjlQGAAOxsC6F6qsSVaFyQawNIU2ZMkVV1r69+5waALPBcRUhXTh/TpeMsB9JSkitAAJ7ZbBJB7CALyHYUaurq2egDEOm4RMidV2J2wMXkAa3BM0BXoydJaT4uDbbdmJ5/NhRQgJpenu3WgTnZSDmnmphA27wK8MUksI10UirvXGQ1x0nKlcS0tIG9cyQFgftnesREvApKzOLrl69Qj///BPNnTOXYWBzYyNTBwdZZaSmmeLimVPqNa3ISDUeN9YkqbCYYzOfreKElJmhlrT273MOjzuUkDDVJg48VLqDgwOdIqTAwEBVWShXSy6ob83q1XbDksWLbfLyslwhIa1sKet0QoKhyoGDXqHHn3iS2RWDbbHOCE8/04eCgscxshFBEkZFuWsCENItt91OTz39DLNJB+lp5szZDIznzm317SPmNToOHT+BGSwVAV577CghwSzOM32eUxGDtkycO0JIsIT+0MOP2JSJNTSY74EUJLpth8sGWNcW+z17dqHqXLwmjx0nI4yZKwlpeXMGrVhSaoNZIh6aHRsREnBqfFgYHdx/gElDH334If3226905NBhu8oFcIGurRNrP1xCQmyVkEYHBNiU5Yy5t04lJKh+O0tIeBDaweQkwmPMr+ptFNOm/fWv31NQoL5SRHsIadfOLbRs0RxaZuI11t0SEgxaPvb4UzZgpwei7UmDK2xINfYCN5IJVxSw6LxwUattuPiEBIKbcAABCOm5vi9Q6PhwNhUGHzvJKWmsD3quDfQA18vLx7DPcOXw5FN9WFtfGTLMskO3qqpqxQ2F3ljBtxDvf/b06ZYIoqy8guDXSFveddffwBzrwfYcd32Be2C4tLyi1VU7pu7ghRbpsGqOc72xkGmdT0iYDQEpvb6qko4e3m+DXVos056bERI2tFZXVytY9+UXn1NKcrLhRzbHR5gG0taDa84QEvJpy4JAwOuyGusS0kcffUSXL1/WcxSrpFmtQLxPKyG9eeas04QEzRFxAKC5J9Zldgx7eEVFRfTX77+nv/zlU5o1c6ZhXmcI6cTxI9RYmcZeQNFMkN6xOwkpLT3DBui0wNeec7iCgBsBALUjoAc31s8915e1DW6z6xsaqKh4DjuHHyMQEtwMYG2HuWQIDqU+z/alJ59U++sxqjN8QqsTPbFvAPh+/QYQFCcwPWaU1ygdigUgXbFMHENaCQ4eRxUVre7NjfLrpUMR4ulrPoG05cJlA9oJVw7itZhpcaztvI/o1+jRY5xeB9Nrl0xrJTBXSkja/35tWaoKv0Qs0zs2IiRMsZ08foJJRZhxSk9Pp/ff/x1bW8KmWDPDAVoMRb1eThISJCttu6HBZ4bDetd0CenxXr0J4U9//KNCQNoDvcKspGm1MdJTk1WMbHUNKTkpSTUAu3ftttR5qJ1DMoNYe+zYUbI3aM4Qkid4jIWTPBCGCGauPMaXOjyXtge8vLz9WPuGDHmVLdjD2yfaCLcQcM8Al+hwaTAmMJi5wLDiNqGwsMimzzfdfIviW8eZ9oIYXnp5gE25jz3+hOLXyJlyOanoPZfIqCk0Z06rp1p+nXubzc3JU1yCYAoUdYPcJkZEsXU4uGRwpj0yj1qScichucKFOTAQsztXrvxIleXlKvx7fe06RkqXv/6aIiIjVddEnNbiMUjKGQkJXhFEQnJEQBDbo0tIddU1tHjRIvrnP/+p5SHlXCzEkePXVq9WNXzjG68rA7B1XSGTKiDaimFZcwYV5k9SFBtQH7TqxAFoqLdvtmJeSQn99NNV+ubyZYoyeUhif7oqIQ0bNtwGQDmwWYnhw8bLx48AjAB0bZ6YaY6REVxSwMkfpuVS09IVwMSaFspOTk1jEgHqxFc/6oSfI06qkKCsqGdrJQqUPc+ivyUjQIYmnbb/gwYNsdQeozKRfsedd9uUy+vB1KSoaYf08WETGPHA0R2/j7tm595Xe/V+THGCZ1a3vKYmH73x8GRCwprNN99cpj9//DGFh4frEg4Uv7A8gftETBOPt2zerMLRvLw8BY/3bS2hlqZsamm0DalJQSotu0ULF6rKWbrYOa1nXUJSWMfkQOyUI8exsbGqXcGXLl6kHRvLafPaQsOFf4i7WIfhpBQdHW2j956QkGA46K2i6btMKlq1cgUFBQUb3qvtS3paGhUWFDgUZuXnmvZFFN/dMWWHhXfuoRXABWmmtraOuQ2HujDSZhcUsPPCwmIF3Orr61la/wGD6P4HHlRIIyR0vHIP8t5xZ5vH04rKStU1DpRijCm4xqYm5T5ovXEAgLvtf7/uBoLDNp6G/UZoX15+PnO2Z8UHEfJmT5+heFhF/SDV/Jnt95f03HMvKG1HuX2efY4WO+HHifcPMabexDESjyHhlMybp7oOZ4bY2wRy5Y7t0A6UNWlKNOvrzbfcyqY/xXrksX3iMRojdxJSY1WKQ5gydcoUG8wCEcFXnBazxHNM2UEBTEwTj/GRLn7YHz54kA5sL6O9W+aaYtiS+jRKTxnL1L5Hj/anN8+eVZUDnBfrsXrc4YQEh3vwbyQOwplTJ2j5whmmAwAQh9Q0M2cyHTp4UJUfvpL07NlhsQ/O0n66epW5t0i2sNBndeDM7hs5ahS9OmyIpdC/f3+X+0NKTbNdO1pQ2rpfJSMjk+Bps66+XiGAVosIjyrn0OiCZBIWPoGiJk1WXJNz0Bw9OlC51yohLVm6lIYMfZWefLqPjatpLOrf98BDSplGAGGWDulJq/324kv9aWmL4+tFYj3z5y9QEQPGIDcvv11txRSgqDXHx5XHjz/xNOGPyc8RIw3tGjhoqJI+LiSUbZrlHx/Dh4+0aVdMzDR68KFebB/Xw488SsXFc5iU5e8fwPZkYV/Wiy++rHi4xdQfFD5yr3nTxccAPiAwdcrHBXvDcIxpYVjVCA0NY9It1rIeevhRtn/s1Wtt8fEdrdIIhOQHBYwnnuzD7sM7AZX2zKxseuiR3qytAwcPYeXn5c9k/Ua74YkY92FPFtrz8CO9qVevxwhal9BEHBcynq0zol2QGtEuSJQzZ85idaE+BD6OvC9msTOENHDAAEv/+1eHDXUKsEXcCQ0JIWCaaUhKpjFjxhjWFRYWpsJS4PKena/bxWLgMSOl5HG0fZutOTezOsU+aI87nJDQAHg/1M5dwnJ3fm4WRUWGUWTEeJuA9Jl50wk2lkQyw7HW+B/vJNfHx3rR73/3O/rde+/qht07dxqausAaEwbXkQDS1fMEazWtvR5jY2LjFdDioIbFfPz5iufMYdNhogvtgYOGUGBwiAIyyAOpChYTEPDFzstBDMmF/5FFQnrhxZeZZQFYFxBDZWUVA8GQkPFMASAhMUnJj3L69n3BIVfZvG4xhsRy2213KO2EdFRTU6uqR7zf6nF0zDSlTPQdYG01r9F9cFkOLUNxTMVjkHZERJTq+ogRoxjoi/elZ2ZRUXGbhJuckqJqG7y93nrbHTRnbquKeHxiEj39zHMUG59ADz/SS7nXy9uHPRe0FwDe+9HHibsPh5bf9TfepLKSgQ3LuBfPbdDgoSzGhl20DdYlcK1X78epYHYhK0d8X3AfCBT34GPx5X4DydvHn267/Q7Ky8tn7wkUOmJi4pjaPz6gcC+IzW90ICOepKRkljZlSjQ9/Uxfipo0hYYOG876ivcAa3svvjyAhgwZxu5DfoTomFiFtHiaWewMIVn9j/fvP8AhTNFKQtjTefnrrxTNOq3msHh+9PBhQ0ICVsLeHZyhiri6ZlULZafHUnpKtGGYmZtCO7ZvVeVDOZhR4hjsaNwphIRGrl61StURPhibNm6kmJgYCg4eSwEBAQRdeYh/G994w+Z+dH5ZyzLDzhcVFtLO7dvthqaGBsMynFlDOn70KI0YPsRScIeEpEdIAWOC2J+yrAJqxq2AUlLSuqcHGyxzclpJJjJqMgOW2++8S/kzYzpNBEIRYERCGjx4CPuKxZcsD4sXL2blNC9cSJh2Qjni9BwAwRWEhPK5pIA67rnvfqX9ZqBj79ro0QGqvt95173U+9EndMPzL/SzVCdAG4Qvjql4/PiTTzOCENNCQkPZdKqYhum71NRUpRyYLBL7k5k1namhi2k49vMfTfx9EK9xya2kpIRJxZAOGSHdcCP7kAGZIDz0cG+lHph2wvPD+N962+1M+gWpYX0MZYPYxPdFJCTUhz1pz/R5XiEp5MH9IBreNqaN+ExfZsEDadgqUF1TTc/06Uth4RHKfSBfngfTmFpCAglnZGYp9/B7jWJnCGngwAGW/vcBo2210jgG6sVaLbsxgYH0/fffEdbOY6NjDMPmDRvsOujDehRMuGnrhRmhhPh4wnU+AwVtOtQN54CwIarNAz91jpKQeH+nERI2TW3asMGmQ+hQAZQmAAAgAElEQVQgiAYSFDQ1tJKUOADLlra0q/PiQBgdO0NIna1lp0dIHESgYh0QGMz+lMFjW6WigsK2TZUDBw5mAOcMIXFlBCgk8IApIfzh3U1I4hoVQBubfo2AxpF0gJpIAmbHd997n6U6S8vK2LoZLwsWKvgx4tvvuNuGkCCpgRzE+0BIYWETlTQtIQGUsS9K218jQoIkBckNzwpTbtBIba3zenr0saeUqS98WPAyOSFh3RLPGmTd9/mXmFTd2NRoSEggLyitoO98HZGXCULCdX4eEBDINnTz86zsGfT4E8+wMYTGIU83I6SMjGyCOSorijG8PGcIqaM8xnJCwlqrEXYh3ao/JEhg2qUUjsXAYfhCAkEhhkVvEYf58YF9+wxnmszaKF7rNEJCIzC1VVdbq9s53kmjGL7ere4EjoqIVN0LqWvF8uW0ZfMWys7MNH2g3YWQAGRQFsAfcvasVttomBrBnw9frfxPyDdpOkNIIljyY66C3NGEBO093qf2xB1BSE88+TRB8uJjhhjrdOI5pqUcJaTc3Hy2cVbsP5QpAsYE0vARbetN2FSJNaPxYeFM+nm5/0B6/oWXmVFbJiEZTNmhXE5IJfNKCBuDuV3AwKBgGj7C25CQoLSBgLVMSDxYs8Q7gjLj4xPopZdblVzGjg2hvs+/qKxhifu9CouKmGTFjc8aERIkLKjMw1qJOBb2jrsDIa1cvtyuhMQJYWJEhKHTVCMc5unw/D1u3DhTLOX1mMWdSki8YYmJicyH+7vvvGNKTpCc1q9bR/Hx8ZY6jmm/E8eOMTtP40NDWR5opvz544+Yxt0XX3zO5mBBTrwt2rg7EZKobo0/I8iCG+7EORaHuZq1M4QE0z8AcDFAww5lu5uQAEqQ0DiIP/xw2xqJPeAxuz7sVevq81YlJO2UHcDS319NQLAmwfuCGFN2Tc3NqjSs02GNhd+np2wB5Ynx48MJUoWXlzezhzdz1mw2pRYbF0/ZM3KYwkBEZBTb5Ftd3WZRHWtJaWkZhmtIGDdOSGXlZYwc0jMymdIH8sbExDJCAgHGTIulabFxTKmCryHxccfUHT6EMH2Hzdz33vcAWxtLSU1jZU6YGMnyFxQWMcUVvFPYq9ZqbqrNOK4RIeXnz2KEBGLidVqJPZmQMHX21ZdfMi+vWszi57jnyy+/YCTD0+zFcOMDaZcTjb0YM1g1NTV293Paq5df9whC4o2JjIggGMOERXBozvEAXfn6ujqKiooyJA5ehhjDjt0PP/yN4G2Wp69atYptJEtJTmFpa197jREW5kn5PWLsDCGdOnmMViyeRYvqzL3FQlPFHWrfelN2AC0QNP8j4ksTaVOjY5S0+IQkBdycISQQES9fG7ubkKASzdeo0C9xykfbFkfOw8LDlTFBuf0HDFYpbIjKG1bt7IFYxL1dsACBNREoYqAOvYB9ZWj3TTffqlxPTE5RqYfzxX6xf9A4GzrsVcIGWqj8Y2oT13Nycqlf//704ksvU9iEiQQFCBCHmBfmj7KzZ5C3j69qA3BKats+svkLSgnEhnxJySlMCebFF19iCgRIgyLFgIGDWPrAQYMIUlvw2FBVPbgP2nyQ2p7r+zwlJLQqvUCNnyvWIIaBXUhTIKQXXniRRo7yYkoQvM0TIyYp5UKRBuSGaxkZWcTXS/m9VmJ3ERIMrS5tsnVuZwb+2jUkYNRra9awD+rioiLVDBCu+fv7E7ZxQKHLGQem48aOpeamJtq7Zw/BK7fYNljYgUSEWSpntelEjBWPPYqQxIa54hjznQcO7FcRDRbizp49o0r7+99/o/y8fFUar98ZQhIf3uLGuaYmhNxBSNzumxbYoBbN/4hjQ1r3Fo0a5aWkwY0Cz2NGSJi35uWISg3OEtJDj/RiqsC8TGdiTBVh0y1vP+L0dOsL2EZ1ZmSq1a/xFY4veqP7raY/9fSzqrYCkLVrSWJfIHGg7GGvjlLygUCgLQk1ftw7+JWh7W6X1fb3hPtcTUjYtrJscZkK3EWsMDvWIyRg1Ad/+hMjJSg4bNm4ka0Z7duzh65eucKMreI6V0jgmObJcbcnpM2bNilEE/Qv7RB8MUDNUXwo7iQkvGSbXl9sqNfvDkJaunSp6kuaAxskCJAOArfLhj1IPA0bK/m9mFbh6fxefo2r9gKUoCQxfKQXC1DVNQIqTAeO8vZj902eHK3ch2kYSAaDBg1W0ozKsJfOTQ/xdkKVmK9L2MtrdB3TPHwak5c7MSKy3W0tLmq13cfL9B8dyNSk+bk25mrssAzOJSlYpUC7S0tLWRqmLOfNX9DuthmNRU9LdzUhbVi3lN5713xZwoiUjAgJ6/DlpaX06SefqFTA//THP1DujBwbyUnEPU887taEhL1N0AzhA79yxUr20CYIpjZgDwo6+8mJScp9/H7E7ZWQ8ILBH9LCmo71GDvKy1shFy24tef8pX4DHNJUsgdiMHWD9mDDpr177V3HdJQ4pYVyR4xskwDt5Te6DuOp4phBkoEVdaP7raaLm2PvuvsephAwaPAQVV1ivT6+/kw644onsNiQntEqBfI24tq8eZKUrD4Ds/tcSUjLmnOckow4QRkRkohV2CYDA9bYoySmd6Xjbk1ImFsF2WAtallLC1tPOn/uTeVhhYwbxwzIYoMZLIDrPThXEBJeqpqyTF0pyR0SEv5k8JCqlWxEcHPmGFNi9Q1tFh7M/sz2rmEdBbbt0A7va4oP9vJYuQ51ZW3fxo4LVbS/rJShvQcSIZ8W42XffsedzD2E9l5HzqfFxivSDqQeLOLX1dXRI7162/QB9WKxH+XDQgLWyJDWu3frnjKkJyWnEtT24d7akXbIe/XNC7mSkDaudW6qzhFC0sOvrpbWrQkJDwMbZz///DP67rtv6Q+/f58mTpigEM9777zDSGr27NlKmvYBuoKQoD1YV57aoYQEkMmfOZPtgOcg2p4Yi/Cwtg014PYEgHtqarpiOPSll/urFqbbC47QEILWmravz7/wEs1f4LzkkJiYrJAHLxskkpCYSNhv42y7se7Dy0MMX0dop9HHxPjxE5iEigV7ODFEnj7PPk9V1Y65AHG2vT0pnysJafVSx5QYOBHx2IqEpMWurnje7QmpvQ/FFYS0ecMaXTJyl5adCBrQPuvV61GVSrQIgJ11jKm1wOBxTgO52Eft8dySeYaWEGDXLTY2gWmbQVUcwepmSazzGI0XlA2wURWSH+y+OaJiDGsGvNz7H3iYYPcPNt8wjcfTeYx1Iu6gD1OUL73Un2nswbxPaOh4t4yndnx7yrkrCamlMYMunFPb8ORkYyWWhGRi6RuX2gv0XSV/ewnp/2fvu9/jqK7+f/gmAQwG995777ZcJctF3erF6r13S5asbnXJKq5yBwPGNDfAGNsY02vyJnlLII0EEjpJSN7n/QPON5+zvuM7szOr3dWqsnqe+9yZO7eP9nzmlHvO9WtX6MTB/H4DJBAPWIXBO0BYWAStddnIroPgPqivE07XwwAiLy9f5dy1NwgcfPbJZuCCoMv5sAeHk60hzOFyR+5Dew3RHjgnW0KYw80STJlFXziwDPNmgFpERCSfxRHPkCNoYXHxXgYfgClAEIeeAWS9sZc/1j4dCUjsjLQjh956845duiQnIDkBiUHXHkB65+036fEz7fTE2XrClxH+GY1Sb+mQfqxERF43DuwhlIZMzLXXtgIS+sd5GyORmujfFkBCnwhGiHM3Ip7TpMlTFa/i4IhCQsLYw7XoH77w4ClbxEOS1+281tcJ2bovjgYkBqX2LHrybCM9fqbTJmByApITkOwGpP72ZWfrD2+o14enc4RY0OOY7AEk7BfEcvAUgDAIAiTk3FZAkt9BfsEePqQaHBJmxvFAHJmYlEIIPeHrt4tgNi+3dV47Boywj70BSOLD1BERYweLlMmWeTp1SO7uFsWP9nBITkByHFFwJIHFWaiExGT2WLBo8RJCWr9hY49jJlXX7Cf/wGD2Yi76hZcDR87d2Vff/085AckybbQFaKyt6wQkJyA5CefdeDlOot/3RH8g77kTkJyAZJFbsRZlHVnPy9ub3fDDFb+1yc/Pl7LTwqxKW7ZsMAvm19MAfQP5R+6cm5PoD5b/AXsAyWOHm1W/+9TEYEJ4cWvTYHL/0xP66+SQuuGQ7NlcVzc3M5CxNpIk6jkByUm0BwvRHsrztAeQrP2d4zduD20Z6m0GHCDBzT5ixONQp0gINxF4N3xEX78Q7VzEnCzlubm5TkByisGcotBB/j/Qm4Dk4uKi0DdLtEQ8i4yMVAEYYsE1NTTQSy++aDHBW3dONzHfuqOpcEkUFhZGERERFBoa6rBQE3rjDghAgtue1JQUeuHKFYumkC9cuUqxsbE9jkqotxFGZfYZNdyguopEq5L71i1m4OXkkJwc0lDmPAbL2uwBJH/fHVb97qv3JVmkddrDslqzb4jwXr11i37720+U9P3339FXX36p3OPZl198YXWAPpkG7tq1i0pLSngM7Vxwf+n556mgoIB958ntenrd74AEvQwcoOot2qgMTlMR9bUni3d3dycgf3d92AdI1w3PHQmzT5E7zyE5wWewEOgf2zztAaS+CmGuR7fefP11OnVCHWzU2hDmcn8d7e1W02METd1XUtItHZX7t3Tdr4AEhH37rbesXrwMUIj/Hhcba/dG5GRl01/+8nm3oOQEJCdg/NgIsXO9pv/5Hxsg4SMfIj6Zzlp7jaCqjgjW12+AlJGRQR+8977Z4hES98L58wSUrq6u5vzSxYtm9bBRiGSola3K6NvY0EAI0qeXfvM/psBWH334AYf4RYRFua24dgKSE5CcBPrH+T8wWABp27ZtVFFRQX/5/HO6+NxzKjr29PmnrBLZIWzF7Vdf1aWzoLXXX36ZXrj6AudGIAUw6yko9QsgIVz4G6+/brb4py+cp+ioCPLx8TJLcbFR9NyzTxM8Z8sbggiwPj4+qpcgwAQKv7///W9088YrdPXqVVUCmCE0xbVrL3FoCtFGm9sDSAC5848fp6fOdVBXZ55F8Z1TZPfjJHZOkBv47703AOlYey49+WgbPX3+jIqOyTRN71qrQwKdgh4Jep5f/fKXTMs++fhjgh4pPDyc6SE+1kHjtCClpXGenp708kvXzOZz45VXqLKiwgxkYGDW0txMr98x98v35BNP6tJi7ZhG9/0CSE888YRq8RyeoaWC9pfHWEw1ZdHUcaCOwEXJL62lqUl3EwoLCuibr7+mb7/5huLi4lTRE0uKi/ll4cvAaHNQbg8gyXN756036Wi7MSg5AWngEyYnePw435GjAenk4QJ69x37VBR6gHTntdeYhn3x179SbU0NIXrsV19+wWUAIqS//e17to6zROMqy8tV9BR6oZdfukLVZclUXZZkmGrK0+jWzVcI9WWal5GWbpGmWppLnwNSUHCwGaCcf/wotdSndAtGqUm+FBezg0OQyxuADTEyC4fhwmuvvsqhy1+8ekWx0OsrQMI8r714yZBLcgLSj5PYOUFu4L93RwLSsfYsguREplu2XOsB0pFDh2h/VbVC00DoIX166oknCAYOL73wAgUEBFgEB9BNrdTp5vVL1FiTZJEeg3nIyw6k+FhPevONN1TrQn8AR0vAY/SszwGpurJSNflXXr5GN6/W040rdXSwNUN3E8AZZaT6MRgBkLbv2EHXXnpJ1U/Zvn2GGwCb/czMTEJkWMhZmxobqS8BCf947Y1ZuqDUW4AUFBzCzkThUFROs+fMMzsfU1S0l1atcaEpU6fRiFFjVPXXb9hiVt9JTAc+MXW+o56/I0cC0rmTFSp6ZQsYoa4eIBkRdVvKQTfluUCPdO1iA12/VEtNtcaglJMZwPQ4NnoH+fvvIhiZyf0kJiYa0mNL8+tzQLr96m3VxBvq9jMgAZReuQxQSqMDjcmq1Lg/XgEjABIWhPDk8gace/TRbjcAtvXnHnuM/vGPv9Mffv/7PhHZiTke6OMQ5v4BAfSTn/6MJk+dQbPnzOeEe3inFsQqOSWVpk6byfXwDGn8xMlcF7GScL96zXqlvmjnzHtO7Jx7OPD30JGAdP7RWhW9EnTB2lwLSDt27mTd0fPPPcuBGfWIfFBQEHNJly9eNKSNT50/r5pXTXW1ih63NaZSa0OKWQIdRgIgbdu+jY4dParq5/ChQ4Zj6s1VlPUpIMECQ34BYO1CggOVDQAoHW5Lp/bmFFVqqk0wA6SI8HBVX6/eetXqDcBp45evXaNLzxu/KLFBPdUhYb2sR2rrWw5JAFJBQZECKAKQ6hsaacbMOQw49z0wjBAQLiIyhhAoThDK2ro6JyANck8D4l06c/vAz5GABOMmmfbZeq0FJNCntgMH+ODrZ5/9mQoLCxX6B4lQ+b4y+tv337MOqbqqSnkm6JrIP/xALUYMCQlR0ePO1lQVLRa0WQtICQkJqvWBYxJj2JL3KSDBgEB+ETAl9PPzUW2AtYC0c+dOVV/o15aF46XhK6O7Nj0FJIAurGrEQVht3lsiOyNAGv7ICAYaEzc0hSqrqhUQEoQLkUcrq6udgPQjAyREn8VHSefBTur4dwh1W8Kwi/+doZQ7EpDwuz94oNxMXyPTQ0vXeoAE2gULY4DKv/71T7pz+zYFBwfT++++y/f/9Z+/JqPjLGgL/ZF2TJSDMRDJWkBCO21fUK2g3JY0aAEJJo/aDdBbOLzptjQ1cxIblJSYSN988zV99923dP3aNZVSUNtHTwHpYGshnTxkHDW2rwEJQITk6elLXcfVIa99fANp/IRJ9OBDwwkRSVHPKbKz7+t6sBHm2NgEmjBxMj00/GEa9uBD9MCDD9Hwhx+hOXMXUHxCstlHy2Bbnz3zdTQgnTyUQ22N+Swx0dKu7u6NAAn0atu27VS+bx/97//+i/75wz9YFQHLOXx0a+mZfK8FJJzXxHMBRsh7AkjdWTDLcxHXuoAEgwH4SbL0JzqwJddySB99+CEFBPipNsBaDgnyUfklvvv222abDzv8zz//TDGD/PTTP1JJ8V767ttv6T9//Ws2jPjnDz/QK9evm7UV67IHkO7cvklH23IJljVajkh73x+AFBERRcdPHGcic6CtjVw2bKb7HzABkAAskTsBaWgDUmxcAn+EINrtsAeH06rV68jHZxf5+fnTkqUraPjDIzgi7rjxEykpKeVHBUyOBiTx2+/qyKbOZttEeJYACaqQG6/cYDr3/Xff0ddff0UHOzoNaZqgbb4+PioaCnqKQ7b2ABI4MZkec1/bt3c7BzEXkesC0uzpMwjpg/c/MMQk0YGtudZEcG9RobIBsLQ70p5BnS2pqtRSn2SmQyrIz1dtwDNPP222eHh4+NOnn1JKcjIFBwXT7Vu36Icf/kE3b9xQ6sLKBPb64WFhSpm8JnsAaSBEjDUS2a1ctVYhKqVl5TR23ATmhB4eMZr8A4KouKSUDh0+rNSx58vS2Wbgg9iRo0dpp4cng83kqdMoNi6ejh07ZvbeIcJLSUmjiZOmcF23rdvM6gzV991bgARgclQI86KiIvrd737LEp8jhw/zIVbQQtA5uGWLi4vXpWuCxsFBgAwkUZGRCj22hUNKT0tT9QPjNTGGLbkuIP3+d79j82hDNCKyazBMrLWlRTXxay+9wBsAMHr8ZJEhR1FXdc/SDqzo0xcuqPqpqqw0mxNYUFjViQ3BmSSAT3FRsVKGZ59/9plZmWgzlABp3IRJdPiIyXChvqGBHhkxin7y0/tow0anafdQJapG6woIDGKAWbxkGXUePGgVyKxdt57buKzfZFV9o7EHS/lABiTQwNMnTzE9+49f/JyiIqNUNK1ozx62JP7nP38gS0YNp0+dUtFReGAAEIEeXzhbYkiPy/fuVlnZPfH446p+QOcFDbUl1wUkS0AkntkyiFw3LDzcTLH39OOt9GhXoeHiBatbX22ytivZu1e1eCC8nk+7d999h5599lnVxkD5t6dwj1KGFwuX7cV7ipQyeb45WVlUUVZmUyrdu4dOHMy2KiHCpDaolyPCT+hxSHHxiUxIoDsaOWo0c0ZbtmxViAvKK8oryW3rDpo+cw4nT08/5flgISTOeVrm0NIzMhlYpk+fScePm0S32j07ceKE7ntfumwF3Xf/A9Tc3Kz7XNvPYL63B5DCg72s+t13NKbbRFO0jqQRsueTTz5mTzIyvZKvIUZ7++236Y07d3RpG+rmayRNH7z/Pr30fAM9/Vhpt/S4sjSazb5DQ0II6heZ0xLui+T5WHPd54AEY4SXNYdasZjjB8u63QAYB7Q0FLNVibz4Jx9/XHfDzz/5JLOyWRmZynMYNGAOYnNOHD/BXxk9dQoo+kPuttWNNm5wsSoBfPoKkI7eFclkZeUwGM2bv4hgUQeiAauqcRMmcrnQHzmNGiwT9sFKbOfOX0gPPzKSjtzlluV15OfvoXUuG2nR4mW6gNPa2spghsPWsMKbMHGSxeS7K1C3H3nMgXptDyCtWbPGqt/9xo3rFRok0w5brmU6ZqmdJeMGSI1kWorrWzde7pYWg0kAPd5fkWB2KBbhhKydm3befQ5ImAAOqGpjIME/3aHODjZy0HOuGhCwi04eP2bmdggbaOQeY5e/P/3i5x+xLT5camgXD+erYGnPnD5t9kxb15b7gRDCXI9Dwg+/6/hxephFdT+j/IJCJhbNra007MGHGYxWr3Ghwj1FVFVdw6mpuZlKy8po9Zq1nLa4ulFbe5sZkQH3tXDhYlqwYBH5+gVQV1cXlZVXKO22um+jjs4OamxsIh9fNdcF0/PQ0HCzPq0hVHX19coYmGNVtbkZe0homKrO4cOHWV82d94CWrhoMWVkZvPYu3dHcr01a9dSxO4oAieRk5PLz5rgL1HSn3h4elN9fQOhLsZdv2Ej7xvmjHWvXLma0L/bVndlXdjXJUuX0fz5CwntAQjow2+Xv1IH7feWlBJcbMHwxMPTi+bNX0jLV6ykysoqtox0dXPnvtdv2KSAyoaNm3geyDG+0d6hj5/d9wBt3LSZqqqqKSx8N61atYamTJ3ORg0wbkCaNHmaqo+amloKDYuglatWsycP1MHeI8/KztZNi5cuJ/ftO1X9iHlVV+/XLRfPe5pXVdUoOjFwe5WV1XT06FGbxrQHkLQfl0b3jghhDsenXceOdZvi4+Is0rf8vDwzf3S3bt6gtOR4CgneZZgK87Po9TuvqQANzMXuiAiL41mipf0CSJgQPC1ofSgBXOB3DqEniouLKTs7m8P84l7POzgWD+MGSwuE2XdiQoJundiYGIJSEJYlRn10HT3GLtdxZsra9PSFpyg4YKdVycVlXZ9xSPiRNzQ2MvA8NPwR5Qfq4+vPZevWbTQzBUebVavXkqeXLxPuLa5b2RJLJhiNTc00Zux4ysrOYWIKbxB5+QU0f8FCQt+ZWTm0c6cnLVi4hFJS0+mBYQ8RdFiiDxDpJUvMv8jxBV5YVEw5uXl0+IjJ0ALzT0vPoOrqGm4fGBTMX/QYA+nQ4UNKv6L/kaPG8DM8x7zS0jNp2vSZtK+snDKzstnUub2jg0aNHsv10jIyCW1WrlpHK1au5v68vHyZ+OJQMQj+mLHjKDU1g5YsW8ltgkPCaNz4CVx37NjxFB4RSeUVlQQAX7h4KbW1tdG48ZMoOSWNysoqGFCCgkO5Lcysm5tblHmvXr2Wn2MtOLSM8Xz9/BnIwsIjac1aFwYTl/UbaKv7dsrJySe3rdu5r4iISHpkxEjq7OxU+hP7gBwfCwARmHQjR8L7Ql+7I6P4/a1YuZZGjxlP0dExBL3R2HETud599w9j44Z169YT1ovzSmiPfgG2AODly1fS4sXLWFe5xc3dDJDq6+tNe7tyNW3a5EoNjQ00c9Zcnldubh73n5qWocy9Zv9+Aie/08ObvL19+X8RgL7OZT0lJiWzHrS6poa8ffxowsQpzLUtWryUNm7cRLNmz6WmpmaaOWsOfyBMnjKN///l/bB0bQ8gbd60warf/e6wXSpCruVStPdaKzt8YMOp6l//8jnriuB5Ri/B4g4REYzoG8oh/kPIH+2YuD/Y2Umpqan80Q9GAqbiWVlZpNU9ibb2emgQ8+s3QMIEavfvN5M9ioV1l0PWub9mv8WNFouUc4APTMZxItnbWz9shVx/KBk14MdXXlHB4LN8xT1ru0dGjuGyppZ7RFH+oQKQACQoa2tvJ7gVkp/7+PnzF78oA5C0HjjABAoggPKW1lYWE6EfnHMCUTX118aWfnqABI5k3rwFtM5lA82aPY+JMEBji6s7myqDCPrt2kUBQSGUlJhMRcXFuoAKcOno6OB08NAhAjc3Z+582l9bS+CWxLwBGOLadet2CgwMZqDFgVFYmc2dt5Dwg4mKjqFFi5cwIIHoog0AE2IwXE+aPFXpB+sG0fbxC6BNm+4Zjxw6dIgJKPYHHwcrVq4hjNPQ0MD7AeIu5gLTfHAnS5cu5zXAQg7P/AMCCdwSAGl3ZLRS38PTh7x91FyX6AvzBoe0dq0LweQbHLN4JnKYfmPOALap06aTy/qNFBOboGv8IAAJ42Me6GP9+o3MkegBEj4kSkv3cV8zZ82jurp61kehblZ2LoWEhlJkdKwyp+qa/ZSYlKIyvIF1YFpaBqeFi5ZRRWUlFRYW0Zy5C/n/DACGeeA9eXv78UcRuM1ly1dQwZ57nkvEeo1yewCpryLGevv40FdffUmlFnx4go7ZEjH28qVLuqDUHS0Wz2HYINNOe677FZAwYYSFALhoXZiLRerlqG/E9Wg3AagOr7fPPWMyC29va2edkXDPfvniJYcfjB2oZt/44QlA2rT5njGD0BmBWOv9OAFIkyZPp1mz57NCOy4ugfLzCpkgZ2bmkPfdcyvatiCqk6fAl94CJnAxMfEMbCAMY8ZOYJHUkqXLyW9XIHNIADFwHUggzKPHjGPCBSuwyVOmkpfPLhYXFRUVMwCAgONQINwgJSen0cjRYygpKZn27SvnPtLSMungwYP8RdRggdAAACAASURBVI4Dn0jg5KDI9/L2Yy4BuhD/gGAGA5y5gYhpzdoNfDgUIikAIfoBR1SQv4e27/BgAg1OBfPEHEEIAZQADOyBDNjYUxDtnZ4+5HYXvMQ+YTwA0tKly+jhR0awuT3Efz4+/gzmqAcuBAYoOKgM3Z9om52TyxwX7rWAVF5RTnPnmYiyqC9yAJIMvCg/euwoAeREAmBDpCbuRY79Fv2IXAYkrBt7gcPVeK4HSChHPwA5cGS4x/sVwL47MpLCI6KU/wNw0kV79yqAhI8dcNpi/MVLljMg4R5jNzY1KVwZuGEvb18eb29xCXNaop01+Y8NkEA7nzh3TldypUeHRRkkXR1tbT0GI4zf74CESeDALFhSAI1YpF4OPRPODeHrQAs8evdxsXFs1PD9d9+SkKOeOnWKPv74N1RTVUUQx8FeH+eV9NqjbKhySMtWrFF+1CNGjTVxSAaWUwAkiKD2FBXR/Q8MY7FHYmIKf5VHR8eRp7cfeXh4K/3BWg/nVwBIUTGxVFC4hwn8gbYDDEjoLyk5mbbv8KTxEyYzgIBDgk4DX9pIZWXlDCTiPj4+kQknvq43b9nKRDotLZ2Jpjjkm52dR6vWrGMRH9pFRsbQgQMHuB8AA5Iw7ABBAqHdv7+WOTboniCmqqyq4tTcauIWd/kHEIjemrUmJ7MA10lTprFICoC0dt0G1qVAHJSbV8B7MHHSPQ4JIAuiDQ5po8QhYXzUAyABhFJT02lXQBBNnjKddXcyh4S64CwAerjGnEH0Gxsb+V4LSBDL4SMBdbUJHwPgyOTy0WPGMpgD0C2lqhqTmFRuKwNSYmIqZWRkMUeLOkaAhPcO8Zt4b1pAitgdrbwHcJgyIMHkPC4+QZm/FpBQH94lMH5kVDR/7EBMOHXqDGrvaFfayWswuh7IgOTl7U1ffvkFVVZWGNIu0K8rly51K7KTaR+MEXCmCEdm9GiwtgxnOqOiorr1CiGPYel6QACSmCDkoomJSVReXk7NTU3UdfQo55WVlZSQmEjwXyfqWpNffP55lqvCv5OoD0B67z2TiwyU1VTXsGEDRHiijpzbA0hvvH6bOpryBpynBvzwGhqbGHyGPfQwE2SU7fIP4jJwBlp3QnguRHYgIGtdNpCPr5rYwVABnAeMA4r3ltL0GbNo794SRWSHdhADgbuAyA79QaeCNsnJqSze0RPZQfQVGRXDohwXl/WUl1fAug6I6iDigkgNOi3oMyoqqljfEh6x24zoQGSHcZEAANEx8YTzN8V7SwihN6DDgfhOyzlg7TD8gO6kpGQf9wu92IKFi/kagCS+7JOSU1gvhTajRo/hr3/ofjZtduUvehiH8HpT0qh0HziY+eTvH6gAEvRFOBcWn5DIYiwAUnlZBetkANQxMXGso4JBCUSD4DahqG9paWUOCSCN9QWHhDJYG3G74EYBIiWlpvVgvkuXr7QqQbyG+nISgITDs9CNcX/LVlBLS4suIOGjBPuNPYTYEPUPHjpI/v5BfB0XH09JyamqMTBXiGlRd/qM2aqD2xs2uiqGLNB94f934aIlrGNCqBVwTPjQmDNnHnPh+N+R52/purcA6UhbFrU3FlhF8AUAaHVIAI4//+lPdEs65C/TLVwDtBCc9NlnntGlbdr68j0DU3o6tbe10fPPPqfo8OHVBmdAGxsaCA5V5TaOuB5QgOSIBcl9AOVfeukl1aa1tDTTrZs3VWV6h2VFP/YAkvgnQv7E2Tbq6jB2IdSXroPw4wM4PDLSdAZJ/DjxFT/84ZEMSjD3TU3PoD1FeznV7K8lhKkA6KA9LMNggab9IcM4AARmzZp1hFhMIAxQsIMQoy7EQsHBodwP+kMZ9C6YD/QpUVH3dCCib3AtmzZtZgCLjoljhXVoWDgTGze3rayn2l9bR5u3uHIdAKWeKXNCQiJ7JYDuAQlzgTEEgBFzFgQwStJdiDlARBQiWQBizxTrxOZmgvgQdbFegAGuYcywafMW7t/T6x7nCE4R+hVwRH67AngeAEIo59Guvd30BQ+OAQYF6DMgMJD7gfUcvGjA+AGWd2It0TEmfQssF1EG6QHGF/PX5rW1dewmavNmV6VOTGwsQVTWXYL4E/3BKhJ1AaIApNS0dPbmgFxOi5YsU8Rn2nnI9xDhCXEg1iw/E9fCEz3+X0SZyEWZfKYK4CkOgYt6tuaOBiT4snvibAd98J513IdMR7SABPqE2HI4V4kQEiHSRzeeQTqEiAawIrY3NpGggX2ZD3lAevHFF1Xgg82F7b3YZHj8BiAVSYdlxTPkPQUk/FM9d+G4oV1/XwKSsFRLz8hiDw2wbhKmsPhKBWfz05/dx8Ak9EpOX3ZqjsBWojYQ68MKDVZ2AgDBmQFYukv7ysvZ5B/1wXXiDBt0UpZSuM7Hy0DcE705ORKQcGbn3JlDNnFF3QES6BMMERCmHDQM4PSLjz5SdOTw2dnc2KjQOpmuDdTrIQ1IV69eod//7rcWXwiUcXiZwUFBuvUcAUj4xzrYkq4LSn0JSDFx8fx1CcsqiJUAOhs2bFZ9ceIMzIaNbjRlmjNAnx6RGgplUPYDfCAS1VrZQa+GECV4XlNjflYIhhnw1FBXay6+Gwp7I6/BkYB0/KBtIjoZjHCtxyEJUIHh1tnTp9kjgwhDcQCctIeHLk0T7QZiPqQBKSU5hcEGsta6/bUUFx2jpOTERLrxyiscPfbqlSuGL85RgNTWmNfvgDRqzDhF/g5T4pGjTcYMy5ebztrIP0ZngL6hxxnJ7zcmJpZBB/oWcMfimSVA2rLFjdvA1FzUH8q5IwHpwmN1dnNH3QHSQAQWe+c0pAEJm5KTnU2/+o//UNhYcENywgEvBLky2kCHAVJDRr8DEjgiKLAFEamBIn/CJOaU4L0B1k/QHUHH4gSkoQ1I0LvACg3cDs5YCV0UdDgwXFm5ag2bY6NeYnIKzZw1m8HIV+NVQvwvDcXckYB05liJE5CsCNY35AFJAE10ZBR7dYBnB6TcnFyrWFpHANKVS0/pghH8QfWlyM6kF7qPgoJCFJNbHHTduMmV7h/2kEp35NQhDW1AEgACfeKMmSawGTFyNB9Y3unhxRaAsBCEWT7EdwAteMgQ7X4MuSMB6XhnNt26cc1uULIkshM0bijkPxpAsvdl9RSQ3nrjNh1qHXgRY13dtivueARxgSPM2XPn0fgJE5W01V3fF5lo48yHBnDh0C1MseEsVZxFGj9+Irt/gqslYcn2Y3rfjgQkfHx2deTQ7Zsv2wVKTkAScSYMcnsJ/GBrZw8gffD+e3TqRAfVVugbMohwGv3BIcE7gOB+Hho+guCa5cdEZJxrHRoA2hfv0dGAJH73LbXZdPakbRZ3TkAyACJRPNiAxd752gNIA9V1EIAIjjRxpmjWnPkMTNAhzJ4zl+ITkhQT8L74sTvHcALDQP8f6C1AAjA5KmKsvXRtoLZziuy6UbQNdkDCiX+EQkASgCQIQVJSCk2dPlPhmFhXMHmq4h0ZbYJD7AsLIcZw5k7gGaz/A05Acjc09uotQHMCUjeAdPrUabrz2ms2pcuXnjM0YhBsu8h7y6gBMYBgOadNwhOyTCTggw1xe+bOnc9uVuQ2shNWuY3z2gk0Q/1/oFcBqSXTJppSWW7ZZ11vAURf9+sEpG4AyZ4XsnPndmpvTLEqbd/m2ivxkIY6sXCuzwmIvf0/YA8gIQ6aNb/92or4Puc+7KFlfd3GCUi9AEgDIWJsb/9Ynf07AWGo/w/YA0hGEWK15Y6IGNvXYNEX4w0oQNq+YwchnO6pk6fo4sWL9OILL3BoiDNnznB5X2yIdoySvSV0oPWATQmBA7X/gLbc4581OTmJMjMzzBL2Z6gTAuf6nGA3EP4HehOQ1q/fYBNNSUlONuSo4CIoNTmFyvaVKSk5McmwvpbGWboHTUboHtAdkWKiownewC21s/fZgAAkRHCFx4R333nHoo0+QvGePHGCw+nau2Bb29ln1PAK7S+Ptyq5b91sBl5OQHIS5IFAkH/sc7AHkPx9t1v1u68qTbBI66z1ZXfuscfo66++UnmfEZ5o/vrXv9DRI0dtBg+ENN9TWEgXnnrKMKI3aDEixGZnZZG7A6VM/QpI7tu2UUGB7U4H3337bcrNyekVhNYCln2AdL3fjRp+7MTEuX4nqPf0f8AeQOqrEOagUwgwCvC5/eqr7CItMmI3iVS8Zw+Dyf/+77+otLTUaloZHh5OiCOnBURL94+dPUtgKrS00577fgWkluYWmxau3ZSG+nqLmwDA27Ztm6oOwk3ExMRQSXExpaWmdht91glITsLWU8LmbD84/4cGMiCJiLGPPfqoir7JIAD694ff/56+/fYbqyK6JiUmGnJEWtqrvUe0b4CZPL491/0GSB3tHfQfv/iFGSC98/bbVFNVTf7+/hzxENFeEYhKL6Qu2u8pKDDchDOnT9MzTz+tPEfE2U8+/pjw1SDYWsQSgWzUaPOcgDQ4iYkTBJzvraf/AwMZkBC4EbQrJSVFRbsAQjIty8/JZVqHEBVyufYaAf5+8fOfm9FjAM/rd+5w9G54izh98iR98N57uvUgxgsICLA4jnZc7X2/ABLChQNRtShbt7+KdkeEUEiwv1mK2h1KdbVV9OEHH5i1CwsL092El6+9RHdeu608e/HFFzjcRF1tLe3evZuSkpK4r0//+EeC8k67Obi3B5A+/OB9uvHyJXr+6ZPU1WHsxw5nkXrrHBJ+jIi46uXtq6SU1DQ2iICnhq3u2zlyacRudaTWsPDdXO7p5cORXOUfdU5uHkcxbWpqJh9ffDD4UkBgCNVU67sfQpRXREfVhjxHFFY8k/vu6uqiyOhYro8zUZg7yhCdVl4DQoWfOHGCEhKTOXIsoqd2dHSq+kK/iLoqt9vlH6j47vMPCOZxPDy9qa3NFKUVodRF/fCIKF4nouDW1Zvi/mDM8AhEST3MYx07doyCgsN4jxAWHG19/fwJeyTW1dnZSf4BQTyWt48fIeSHeIaIpgjpvs5lvWovcnLzlTFFXeSiX/iUQwTbtetcKCAwWImQW1NTS1tc3QiRZTOzc3gc+T1hbvv2lSvjy307r/XBuzcA6ciBTLr07Cl65dplMzqmpYfyvdZ1kAAk0DBBt84/8QRdvnhRuUd5eem+bgEJYKX3wQ+9Puik1oABOiaEL0ekWnmOuEZIHzEfe/I+BySIzG5cf0W1kA8/eI8aajJof3mMxVS1L4rKStPprTffVLV/7plndFlSLSD95jf/QxcvPq/asJDgEH5hWRmZqnKxmfYAkvyS2I3QkVJDnVJvApKfnz9NmTqdw2DjHzgmNo7qGxpo2IPDaceOnRx+YM6cebTOZQMTKsTGmT9/IRNIgMIDwx6iltZWhYjBkwMI/Y6dnjRr9hzu18PDkx586GEKDgnjeg0NjZy7bd3GdTAmPD7MmTufI4yC+MXGxbEH6fDwSKXv7dt3csC4uPgE2rnTkyOSInx6WHiEMv9ly1dwGATUGTN2Au2OjCKX9Rtp9uy5Sj+CuFZUVtKwBx9S2gYGBXH476nTZtKKFat4LzZt2kKTpyBIXRc7Fd3s6sr1EYYd/cPZqKvbVu4bYd6xH1gPxthXVkYPPjScAEYTJ0/hdggfjjq7I6Pp8OHDNHXadA7jgPkiXDruUV5ZWUX3PzCMEN48MiqGpk2fSRs2bmYHpvMXLKRly1ao1hMbl8D7hXHd3LYT3lNMbDzvK65R/vAjIwhhzBEmHtFgEeocAD9+4iSem3hP2o8DsV/O3ByUHA1Ih1rz6N131LRLphWWrrWAJER2j549o9CtN19/nd556y3l3m/XLg5Q+t//9Z9KmaBrcg4dkDw2mIVTXU0WaTFodXVZDHUdbTXjrA52dlocTx5be93ngAT9jcwafvThh/TMk6302Ikiqq2INdyEytJISor3oriYHZSbm6vqA5sJU0Tt4rSA9PHHv6HTp0+b1fvTp59ScVGxWTn66ykgYW4vXb1IJw7qc0q9DUirVq9TETd8qS9YaCJiIELNLS20YqUpQN999w+jAwcOcH18iW/duo327t2rtBeA5L5tByFyqCBiFRVVTIjRFsCDe1fXrVRdXcN1wO08NPxhOnjoEN/PnbeQdu0KZGAEtwTO4YFhDyrcCvoFYRXEX4yzdNkK5pjAIZSUlHJfcA6LsAmijsgBSI+MGKkqB6hgDftra7kcHJjfrgDCHMaOn0BFd9d6+MgRBln3bR4M6OgzPS2DAGaLFi/jtr6+/uxiKSAoRBVjKjU1g6ZNn0VR0bE0a5YaKGfPmUfgQNeu20AbNm5R5tbQ2MjgiRDzcPUEsKqorFKeA/zhcxDzAJcrAuoV7ilir+wod3ffodSHNw5wvgCkhYuXKuXgyvAxIrg+sVfO3ByMsCeOBKSuzhx65y37wAg0RAtIoE0d7e0ctvylF16gwwcP0m8/+UQBpMjISFZPQKyXbMFkPCoyUgVGGOv6i4/RkbYsQ1oMMAJzkJHqR3ExOwmgiHZy8vPz06WnWhqtve9zQDrY0aGa+NUrl+jm1XpOJlAy55JqyqIpKcEERgAkLOLco4+q+qmvqzPbAADSG6+/Th6engTODJFh337rLRU3FR8bxxxSSpK+nb8jAAkvqqWubwP04QcFDmn5itXM1YCzQeA9BF/z8fNXiJQgRvtrapmQinu93AiQUBdcQl5BoVm/J06e4Ng6s+5yMbX7a5n7QRwm9AfiWFlZzdyR3piirOjfgQNHjxln1v8u/wAm4qKeyAFI4NwAEEhof/z4ce5j5KixFBYO8dsh5o7QBoBUWFTE9wBIcFcABRBwiN6WLltFRUXFNGLkKOZkZs4yOaQFIC1ZupwQafXI0SPkvn0n7znEaTs9PFXzxf3mLa68z4WFe1TPxN4CkJatWM1iPsyrdn8dTZk6g8aOm6DUb21t5TUB+MCJijUjr29o5I8DXGsBCWUIW56RmaVqI7d3Xt8DJ0cC0mMnK1T0Sibe1lzrARLo4JHDh+m7775lfRLA59m7OvPKykqCTsfT09OMLsogAMMwefxnn3mGafGNK3XU1pRmCErpKb7MHMRG76Bt27expZ/cT0Z6usVx5TnI130OSFodUEFejgJIAKbDbenU3pyiSk21Cbx4gJEApKysLNVGPv/cc2YbcOnSRf6C+O7bb+mrr76kr7/6ksFHGDrkZufQ999/Rz//6COztmKTHAVIbQ25umK73uaQHn5kJM2YOYdTXHyiISDl5OT3CiCFh0fQhImTmWCD2O3Y6cEip8LCYubUPDx9GJCmTp9hkUiCuwgKDlHVgdhq1OixzDEgvhNi+SDNm7+QAEjgura4uXOCaA3jHz12jPLy8mnFyjXMiSASquCQwFGNGj2GubkNm1wZeAA24eFRhLAd7R3tLNJMSk5lsAMXCUACRzP8kRH00PBHGPAAtt0BUmOTSbQpAEAGpNS0dAZtgDnWDQCRAQliUawLHNuqVWuUPQGHhf0Ad4Z+9QBp+oyZhP7FuM78HgBp98KRgNSbIcxhrAVxMZJs1CBfC3qmza9euaqio9nZ2Qo9Bih1tKRSW1OKWRK0WABSS3Ozqh+cj9KOZc19nwISQoXLKApxXUCAn7IBtgBSYGCgqi98DWgX7OXlRenp6ZSTk0Ol+/bRgdZWZm2x6ahbVVFJz1y4QCGhoWZtRV+OAKR33n6Tujqy+gWQtCI7fFG7SeIdEOPIqFgmytB/QIwlfphQpOvpkLQiO9QH8IGjQBgLcB4oi4yMZjBqam5W+oROa/GS5bRy9VpOIPT79pVxezEu8uK9JVRQWMTtIAKEWK7z4D3jBYirQHxrakxiwbr6Bioq3suprLycAUkrsgOA7CkqVuZyoO0Ac0IQgYFDSkhKpuqaGl4zwADzgJNahOwYO24868Bg7AGQmD59Jj8HIEGMd+BAG8Hggjmqg53sJX35ilXKWOgLuilfv100a/Z82h0Zozxr7+ggiEsh0gSHBE7T3z+Q1rls5H3h+d3lkCB2E/vU0dnJYIh7gNGMmbMI8xPP9QDpkRGjaF+Z07hB7JGl3JGA1NWZp6JXMh205lqPQwoMCDA0xgLtg7UywErQMm0OYwXt2KDRQmKFvLM1VcUcCGZBC0gR4eGqvqCH0o5nzX2fApKvr69q0tdffpn8/NQbYC2HBPTXbqY1C7a1jiMA6eyJBl0w6m0rO4jstIBUUFDIRDgvv4BA3Lx9fGn6jFlMxEaPGUuwRkN5dk4ui9RA3MWPVnzFA5BWrlrDOhf0A73RsuUruZ6Xlw/BugtED2ATGrab6+0tLaWKikoGFoCg6BNf/nn5Ju4MYNnQ2MSgMWnyFMrMzGYRGjiBqOh7BLy+voG5GOhxoPcp3Vem9Cf6BYcEvRWeI+0tKSUhJoSRAAAMewEQBoDKOiTRB3IAI9bttnU7j4F14R5Wingu65AAHBArgkOprasjEP/4+AReU1JSMnM95RWVlJiUzEADESAMN/AOxowdxx8FApAaGxtZPBh5d93YJ4hcsacwksA+gVMToLt46XJasGiJst6jR48yhwTRItYPAF+ybAWDKYw45DU6r/W5JEcCEn7r58600s8/+tCMbmnpmN69FpCghoAnBkicYmNjzYh/UVERS4PgxSFaR78OOqj9qMe4KLcHkNBOO2+Aoq30tl8B6dbNW3YD0k4PD7MNMFo8zjQhieeenl6UmZVFObm5BOWfKNfL7QWkN9+4Q7dvXqOjnfsMwai3ASk9PYOtsbQEJzAolCZOmsJEeP6CRVRzN2psaek+tlgDcZ4ydRqFhEaoCBcs2vAlnpmVQxD9IM2YOZuJ9aG7BgtiLIjT8MUu6kGHBHNrGCuIOsgDAoIJxHp/bR3NnTeP5wTLN/8Ak4gN482bN5/FZaJdbm4+jyv3rR0f1oTiuWmes6iqqoYyMrNpxoxZd8eZxqI1cEMwowaQijHk3MVlI7W2mow9UL55sxsHOcR1cXEJhdy1MMQ9TOAFl5Kbm6eMhTlkZJh0N+DUdnp4E0AXe71o0RL+CEB7T09vqqwyGTQA4FAX5W5uJl1ReXkFWy+iHaz2UlJN4rfFS5aq1ot3h48F8Q6Qb9y0RTEsQZ/OZHkPHA1IJw9l06mu/fTares2GzhoAQniOaghvvzyCwYm2fxb0LGw0FB+9vMPP9Slcb0NSOC2xFyszXUBKTwklBJi4+j//u//RIBYs9zaAeR6nl5eZiASHBygQmRrOSTYx8uIfPPGDbPFg4u6cP4p/lLAQVjomYDasEb55z9/4DNJOCTb0tJi1lbM2x5AGggRY53ExjKxce6Pc3+6+x9wNCDhA1SknkaMFYAEVcStmzfph3/8g7J1jq7kZGYx/dM7GIuzlzINxTWMIOzhkPDBL/cFpwWChtqS6wLS7OkzaPH8BfTXv/7VDIhEgS2DyHVfuX5dNfGmxjplA165XEtHOzLoYGuaKh1oTKaE2J2KYQP6q66qUvVz6sQJsw3A4UUA0TMXnqLqikp2Qvg///Xf9OmnfyR4gMAmXrp4kS1UYIUnz1NcOwHJSbi6I1zO50Pzf2SwABKA5dSJk+yB5mCH+gxQYX6BISCBxmnpcWJCgkKPbdEhFRcXq+jxlcuXdempoKtGuS4gCdCxlBt12F15RVm5auKv3rrJGwAwerSrQPmCEF8SIj/Ukq6AEpRxt27cUPWzt9j8HNGbb7xBN2/eVDYmPS2NX05LU7NS5u3tzZxSTra+s1YnIA1NYuMEEed77e5/YLAAEmguvCfA0u2HH/5BN2/eoMz0DHaJ9sUXf2W9lRFdPnb0qIqOdh07dpce19HjJ/YY0uP66niV2Tc8RMgc0j4bHLrKc+tzQIKvI1jXyZO//PxjdOZovuHiBSjB7UZSvCcdOnhQ1R79yToisUC4w8AGi3vk4Ji0h2D/9OkfzcpEm7KyMjp48KBNqbnJ2IhBrEXkvWn2DaU9DAPwwyvcs4cW/fuQJEywcRC2pHSfSocAJfjmLW40YeIUWrZ8FSvz0a6jo4PgYicpKYXr19bVs6HExElTuT4U7aiXmppGc+YuoMlTphG8LgjDBXgtgGIdZ2lwZghndbSEoKBgD5/lwSFOJByAhcVZdnYOl4+fMInnXFVdRTi0Cl2WqAtDiMqqaoIxBQ6+om/k27bdOyhas38/BQWH8jki0Q4WcLACFHOBThFeD7D+1WvWUVNTEz+DqyBY2sHwY9LkaeTl7UPt7e1sbLFt+05FlyT6wZklzAXrz88v4HYzZs7lvceBXKzfw8OL+8Ie4pAv2kIXJOYGAwWYy4u9FX07874F0d4EpM7mdILO1tqkNUzAhzT0RxDZCVqFHGEjcNBf+OqENEjbVq6PQ7MyLcb15Wc66YmTxmAkaFdTTSLB7Lu0pMSsD3u9f/c5IGEzzp4+rVoA5I3nHztITftTqa4q0TA11iTTubNHVG2xgbU1NaqXIjYcfpU++vAD1huJstdeu00R4RFKffhkwstDECpRp6f5QIkYK6zsQEDZ4i00nM/hwH0MLNBgNgyiiXzpspUEIg2CHxAQpHgAAIAhLVmyjM8SwdQa3g06Ow8yAYcJd319PZ/BgRK99UArgdDCNxwOo8IKDEYTbW1tBCs++IfTElac2VmxchWVlpZxqqqsZiDEwVaYkR8/cYJ9xeF8EcyrMff8/EKuu9l1K4MgLPH8/YO4b1ixwRIOdTAWrALhumfDpi20YaMrt0tLz6Rx4yew6x7MGe52UlLSeP2woMPYAJeAwCBeP0zPYdgAI44tW9x4fhgDXhGE4QGMI7AfKIcHDACx8Nm3Zq0LWyZmZGLciQw22Be4/IGPOZwrwqFazBeGF1OnTucDtli7dr+c930DTPYAkrWBOB0RMRZeZ/R0Q6BfOdnZtKegsFuaBj37DY0a5a0336DTR0uprSG923Sko4LPccqgBs8R9tLQfgEkTBYxPORF4PqFq1cNvcXCZByewLVtcA+LO70NyM7KZrD58osv2HebmwbVxQAAIABJREFUtk5kRAR99eWX9IufGx+M1bax5n6gARJMk0EoBSED4fT09GVXPeA2YBmGg7E4+Ik6+8rLaeToMXyNL3o4FQUgwasCuxe66yQU544AODs9ffhMkegfnhHgEQAHMOGnDeUYc/qMGZSckqrMQ9QHIMGDgbhHbiLWatc/4NYASDiEChBFPcwPABATE694e4BbI3ioEGtesHARrwGAhLmKcQDYcOGzarULbd9xz6sCDs8OH/4IweQdQCcfJIXnBIA75vKz+x7g/RBWcbDsw1wEIIlxkMPCEKbxcOYKwBXPsE847yUDEp5h7AcefEhZp6jvzPsGjLDPAx2QrKFF1tQJj4gwc8UGZwHJkuNWvX6qKivN6DGkUnp1rS3rN0AKDQk1E90BXLARr966RS+9+CKdPXOGrr30EoMXyrVgBB2R0ReC2IDkpGRW+Gk91uJ53f5aev+9dwmON0V9bY4QFnC/bku6cukSbd/malVau2Ztr0WMFRwSfKfZ4lQTor0dO70UoikACYQXxFYQRXAMcLFTtAec0CgGCxysnb9gMdcD57B+/Sb2njBlyjT2FgEzbtFe5AAkuOSB1wSk9Rs2sUhs5aq1fF5n3vwFzGlAhKUFpF27AggiPYjWcKYI3CDEg+IcEsbDodra2lrmkNZv2MKm2uCQcPYH5ukALvwQxHyQA2iLiovZQ0JZeYXqGfYAgITxNm3ZyhwY2uAM18bNbsxdgUNCGcy7AcSmQ7xqr+gwD4fZPfZJC0gQOwL8hRhSnpvzum9AyR5AcnFZZ9Xv3s/HwyaaUlVRYUijtDQL97v8dhGcSYeGhFjVrrJcrdsXtPa127fp1KlTzHHB711hQQE9fu4cu2QTdeTcUigfvXlqy/oNkDCRxMREw4XJi9S7hqmjIwJCaTdEez+YjRoEIG3avJX92llDyCDawqFXua4RIMEDA0RbEPPBAzhACV/8Pj5+DEgJCUnsnDQ3L58PZsLjAcJJQEc1ctQYTgsXLeWzQEuWLmNOAdwCPC5g/GNdXVReUUGJSUmsi5k5czYDEhyNjp8AUSL0XStZDo/DnqNHj+WwFND3gMuBK5/UtAyaPGU69wcOCW2WLl/JIAWdGcYBIKVoODerAOnBh9gZLUSa8Mc3Zux4FsVhTwQg4UgBDuVucd2qOGbFmDicC9GmqKcFJOwtXBLBm4T8LpzXfQNG2Gd7AKkvI8ZqaZV8jw/wO6+9Rgit4+PraxUo1e7fb/bRr0d7jcr0DMvkOVlz3a+AhAnu8venpy9c0A3WZ7RwxHLvjjMSi0e898SERIqIMOmN4G381MmTnI4dOaJ7ylm0RT4UAGl3VAzNmbeAuQ780PBFvmmzK+t1tm/3IOHaB8YLixYtNVOmC0CCV2oQSUFEi4v3MmcD4i8bK+zeHU0LFi5lB6EIcyGIKOIMAQzEvcj1RHZwcCqLytA/wj3gcKssshN9IIdXCoDe9u0mg4a16zayHsfb25fHlEV24RG7uS7abdzkyuEfRF/gtjAWwHDmrDmqw8VQQo8cNdrEId0VqSFEBfwFCiAXgARvF6JPGDkI7hLlAG+4KRLPtYAEgw7MQbhhEvUs5ZgvxK2OTMI4RW/clpZW/l+Q4zzp1dMrO3LkCLfF/xK4WrkOykSSyyHudOTa0Bc8ZchjyNcDHZBAy/Ly8gwTpALQjx/XGHbJ9E17XVFebqgaMaLH4KLy8/OtAj3teNr7fgckMSFwO889+xwhpoccngKbAHEdvHY/9+yzfH5ItOkux9miF65cYQerT5w7xxsG9hNecX/720/o888/Y9t9RKQ16muwA9LqNev5B4ev9x07PKm8opzWumxkRT2IDb7e8SPMyTa5CgI4wDIOjljFjxNczdKly9lyDAQaorTSfaVMrN23mQAHLnPgygdGCyC8+0rL2IUOymHtV1ZexqK16LuOP0XfyDHm3Lnw7xbNKT4+kfbvr2XjBXa+WlVJrq7u3F4rspP7KSws4jANaekZPPfqqhqeS8Fdz9obN7uSh5cJnNAOnA3CQcCKEnohcJSwqoSBB8R5EBFGR8cwN5WTk0fFe/eyZwVvbx/W7QgdT3NzMxs7wKUR+gUggVhDTAfOEaLOJUtXsHgOdbA/KBfrbWtvI9etiHO0jMsg5oNj2OAQkwWevEajawRMRL+OThCfGo2JdWK87hzj6rWPS0hS5ip0faKevAZRBitQMZ783BHXWotTMeZABiTozSGSE9Z0RjkO/kNfb0Tf9Mphwdd1rIveeuMNQ0YBhmigye3tHWxyrtePPWUDBpC0k4+LjSWk3Xc5G+1za+7FwdiyfWXKCwEgvffePcUbRH8wejDqbzADEtzxwFIMPzC41tni6k5z5i4kxPnR82cGYg2lPxKU8OKHiS/TkpJ7ZuIgmOgn8a4pOOpBz7Ji5VpavGQF1deZCDPKAXiLFi+nufMW0d7iEqVP0TdyxFES4yL3veuZG1/JsIrDWBhTcGFh4ZGKZZvcD66FZR2uYUiRlWWKnsrjtB1gzka0gRGCMDCAmx44M8VYfv5Bqv7Lysp5XXiWl3cvxEZKSrqqnuhXjIm9B9CgHSLrgqiiDjyPy+uFoQR814kyuP3RukISfRvlMM5wBHHW9rFo8b3YWdqxBUD0BSDhGIB2bo66hyss7dpwP5AByYheOboc7oWqK6vo/JPnlVRRVkYwMnP0WOhvwAKSIxaLyLKQo8p9aQEJoj98XeTl5KrqiTb2ABK4OnxBvP7aLTp5tN7i+arePIek9yNzlvWdDqIv97o/AEmcLwPHbOtaYdoO4xOkzVvuBXtEP6Icueh3KAASfNk9de4Qvfn6bZt1NVpfdoI+DbV8SAMSTBCvXr2qAhr4wCsvu8cx4YX+84cfDA/G2gtIsrz13Jk2Q1ByAtLQBAhBSPsqlwEJzmnhDdyehAB/EFcK7kPmkGCKDxGsSBB54hpexuV1bt7syuXjxk+iZctXK/U3bXZTrpevWKNcQ9cnt9e71gISzorZsz60ER7bxRr7gkMCGD1zvstMHSHTCUvXTkCy5DeISEXkBypKQ8YJLsnS/FKSk5lDMrK5dwQgvfvO23Ssve/jIeGHDdEcQh5AgSvO7kCU1XjXE4H2xw+LOZQJQwdEmoURBMRqQtEscjl20uHDJnNuiJrEc5hGa/vX3uMsE+Ymi6ig28Kc8Uyuj7WIEOsoh+4HbcU5IJTJynLocTB30QdEaGJuWkU6xkNC5FdRX+RiL5T7piYet7HR5M0BbUS/Ihd1+yqXAQmm8z0ZF0EOBbGWAQmWhKIcuZHIDpaaeA6zeIgrRRvEwBLXOFAsrrU6JL25awEJeke9etaUmc6Q3dO39QUgnThUaDNXJAOUE5CGACAh1DPEcXA4CJmnHEERISh2R0bSxx//hn7/u98ZgpYjAAn/WK319zz9CtcbyHuTQ0I4BZhXI7gczurgGjF4cDYH54dkKy/8kF3dthG+bmE1BbNnlC1bvoLCw3dzH7AuAxGBhRgOzsKLgiAAcI+Dayjy8QwJBAuhGmC+LeqJHKADRT++xidOmsznfRCAD6ADwwl4M4BnB8QHYkBsO0DLlq1UIqcCXDEWwmSgD7gtwjg4YAvrNIxvMkOfRrAOxLiYz8SJk9kLBa6DQ8I4vDtMyMdPmMhjIvieDGLwSgHzcRGoEMYe8K4Aog2Cu6eoiK360K9IMEuHSxex1r7ILQES4kBh/kZJe9bJCJBgaCLWiNzEIY1ljx0ADJE2bdrC7w7vcPVqF6UN3DyJ9mvWrleuMffu9sgSIOF9Ga1NlMvWiv0BSE+fa3ACkru7IZ0VTMOQFtkBgODNFpYmCFX+zTdf09dfmxLi0CMEBQArIT7BcKMcBUhtDRm6YrveBCTEv8EhVxB/EGscIsXXszhEKuL2CGIAEIJZNr7yQbBRji9kADdMuwFUcNsDqyRwBeC0RFv4ecM1AAvPkOCSB+eSYH0n6okcB1dRF8QSIAT/etu2e1BQcBifG8KcYUyB8SrKKzkGEMy6ATLoA2erYLoOYgQCA3N0ENbVa9ZyFE2MD+CFOyR8jaMN1oSx0DfETwAOcFcAHHBWKIcICi6PUH/PHtPB2GUrVhFCrqMMh2xxTgr9wLMFAvFhDrhHghUg+hUGGGjTF8kIkODyCAANi0CjhI8TnBUT8zQCJLxvsU7keBdoiw8IvCeRFi5cwuUAbnCxoo28T6IM+fHj97hYMQdtbgmQ3N23G65NrBkfL4KL7w9AOttV6gSkHzsgAXXhmj0tLY3Onj5DTz91QUmIkwSbe1iRCHTWyx0BSJeeP68LRr3NIUEpjLNC4scNUAEBFYAEU3D4pMNzf/9gWrBwiSEgoQ6IAgNEZaXSp+hbBiRRhhzRTQGCELVt2LCZiT7KQYgwF1F31ux57I1h1OhxlJxscuSKZ4jUCrc+GBuRbAUgwT0RCCHKcTYIZtIIBQ5A2ukhuwE6yoAD3YgAWTEmgAhOVAWHACs49F9TYzqbgi98OD2FqAmABJ9z2FMECIR/vOSUNBU3hTXBuWx0VKyyLjFWb+dGgARxlBCNWcrxnsQcjQBJPBc59hN9wspO7htcLe7BQeJ/TdTvSW4JkPDRJI9vdI2PBcyhPwDpeGc2vWWHMYMQ2zlFdkNAZKcHMLaW9RSQrlx8mo4fNPZk3psckgAJLSEQgAQOKjAoxHSmZtiDlJSU6nBAwhkgREuFWXVMTKyKgIt5wWv2nDnzmFiAmMBlj3gWH59EACvcy4DU3NxyVww5loEG4j8AghaQ0A6iSnBEAC0c8oX37uUrVioHY8VYcIAqzt1sdd/BTlTxTABSVHQcizLXrnWhsLBwFhnKEXAF1yd0daLfvsj7A5DgAQOGC9h75CKBk8U1/v/ApTpi/YMdkPDxeaQtm25cf8EuTskJSE5AYs7JHkD64P336NUbF+loRzkdP5htyB31NocEgiAU74IogFgKQELYBjg/ReiFadNn0Z49ex0OSEnJKRxGW4yvzRMSElmsJ0KEw+t2ds69cyH+AUG07t/+8NBOABJER/gKB5eCcogSoUeCfkwPkB5+ZCThQCpEaXiOBN2QGBN94IDvgoWL+awQOC2AV25+AevZFi1eRgkJycwRgYPC+Ta0gVsgACiukVavcSEPj3vOW0V5X+R9AUi1tXUMMvi/Qpo+YzbncGQrr9HdfQeXT502i91KiWf4OBFtIyKilDYwpEFdPFu1xkWpg3vRdigAEn7vSMcOVtCrNy7bBExOQHICkt2ANFBCmON8CExtha4nLSOTfcsJQMKPHfoRiK4aGhrZ6aiRDgl1QRRsEdlBkYwYQ/AZhzlAZCgIDPKamhr2kIADqqIcTl1XrFzDnBR0OiNHjaWsbJMLHgFI8KAAABLABd0EPFIkJqaoAAntYbgwdtwE7l8rssOYmJeogxAZKMM6YSwB0RUSdDDoo+7f4k7okIQlYn1DPetK0AamxEKcKNbSl3lfAJI9VnayyC4r2+TFAyAOrxhif8T/I8pnzp6jEr+JOkMJkABKPQ1hbqukZ7DUH9JGDY54CfZwSAMFkCrueufGlyYOMULxn52dq3BI+LFDhwIvArguLi7pMYcEogzjCCQQ8ilTp7MorbKiig0GhHk3TKnBsYATEfXhjaHr+HG20Jo2bSZ/KY8aNUax0hOAhLlGx8RzW3AlWBv6Aae0fsNGpU9wWyBywj2SHiAJ/3yYq5gHdEOCECIXIjtcIwwHDB/mL1jC46SmpHNdWCfCSlFu15fXTkC6Z8aNd66X+lOHJLgjkTsBSd/izglI3Vh+DGZAAkEEwQUnga9TRCxFGTgKYQotE02cKxLepatrTKESUA/6H1GvqrqaAUbci1wYKKAdrNCQyisrFfEWxkSMH1EfnAnuRV3kdXc5JYBVTm4uuxHBOSjRBjmiv4p7WMhhXfgnxpkjlAOURJ/wPSfrczB30VbksPAq3VemtEFbWP6J58hhPg9uC9f4mi8oLORxcW5JcJ9sLHLokKqd3EdvX/cFIEFHB6KupDbTNUScEKGKBPNwrtPWxpaTojw9I0tpK+uWwHHCQzs+XvCBgVwksW9ODqnWovGVIz6+B0IfTkDqBpDseUnbt2+jguxwq5Lrlo29Fg9J/Jided+YXvfnPvcFIFlan8yRwBuCqItDr+IZHKqKcjkfSiI7L4+tVv3uM1Oti1PUHf3Jzc2l26/eos8++zMfYRFOVj/9wx/oxRdeoLi4+EEFZAMSkHB+CB5nRZIPtHb3ggbC84ESMVb+0TuvhzYoGQHSnqJiFo0KUNDLITrNyr5nSGKt2bf8P2US1UJcO4o5SvEM0XjFM60oVNQBtwRzf9RDfCxRH7moY4lD2uLqpoCe3vpQBt2n4JZ70+y7L0OYI0w53J794fe/pytXrlDXsWNKQoBTgNQPP/yDEhKMz1kOBHopz2HAABICSoWHhdGxo0fNrE8+/OADOnL4MPn7+5Ne5Fd5QY6+jo6KIrgXsiXFx8WZcT3W/qOi3qpVqyk5OYkyMzPMEiIyih+pMx/aIGPL+zUCJPSBw7HwUm6UYKwgj2UESNDhwQRfJLmNKEMODynyM3ENc35Rb+MmN+Uah5zhDR7PsA5RX84tARLqIWqx0fpQLltUDgRAWr9+A8FyztqUlJio4nR27tzJ4XP+89e/5rOWenQPjqMBSB99+IGqrV5dvTKE70G0BXj3hupCpH0lJRwGCGc89dr1pGxAABKIPfzOaeMgiUNhIhcxOFJTUhy+EUabaJ8O6RVqb0yxKiHUuRasHAVIspxe/nE78hq6oY4OU4gL9HugdeBGOIW+SJ6rI/ehN/uy5j1aAiRb52YESForO7lfmTORRXZyHdnKTvZlB393OESLPmBlJ7cR190BkqhnTd6bgBQcsNOq331TTYrZh7egc3q51uw7ICCAvc9kZWVZpIXVFZUsyvPz87NYT6Z/3j4+dOb0GXrvnXcM4yGBVr/91lvs4cSRwNSvgOTl5UVnTp+26cXgZWEzTp44YfUGy5tt67V9gHTd4tkjYWmDvDcPxgYEBFGQTpA3fJEK1zaRUdFmETut+VGLOjhwunjpKiYi8G23ao3toQhEX/bkScmpVFV9L/KqpT7q6uuZ8ME7hZizpfryM1/fQEpPz9QllnDauss/UPeZ3Ic912tdNinm7Zbay4CEg8iW6nb3bKgDEoxWZADtC+eq8m8e1z21sgsIDORAo3FxcQodrKutpdaWFuUetC43O5sBydoI25WVlTZHjAUzAcmNrbRVr36/ARLA6PKlS4ZgBNC5eeMGQVyn98WAsuefe84hm2DpZQ1mQPL28SNP710UvjuSgoJD2UcdPGj/5Kc/o5DQcMLB2AkTp5CX9y7+0olPSKSCwiIOKw+LKBAu+CILC48ghPzGWRstMdu4aStlZpr0Dxs2bib/gBClXuGeIuV6b8k+trCC+x30AUus3LwCvoa1GuYiCAOs7MQzACee81wOHaSo6BgKDgmlvIJCtoaDyff6fwenQ5vI6BjFLxoCBsI/HdrFxiVQYFAwxcUn0f/7yU+5LC/fFGgPVoRBwSHcp/CAnpCYzGef/AMClDnhUCh866E/zHOXvz8l3XUdFBq2m0aPGU9pdwErOydPtYeYGw7m7o6KZmvAmNh4CggKIuwJ+kOCtR4AvbComPwDAykpJZXLEaYBB5dFPaNcBiSY98+dv9CuhFD3aC8ItuztG2tAiHuR5LmIMuTCFROew5PFhg2bOMHlEsR+SNAniTY7dnpTXX0Dl2OvRH3kYgwthzRi5Ci71od9wWFwsT7k4v9OjCXygRygz9fPj31z7q+pUWggom2/89Zbyj04F0Q7+Obrr62K6tp24IAhrTWiwXJ5dVWVMrYe2FhT1m+AdO7Rx8wW/+477zDnA72NPHncP/H447rg9Phjj6m8eMvt3N3dqaa6mj7/82f8lQD/dYFBQaq+A/z96dtvviHkcltxPdgBadhDw2mnhw/NnjOfHZjikCmI8voNmwlEecSosbTy34pnAM+48RNoxqy55O3rzwdA8/MK2S3M8pVr+IDtxMlTOaw3orgKp6jDHnxY8VcGr9mpaWn0yMhRTGDxpQ4XPRDrPfTwSFacjxw9jokMostiHjAlXrVqDblt3Uk4NwRisG2HJz340CNsah0aGkGeXn5cDu8KM2bN4eixOKCK+WPMeQsWU3l5BWGtghjixH9OTj65ue9gF0Oe3n58fkgAEgAEa7j/gQdpzboN7A0CfQEAUQd+8nx8A1jBnpKaQRs3u1FsbAITUnghDwgMpdFjx1FmZjYhfPjwR0ZS+O4ojpyLuWEP4QsvJCSCtu3womEPDif37Z6008OLps+cwz76UA+EGGvGuDhLNWnKNF7v8EdGUHZ2HtkDSDKx7em1DEj2iOyMrOxsDWGuBaSerktuPxgBCfQJ0a7/9v33tLe4mOLj41lXJADJy9ubQBvhWLq2Zr8ubRM0julkVZUZPQbYgCnAhx04LcSSy8vNpXPnztHrd+7o1s/rIafUL4CUkZ6uWoxJN3SHSorSaE9+gmEqLUqlt954XdUWm5aoUfiJjYZrF7yQv/zlc7p+7RqzuH/72/cUuXu38oIiI3YzWCEX7eTcHkDCnOA+qL25jE4c1A87IVj43hTZgUNy2WBSEoMzgdcDnBn5yU/vY0/cIITzFiyivXtLmSgCkErvckFZWdk0Y+Y8mjt3PhNQnEUSZ3Ey7nJE4GoQkgKHWSE2mzN3PiFs+v33D+PQ6RMmTafxE6ex1RW+uhGDaMy4CQRuY/jDI+inP7uP4zIBCPD1/fCIMQxQ06bPoCnTZjCgTJ4ygxCWAnN1ddtK4ydO4pAR8NaAsnUuGygmLpG9i2sBKSsrl0FWcEMItyEDUnZOLk2aPEXxrzd95mxKy8iin933AIlwBaFhEbRy1SoFkJYuXcb+8DCniopKmjZ9NhsNTJsxi+eDPcvOzuE5gzObPnMmA1J4eCQ/h7NY7FlbexuDO9aAJABJ7L/gbq0FpM1btqq++mWC25PrZcuX8/wwR7zv++4fpiQxd+RyueyuasnSlcqz+MRkpS9cizaoY9SXKMf7wMdDT9Zi1Bb/B2IcOXc0h4QgfacO59GRzlp67523zeiYzG1or7U6JEGjfv7zj5SoBaB1b9y5w3Ts6JEjzEE11NUbfrCLPgA0Wv39Rx9+SLnZmbRjxzbDVF9bY9YOQVF7olPqc0Dy9PIicELyhr9x5zbVVibQ/vIYi2lfUTglxXvTC1evqtpjE2ARIjZY5EDx26++qrwQfDUgHMXf//Y3ysrI5Pq9BUhiffjHO9JWaKhT6m1A8vM3BTKzFZAqqyoZkABEIKYTJk3lL36EdRA/WnjlXr/Rle/hkXuXfwAT94dHjKbg4Aj2Fwcxnq9fIE2ZNou5JviRc9ngSvPmL6Cdnr6UnJxKU6ebAsp5+/izyG/chCkUGRVLa9etZ28PYkwo9+HgdPrMuWzGC4CxBpCKS0yAi8OrWkAC+In14Gs+KTlNBUgQr8mANHv2XFq/YQtzS+CYEKoDVmwyIMEtDp4hgXMDhyQACcATF5dI4ydOZZdNOJSL8QUgCX2YrYCEvYFzXDijdVTCu8G8xP6AmwUHKpIoRy7KkIMjFs+2bffkIH0wXMjJvWchin5Fm45OdSBH1BVJ9IMcHK2j1ib6gecSrEseR1w7GpA6mnLovXfeUtEuQSe6y40Aafv27Sz1CY+AWD2cQF9B/1AurgU91Mu3bdtGd157TTWnd95+mxpr0i3SYtDqir2RVJAXQwAvef7g3MB16Y3XXVmfAxIs6sARiQW8+/bbdPXZBrp4voLqq+IMN6F0TxjFx+ykuJgdFBERYbYJqampZhsAoDp58qSqHOaSF556is0hG+rrKDoyslc4JLE+5K+8fGXAABJc9/y/n/yMPRPghwcOyW9XEP8gwSGFR0QRPDZATAf9kIeHJyvzTYrgB5g7Kdxj8saNcBUgxugHhDq/YA9fe/n4M7GF14Pk1DTmhsLCTc40Q8Mj6b77H6SQsN0sJhwxagz53vVrBk8Swx8eSZ5evtTc0sq6DIiwMGeMHxUVTTBiQJgIuO/Bly0Ab4vrVvaTB5Ef5oa64MRycvJo1px55OXtx9wdQFMGJIAB2kA3BL0GgLSxqZn3JzHZpMOBbz84cRUiO1c3d1q/cTPrqlLSMljXhT14eMRIBifsGbwNYA+hJ4FeSAakiN1RlJCYwuCMYHWpaRk8dk8BSRDRgZYbiewszVPmZCzV6+1njgSkrs5swoe3TBdsuTYCpO4IfHfPQTe187jybCddeLTUkBYDjMqKIygx3pNio3dQedk+sz6CNKqR7uYhnvc5IEEXJG/AuUfP0M2r9ZyefaKMmmsTqbEmXpVqK2MUMAIgYfKHDx1S9dPR3q4CHtS58corDFz4WhALRo6DtrDSQ4C+ay+91OuAhPW21mfqglJvckjp6RmKwhYudSAuwo94rcsG1r2AIMfGxdPYcRMJYjgAEiKvQr+CA4oIaJaRlU3z5i+kSVNmcDRWfE0uWbaCoE+ACFAQBeiGhEgPY82YOZsPIoKDwPkSUQ9gMWv2XBbpoQyetIWvObgJAqchXPxAUR+xO5piYhMoODScSkpLOeDgpCkzaemyFSx+TM/IpHETJpG3TwAhrPWYsRNo6rSZtHXbDqrZX0tV1ftZlIhyKMmXLTdZBCLkBcaHH7/xiH46CVxZNJf95Gf30bJlK3h9GAfrgUEEDpniGr7tcJBzxsw5LH6EfgNrwlc9+ly2fCU/hwizYE8Rc12COyjeW8JexcEFrl69ltewcNEyBvr5CxczqKGPxKRkSk3LpJDQCF43ygZjcgKSSWR/7mSFil7JNNCaay0g4TwmxHLgRrpLpzQf5TItPNR5UDWvrmNdCj0+f7aEGqrjmVEAsyAngBFoMQBp2/ZtdPH551X9lJeVqWiuPKal6z4FJGyidvMTE2KVDQAwHW5Lp/Z/zG5gAAAgAElEQVTmFFVqqk3gxWMDBCAlJSWp+oIYT7vQgvx81ht98vHHFB0dbfa8ubGRvv32Gwak8NAws+foz14dknadbQ15fQ5IthIwWYfUXVt85QuFN6ynXO6GiOiu3WB4LuuQBsN8MceysgoKDg7jlJSYolzHxSUo13geFRXL9xERkZQQn6Q8g+m6WGtpaZlSnpWVo1xnZGQp1+grLGw330MEKcZGLvs+hFEHwtgjAdRFvb17S5Tx8CED4xU8Q5gPjC+S6BtjifkhhwWn6AuWeeIZxhblEMeJcuQxMfH8DHsglxtdO5JDOv9orYpeaelDd/d6gPTYo4/Sr371S9308ce/YboGvdLlixd1aRvoG8BMHhvGEYJBQN7ZmqqixYI2C1osAGnPnj2qfuC2SEuPrbnvU0Dy9fVVTRomiX5+PqoNsBaQYKotbySu9RaclZlJ//rXPynZwPABc3rs7FndtujPEYD03rvv0LH2vueQjH5oRuXu2zxVinajeigH99TS3KL8sHHY0FL9wfRs6zYPQ73CQF1HaPhuReEPTk2IvcDFiWvkY8dP4Hu45ZGfQWQp1hYQFKK0ATct2q9evU65RplRxFj5YKzMIYGzFH1ZCj8h5oFcRKPVemqHtaLoSw7oCNN9US6bjaOviZOn8DPsgTyG0bUjAamrM8+MXmnpl6V7LSDp0TpRBpr2m//5bwako4cPKzp08VzkMD7Qjunh4aGix9YCkrX0WIxtlPcrIF1/+WW7AQkL0m6m0SJ7Uu4IQHr0VJMud9TbB2ONfmjO8sEp/rL03pyAZHqnAxWQYGF3pKPajGZpaZjRvTWABFXEU+fP03fffUu/+uUvdaVCMi0MDAw0mw+e28MhoZ127j4+PoYf+vI85Ot+BaQ333jDbkDCYrUbIC9MXAcEBFJnRwcn+MJDeWF+AYFrgXHFc88+SzikK+pr854A0ivXrtLJo5V0wkLU2N7UIVkiYM5nQwuUUlLTFcs0nNuCzgoJhiXiGjmCNoKDWrxkBUGfJZ7Bog46OCQcKhblmVnZSr9BQaFKOZ4vWLiUn7ms36wqly3z9pWVKc/kfkW4Evwfoj7iS2Fe8HEn5oEcfaMcY8n/s4g4i3IkmNeLNjjULOZeWWkyuBHtoAPEM4j7RH3kOI4g6si5IzkkfHwClM6eqKWbr7xkRru0tEx73x0g5ebkMAh9//131NzcTDs9PAxpmqBxvQ1Inp6e3c5BzEXkuoCUkZpGudk59NWXXxrGjRUd2JLDwk270XGxUSpEtlZkFxsbq+rr5WvXzBYPx4A4gwSR3d///jf685//RKUlJewD6ucffURvvvE6X+u1FeuyB5Beu32TOpoy+B9QnDcyyp2ANLSAQSZofXktc0gwBjEaWxbZyXUg3hKiLuGxAs8hDhPlEJPJbWSRnVxu67Wl8BPWiOxkseKq1etUczSai1gTcri/0qvnaECSaUBrXaaKfmnpovbeCJB8ff0IuiTQOBynCQkONqODgpZpcz2dPsR99nBIoLXynGEKrh3PmntdQNrm6kY73LfRnz791KGAhAk99eR51cSPdx1VNuCFZ6roeGcuHevIUaUjbVmUnuKrGDagH62biyOHDpltwJUrl9kFu3hJt27cZLkq4oeIzSnbt4/LIsLDlTLxDLk9gDRQIsbq/cicZUMTAJ2AZIoSO1gAqae+7ECbYmJi6C+ff8ZHWA52dJC/f4BOshwh4crlyyp6jPhKApCuXdxPR9sz2NAMjIKcUhK9VFZ29fX1qn4s6eVl+qq91gUkQxSSHmg7svY+TWP3/tabb/AGvPRctaGexcTu5lB6sg9vAuIkyWiM68xM00FXeR44h/TYo48pQAOFHQJYFRcVK2Wo/6c/fWpWJvpxAtLQJOBDDZibGpvYswXcJVVpwknIaw0PjyJ//2AKDg5XcQUw40dbpJrq/cr13uISro82cCUl9xUYGMrPoqLiVOXl5ZXcPje3gEpL9il9VdwtxxjFECXeHQ9jBASEcF8xMQlKOZ6jb4yNseS+ystMY6AOwkugDlLK3ZDymCdEgWIM5PLc5XIjb+q9ySH1FJC8vLzpyy++YHomgvIZ5e+/956K3gnahhwOWWVaevG555geX79Ua5Eed3VkUWKch2L2rbXWQ6wmeRxrr/sckKCvwQbJm/D6nVt06nCuxQ0AKJ04lE3Z6bvo8kW1U1b0pyczBSBdvPi8amP0AOkff/+bISAh1MWewkKbUkG+ZXdBMuvuFNk5AU8mlL19bSSyk8c1srKzVmS36q41HUJKQMcjxGOylZ214SdkkZ3cFwBUzDkyOlYZQ+aQYDkoxkYu6lub9yYgdTal20RTZHdnIO7u7tsoOSWZaqqqLKbqyiqOXWQECHAbJNNiXF95/jSdPtI9PT7alkkJcZ504Sm11At9+Pj6quiu0fja8j4HJEyguKjIbBOuvXiF8nMSKTkhzDDlZyfQ9WsvmLUFm6ldGO6ffOIJ1iHtKy1VnsP5nxzk70RXF7O8vj72baDeuFu3biWPHW5WpbVr1/RaPCRrf3jOej8eUHQCkvXv2h5AWr9+nVW/+53b3RSapEtD7HS9Y2tfcPGjdVaACAuPn+mg8r2JFlNFaTI9+9QpM392nTpOCqydV78AEib3zNPPmAEL3AjV7t9P4eHw8GyyfEMOFAdr+cH775u1gZWcDDDywnf5+dGvf/Ur9ogr+pOfP37uHLO85x67J9aTn+MaHB0UfbYktNEG3bPl3lEB+pxAYz3xGex7hTAawroMni/EtfCVJ9YH10WwLIPTWNnKrnTfPqVNfkGhYoUGCzZhzWatld2OHSb/dbCcg5cNYdEGN0niOi4+UbmGeyWER8EzjCfmjly2skM90b6trU3heMorKpTytPQMpRwhy0V95GIPrM3tASRrf+erV6+xiaboSYAC/AMoJia2mxRD3Vm7+e3aZeZfFBbI8PAQFRVldo4J55cQFv3pCxfM6DG842hpqC33/QZIO3bsYLc9WnbRlnt7TwOLDQoNCaGMtHSLG2iPDun2rVu0Y/tmq9LaNU4OyVoC4axnDLCyUYMs2lq4WG0uLe+hfDAWsYmEeMvIys7ag7Fz5y3gviCygwWdPKY112IeyGWRnTVtHVnHHkBa77LOqt/9Lj8PM2JuifZprezgTPrzz01hdYx0R6L8jddes0jjQA/Dw8N1w/tgTjieA0lSR1sbnT55kt57513duUNFEmyDlZ+gw3Leb4CESYBruXTxou7iLL0cPHv6qad65OZc3gRL1/YAktPKzphwOpJgOPu6t89OQLq3F476v7AHkCJCvLrVhUOH3FOjBoQZ/+qrLxkoEKvIKF25eJF19pZonHiWnpZmCErd0WNIr+JiY7sFPjGWUd6vgIRJgVOC0QDOBXW3aDyHAUNhYaFVERDRP2LPX3/5Op1/4gneLJgnfvnlF5w+/eMfOGqt1vmqvFlOQHL8D91RBMPZz713Y+TLTusbDp7J4ScO9f38AhU/cwkJ9/zMIZqv8CVXLvnI0/qyc3Pbzu19ff0V/3HwIwfxG3zXubq6W+WKCuEqEB4FY1ZX16j6kn3ZwfpPzKu2tl65RiwtUV5dVaNco1z+H8FBWdQTeyDawHu8XE9cDwZAgqhVplfa66OHj1gNSGgLTunS87YxCQi2ikO22rHtue93QBKThkk2HPSdPXOGYxjJ4PTa7dt05tQpKtqzR9eaTvShzXF49uuvv6K//uUvFBtjQu9Tp07R73/3O/ZEffx4Fz+/cvmS4WY6Aeke0RM/VGc+ePYEhz5lEZhs1CCL7Ix82cGCzeh9Gx2Mla3srBHZaQ/GGo0niyJl8aF8MFZekyVfdvKe9MfBWEdxSN0B0rlHH7UJkEBDoZNPT0+n06dOGXJMOIR7vKvLMDiqlhZbez9gAMnaCdtS79Kli/T5Z59RYECAAjgApPfee1e5R0x6yFrBSen1bQ8gvX7nVTp1tISOtCFCpGUTcKfZ9+Ah7kaEciCXOwHp3v+X7Fy1PwHpaHs2dR0stUoiJD7MtTokGBZ89tmfLTqGBrD89pNP6M7t27q0TY/eacswDjyAFxYUUH1dPcFFESInGBmSadvbej+kAQlKtquasBTwUo0IifJGwUW79rCseG4PIIl/IuQnj9Y5fdkN0lg+AxlotHPD4U4RgRVxpcTz5uYWwtkckWRfdhs2uioWdKgn2qRnZCn18/ILlHJtxFjZl50YG3lgYAi3X7tuA7W0tirzkn3c4Vq0QR3UxRw9PH2UcjxH/CzkB9oO0BbXbcp84a9PWP/5+gUo15s2b1XmLqL0inVtdd/Bz9CP2A/k8tpFXeSOFtmdPJRDJ47U2QREgpZoAQn06fKly/wxnZmRYW4Jt307lZSUEGhbUWGhit4J2jYQ8x8dIMEjrjbceW8CEv6hnn6yy5BTcnJI975gZWLgvLZtX8IiEIl3GKdNm90UENHu4/gJk7jOyFFjaOaseUobWWSnbSPuK6uqlfoYa/jDI/h++oxZqvLGxiZl/CVLVyrP4hOTlXJci/mijhgDuShHLvrGWHPnLVKerVnjolyvW79RuV69Zr2qL7lfW68dDUiPnT2iipYtwMaaXA+QwKX88Q+/50Cjf/zjH+iZCxeopamZnn/2WfrL5yYfnp/+8Y9m9G4gApGY05AGpBdeuEq//e0nFl/IkcNH+CsDJuBiU+S8pxwS/tnee/dtOtw68OMh2fqDdda3DTR6c79kKztrnavK+harAKmyWqWPknVIsgjMKB5SXEKSAha4Fm0QM0neG1GOXDb7tkaHBI5H7qsn144EpBMHC+zijARY6QES6FRgYBCdOH6cHUcLM2/k//mrX1FTY6NF2ifTuYFyPaQBCYq5f/zj7/TJJx9TU1MTK+rS0tIIKT8vj5575hmOKHv5kmONGsQ/kZwfqNd3xeHkkAYOUe8J8ervtjh0irNESIFBoYZEed26DVxn5co1LAITbeB/DqCE1NbWrlwfONCmXMMSTtRHvmzZSr6HRR0MCESCmE3sR3BwqFKOyMJijOSUNKWvnR4+Sn20E/0gR99irK3uO5U2ISHhSr2g4DClHOI7MTZEjGI85ODckAMw5XJErBVt5NyRgHThnNr5qEwbrLk2AiQZSODjMzgo2CbDL7n9QLge0oCEDYZJ+a9/9UuWpcpfELiG9R3OQemdghYvxxEcEv7hOpqcHJL8Y3deOxaIe8ohgegLzmSLm7tyLVuwyZZtqCtzSNa8z6zsbKVf2ZedlkOS+zLikOzxZdefRg1nu2wzYtCClDWAJGjWYM6HPCDJLycuOoYSYuM4GYno5Pq4dgQg/X/23ju4iiTbE/5jzbfvxX7m7Zt9M29cj583b/x007RvQBJGCAkhjLz3XiAB8g55jzzeG2GEkxAe4V172kN7umnfvbEbuxG7Eed7v6SzyKpbdVW3dHWNyBuRkXWzstKcPHV+lZknz9m9fYPcQ5KKDbpf4aLwHc+1BCRb9xOYBXGQRexOQOppzaAL585aXraTgCS4mtC71Aruyfp/vIB0+OBeam8wVv+WS3bOnSmMR6h787PxCUmEPSEEcdlK26c//ulvLA805B6d+qTyDDTP+POB80OU69lzApRrP785yjXy/vo3v2P/H5liTpEAHlt5HY8//rRy/ew0X0OwRtm8LmgF8ucBNrxvySlpSrq4/FdbW6ek47m//HUK+89pwMtatapGKYuXidiZS3Y4/gFfb6NnTlkCJQlIeigkpE1WANL2ywogwT16X2ctbVpTQd2txmAEJpWAJAFJFIJWr8PCo+j//f/+CwtQb+blVFZWKem4z9MRA5T4M9hT4te1dXVKvoLly5V0gAjPg/h7//UH7D+ASUwHEPB6/vbwVOXeY48/pVwHB4coeXhevZiXjbr07juS9vNf/prV/9OHfq60A+0GjfTKcTYg4X3vak6nDX2VtGFNi0PAJAFJAB+9S63gnqz/rQCStGUnQUZPwE1kmtGSnfZgrNgGzBD4kpa4hzRe46pGWnaiP6SAgEBdEBDbh2txD0l7z9H/7lyy0x6QH6+lhskqbx+oPSQrgygBSYKLo4LPHfnhtuEHP/ghC34z5yjCvnpVDT30s58rQWwbDqPye08/PU25XrVqFbW0tLCAGRLP4+MzU6kDdf3qV79h9x5+5FFVunjQ9LHHn1buYebGywoLj1Ta2NvXy0x5oc629jalbvz/wx//wp7/8U8eorb2duUezA3xNuKwO79ua7v/PNLF/v75L39j9f/hj39W2oR+iMt/Yv6JmCFxYJKANF33mI0EpDEcYW3ZvIXZc4LTKrNheOigoRIDZ0geyyU7CXiiELR6bTRDslKe6DFWtGUHzTY+o0Isli2mG82QxHNI4rNaW3ZiWeIMycw5JHHWB7VxsR7xWqzDLbbs6tOYjTkYizYTKsrKdAW4lY9sT35GAtIYgASVcLjJcCTMmTObUhNCTIWnnnrcxpmfdNAnQUoUnmauJSDd07JzNyD5+Txj6r2Pj57P3OfAVpyZAAszngwkzmqbRwJSQEAARUVGEvxzREZGkr+/v1cNxjPPPmsDMmY9SSKfBCQJSGZASMwDD6w/+OcfswB7cOI9R68xK+JlQXuPPw+3FDwdMU9HLKbX1d+3iwfNOH4PNvLEZ/h1x+rV9OOf/Izlg609nh/xH//0V/b/Jz/9OcEsEL/37DQf5XqG7yzlGpp0PI/fzNm69Wnbq3VTwdtlZcnO7HuOd9xZQnwyleMxgBQeFkZNjY00fOSIrvbJ8JEhqq+royVLlrh0IDMzM6m0tNShUFBQIAFJnjsyFIZc4HlbDED6p+//UAli+8V0cQ9JzCNeQ1WbP4N9JvEeT0csphtdxyUkKWU986yPqWfEOpy5h2QWkKZOfcwhmQJXOq4EHtjJg0Wb1pYW2rN7gLkEun7tGg0PDdPOHTuosaGB4uPjnd4mtwMSZj+rOzocMjrY3tpG8JjoigGyptRwlFaVxJsKM6Y9bQNecoYkZ0hGwted6Vb2kIzaa9aWndHzYjpmdHxPyKwtO54fsTP3kAIDfE299xWF8bof3loLDfy/q9S+4aw0Iz2Dzpw+bap9x0dGKDo6mmY4aUnRrYCEpTls6HGiOxIfP3ac/Pz8JhyUrAHSkFRqkDMkU1/qomD19GsJSDdUskpvNuQqF+YT9TG+ft06VR/NyuSW5manyGK3AdK8efPo9CnjU8sDuwcI4eDgAUMCnTx+whQoLV60iGA2iA9iYGAgDezeTZcuXaLl+flKOr8vxhKQ5GzF04EC7QsKWkD/+f/+f5h9OdiYc0ZAeXMD5inAipnEP37vvypBpAtUsnl49tnp9M///CP68U9+Sg8/MpVd439yappSVmJSilIO1M/FsozqEMvC8iF/Bq4s+DPwh8TTYUwV9fLwr7//I7v+zW9/p+THc5WC1Qf+LGIre0jeDEgHBgcNZa0ZYNq0caNdWSrKVaNrtwHS0eFhm87v37eP0tLSmEab2GBYscVezpHDh22eOTYyQnB/Lubn1/MCAui5G9eZewkYU7129SrFRMfQO7dvMSvgcE2B9I0bNug+j3IkIElAEoWUp17D5YS4DOWs63/9/R8UAW9vhiTSRXRhLqpqi2rfVpbsxLLQFl6n0ZKdJ9my48c8eOysc0jwdA0gGD17lm173Lh+ncVYcuvv6zflfgJaflu3bLGRrQAh7OsnJiQyj9pz586l+fPnK+7N9UAK2y9c/lqJ3QJIrc3Nqs5js2zntn4qLIillcuijUN+DG3bYjulLC0u1iXCls2b6c5HH1FVVRVbF33+ueeY3xDUh0EAwXq7u+mrr74kzNj0CGgFkK5euUJ7d2+hHVs6qbs12+7ynTyHJAGPC9bxxK4ApHszpH+if/zevWDU3qeeeoblgeLAn/78sJI/MTlFARFc83KmPPqEko4yeTpisQ6xLHHf594M6V6bnnr6/gwJNurEsmCGCP9//otfq9JdOUPqbM6mbZs6aP/e7SoZqCfcxTS9PaSwsDDmseCLzz+ns2fO0JHDh5Rw8fx59rF9+9YtWrBgga5s4/IO7skBZGJ9hw/up5X5SZSZGmoYKkqz6fixo6rn8NEPF+e8bEdjlwPSvMBAdsBU7Pyx4UGqq4yjiqJIw1BeGEHLskMoOtKX9NY5MYvSdh4uzPfsGVDSsXSHGVFxUZGShmc++eTjCXNhfv7cKHW15BqCkqsACT5f6hvqKTcnl5YsXkKREZG0csVK5hq6t7dX9eKLQkBeewdgioD0/R/8s+Xx7Ontoe/9139SZlviDEnLC7/81W/ppw/9grkDR8wDbNbhGh5pRbfl2ueN/vNyEBvlEdPhC4o/A3Dj13PmBJh6XixLvHb2kl1fex5z1inKPrPXWkCCFtzNm6/Qhx9+QOHh+gCQnJTEvMnu22Ps7w1yU9uGY0cPU1VJtKEs5nJ6xdLFFBs920YB4sL588oHv1Ymj/Xf5YBUuHKligBYchsZrGahoTrBkAgcjABIvr6+bIoqEjJPx288AGnDevVyHAApf5l63+j27Vs2aZxwVmZIYrtwfWBwwK2AVLNqFUHNVG8TFmnTpk0f14srvsTy2j0AJgLSz3/xy3GN5w/++YemAEn0hyQuEf76N//Cnv+7v//PBCsMjvKEWJaZZ8UlO7MHY82U60xAglFVrVxw5L8WkLAP/umnd2nZsmWqj2sut3jcUFfPPsKNznJCbortuHzpEg3uqqbDAxVUWWw8QSjIXcQmB1ERvrRo4UJVGShvscXjOS4HJHhnFQnQ3FinANKRvZXUWp9MjTUJqlBTEcs6DzBCALHLyspU5fT19NgMzP79++itN9+kgLlzlXuN9Q0qh3yV5eVswBYEByt5+GAidgYgob+NVam6oDTRM6TYmFh20NYIjHj6I49MoaKiIoeFh5kXW+aZeJCSgOSYpQYzPOlMQNrYX6ySV6IMNHOtBaSg+fOZt+vw8HBFbkVFRFBGWrryH/IrKyODyTejLYn1a9VbINXV9yYHmCQc3FVG9VXxVFcZaxNiovwUQJrhM4M2rF+v6l9dTY2qHaJMtXftUkCC8oGW+OFhSxRAAhE6mlKouS5RFWorbQEJAyGWdfzYMRsCYC0TU1rsI8H0j5YQTU1N9OndT2joyBGbezyv0wCpWt8NxUQC0soVKwxnRRyIxBjnn2pq9X3DmHmBZZ6JBx4jGhsBUkVlJcHdgriXor3+4Y9+QmXl5crHiNEMCVprUFjg4Xf/+kfCbOixx55kMa4Rnn5mGov/5V9+T7Nm+Sv585YuU+ow6gfSeTmIfXxnsucfnfo4zZ49VykLrtF5OwKDgpVnnnjiGeV63rz5puozaoszAWnr+gqVvBJll5lrLSBh60M7Qzp7+jSdHx1VybJtm7cwQDJS/MLymlh/aGioSh63NiSpZDGXzXxygBkSACk1NVVVDla+uAx1JHYpIEFLQ+z8qRMnKCDAX0UAs4A0e/ZsVVkoV6/jQUHzqbamhqbr2KwrLixkMyCUpfcs0pwBSOdGz1Bnc7pLZ0jt7W12l+lEIBKvMUZGL6hMdx/gjEV7I0BKS89Ult/EpTDtdXRMrDLuRoCk1bIzs2QnasaJWnb2+iO2baKMq9qrn99zJiD1tOXYyCtRFo51rQUk7CFBg/jFF16g2JgYppR14fw5BZBwv7q6ioFRf1+vrnzTymO0ATbz+BYKYrOApCePccjWSK4apbsVkDAzsQpIIJx2EI06qZeOk8UzZ80ak2DjBSRonWxe16ALRlABnagZUlp6ukOzIxGUYCqJv5Qy9lwQEsfGFYBUWlauOt/0D//le+z/L375a1U6Zk4AKzi/gxNAfiYqLj7RFF/x/Ih52ahLLOvRqU8o5aLv/Blo0vHrp55+1lR9Ih3Fa2cCEt71rrYydvREK7fM/NcCEmQaDANg/xv74jycOXWKybSKigq2pDc6OkqzZ9sqfOF5qHBr60a6FUDCc9qyAHhIdyS4FZCgfm0VkGDlQUsAvY5Di6S+to4FPm2Nj4tjmnWY8g4dPmxXI2S8gNTeuIz62vWX6yYSkOYHzbcMSBGR933ViC+ovPZccHIFIMEIKWY8PAAgcD31saeY8gIUGBCgWcevZ/jMUvJnZmUrAJGdk0e//8OfWUCeP/35b+waPpN4+YhheBVldazuILhZ5/eg9s3rgF08nj5r9lwlvbOrU6kPvPvEk8+wOqY+9qRSN9ogergVedzZgNTXnknNtXl0+ZLj1mn0AAnyDt4IlubmUWfHalrd3sEUDJA+a9YsWrhwoV0wmGhAQtv0ZLK9NF1A+uVDP6Nf//wXzKCenrdYpNkr1Oie3qwmPS1Zhchml+zS0zNUgDSwa7dNm2JjY9keEv96eP+9d6mutpY+++xT9iwULD7//DPS23/ifbACSCdPjFBXc9aY7ssnEpB8fHwtA1JgYJDqRRZfUnntmaDkCkCyt2RnxBcQ+HwJTlyyEw/GAkygkYd8P//lfS+2+C+Wi3y8LDMHY8Vnce0pHmO7WzOorT5LJb+0H9fa/0aAxOWU1Rg+3sS6goODVfLY7JJddFSUqhyci7LSJl1AGh4aYmD0f/7P/zHCI0uVoYE9Xd2qhu/etUMhwO5NK6mvPcsm9LZlUlFBqKJph3LW9verysE+kZYAABxo2cXExND8oCA6ODhIX3/1lUqJITc3l013w8Pua6uI5VgBJE9wYf7sOFxgBAjmYrQvtfwvAYmDApbGcI19HiO+kICUqbtc7yxLDaKsEq+xgvTiC8+PaZEbxgNEQCoqLFLk8Z6txdTdmk7dLWk2ITs9SKVl192tluudFi026AKSIQoJN8TOO3INcBBPBQOhDw7U054thboDh1kEAqa7BbkLGRFQhkhEXMfFxdkAEs4hiWaBsPGmdw7pvXffdeo5JE8AJH//uZZnSKGhYYYCxkjwyHT3ApUrZkhY2po69QklPPnkM+wamnQBAYFKaAcB9lkAACAASURBVG1rU/gnaP5CJf/SZQVKOq55WYGBC6ioqIQKi4oJNuoQ8yDyVWVFlZLe2Xl/OS4nd6lS1sJFoUodcGsutqusrII9X1paruRHG+rrG5RnxPqcvWTHZRniiQYkyOSRo0fZapCRyjfyAIBEWQrtuMN7VtH+7aV25XFPazplpgYStOyCggLp3OioqhwoWjiCCzyvywHJ998sdJ89c1bV+EsXL1BfRx4DHQCPUehtz6T83DCbk8HYB+IdEmOoNA4M3LfUgHswEwRrBTwfNEE+vnOHluocrEWe8rIy6unucSi0NjdSdwu+LMYOfj62zvyc4X4CoC0qKjhynZOTo/uCii+rvHYvAGnp7wpAsrdkx2dNiM24MBeX7DCL0vbHkf/iwVjR/YTWlp1Ypthe0QyRmMcKIC1aMMvUe9+0KplWFBSYDpE65ngWLVrEjEPDQLReWFV1T8tO/Cjnco/HsIUHxSsRlIYO7WGrVCKA6l33tmVQSmIgAcTE51Ge3jEbXqe92OWAhMbAtpKWCFevXKaEhDjy8/MxDMlJCXTl0iVV50GIRYsWKwAjdnbz5s3sCyErI1O5HxYaylQbeb51a9eyWRM2AXnaeGN4jJ0y5RFTQQ8onAFIlZWVlgBp6tSpBPMx4osprz0LfPTGQwLSvYOx7gYkvLtm3v1HH310XPIGCgPvvnNb0a7j++R68VjLZ6UlJSqZihWsI4cO0qxZfuQ308cwQCHt7JlTqhUvyOOEcTjucwsgQeDDiqyIqriG1t2hgwcJBFq8eDELOABbVVHJ0rX58R95jQBkzhx/gikMKC7onTWCMsM333xNvb22Vh6MyjST7ikuzKOjoh0Gpby8XAlGXujLyQiQ8HGxYuUKWpafbxjyCwqos6tLGXejc0j2tOyKS0qIB9hN5KBppGUHjTuuGYc8PD/i6TN8lRA0P4Rd+/rNppCFS5T0iMgY5XpByGKlLGji8ecjI6OVNqFt8wLns3v+cwNV6VptPN4WKzMkvQ9MvTQAlxlZYi8PZFpISIjdsCAkhGbMsH8eCOrjet4XTp44QRXlFTayE+rc7W1tNubbII+3b9s2rn65DZBA6O6uLhtQ0gMdozSAmr0Bwz0syRm5/4Xb9OysLLveDnu7e9haLNZjzYZdO3fSnFnTTYVHH51iAxrOmCHhpYKqLJhH74XQS4PRVTk78vzZEBeYYmwESGIes9dGgGRvyc6obDNKDdolO3E5zZkHY0UtO6P2iulWAOnxx6eaeu+Dg2yNmhrJOaRPlJYdl5+wdaddeuPtwWoWFN3gulwPuHg+KJHpffjzOszEbgUkNLC6qorNYninzMTYG8LBLzMd1ObBCWaYx0CAerP2vva/t2rZ8RcLX6tYa3744UcMgWnKlEcpMjKSpNVv7wQjjLUISD/7uTkr2ZxHxLi3r5dgLZyDgmjtWwKS53mMxQF4GJuG3MKxmvz8fDpx7Biz4oDZSmJi4pgyjss8fLwePGDsENWebN69a9e4wQjtcDsgoRFQURzcv39MYIK787179jBnUZyIY8U4HHb0yBHavXMHG5iW5hbVuisGwJ7FBm8HJC5samtrGAA/+cST9OijU+mxxx6nJ598irAkKmos8fwy9i5wEgHpP/3d3xOsXlsJD/3sV/R//ae/0wWkBhgm9puthGXLCigvL59WrjQ2yhseHqXkT05Oo5iYeBZycvLYs3i+qLCYYmMTWHpGepaSzstGjLqKi0qUe2Wl5cp1eXmlcl1YWKxco128PsTz5y9kbQkMDFaltwlagSLfW5khudJj7MCuXUxJKz4unsm2jes3MNn23nvv0ttvv00fffQhcz+RmpJiGpQgT+vr6ggf/aI2tB4Y4T6061YsX+5Q+fZktkcAEm9gwLx5lJOdTbBAy43+4YDV+nXrKTMjg/wdNEWBg7E4BAuLDFBmQD39/f30yssvM62U1uYWNqDONq7qCWrf4oslXuO8QMd3p+l7eqTygkgbb74WAYnPbpwR25shmaGXuGT314enKEAHdWz+PCwuiAdjefp4Y62WnbhkJ9LGmVp2rgIkLLHdufMRtTQ3M7mGFR8oNHStXq14iYW8fPutt+id27cdBozZc+YwDcATx4/rbqtgrx+y2qo2HZf52tijAEnbuPH+37t3D8FNOVQbeVkApIsXLyj/4azv66+/okULFylpPC9iKzOks6dPUnNNjl2TQVyNcqJs2Y33ZZbPe+8MSRS2472WgKRephNnCrr7sCGz7Z7fwXsPQ8tNNY4ZW9XuIXH3E9w7a0pKCn355ReEj3pRfsH9DIAKq1BiuiPXWuUJZ4OQ2JZJDUg4GHvo0EHVQNTU1NDhQ4dUaRgwrdM+TiQrgMSZ9uKF87Rxzb0zSRyAtLEEJO8S/J4K1I2NTTQ/OJggqJwZ4L6C97mltZVgFZwHnm4vzsrOUfLjACt/tqioWCm3u6ebYmLj2b209Awl3V65Zu61tbcr9aHe5JRU9j8xKVmVLh7kFct19pIdzldu37SaLp4/pzvr4HJDL9YCEnfQB6UsyKqoqGi22oOx57IL8YqC5fcAycHVJbEMV15PekA6eFANSCCuqAmCg7oApGV5S1UDyQdhPIDEGWv7pnbDryYJSBKQRCEorz2HH5wJSDCwvL6v2WEg4jJEC0i+vn5085VX6Natt5l5IBiOxgf4mVMnmRo4jEpjy+Lu3U/oyqXLurKNyzhPiic1IO3ft5fefutNlYdYLfFXt7ezs0jBmi8Lns8ZgASmaq1L0QUlCUieI4AkGMixEHnAmYDU255rGYwgP7SABPkEEML+0LfffsM+ql9/7TW2bIcPbASk3/noQwpesEACEhfo7owjIyLZwHz44QfU3tpKsVHRSshMz6DRM2fZNBeae0btdBYgYU9Ju1yH/xKQpBAUhaC89hx+cCYgbd9Q5XRAYqA0axYlJSbR1s2bmXM+eIxF2LxhI6UkJZGfn+MuIIxkoSvSJ/UMCQSEdt7zN24wYOJfDmK8pr+foLFiRGxnAVLjqlQJSF5oAUEChOcAhKvHwpmAtLZ7xYQAkpHc8tb0SQ9IfGBCFoRQRnqGElJTUpnHRX7fKHYGIA3u3aYLRnKG9OAKO1cLV1mf47zmTECCIdKRo4csg5Lekp2RzPLm9AcGkKwO0ngB6dSJYepocL3HWCmAHBdAkmaSZiIPOBOQ8PHZ3ZJJR48MWgIlCUiC7yO9S6sC3tueswJIcFG8pq+VKov1l+nEvSS5hySFoCgE5bXn8IOzAYm/9w1V2bRpvdqhHdemM4olIOmhkJDmbcBitb1WAMmTLTVIgec5Ak+OhWePxUQBEoDJFQ76rMo8dz4nl+ymTzdUaMDAeBogwVTIxk2bZJA0kDwwwTywecsWu8trVi01SEAylrkSkMYApL7ePjp+7LhDYc/ATkMlBj5t57EjS3YwkHr1yhW7L4nRlF+mG5uAkbSRtLHCA+MCpPo0h2RKcWGh3Q9nd85qnFm3BKQxAMkKsX19faimPM5UmDHtaRu3EHr+kJYtW0qwdm7lxZHPSIErecD5PKAHSEHzfE299yXLIx8IgHFUfnokICUlJlJ5aakSEuLivGrwnO0xNjs7SwLRDecLFCmkJU3HwwN6gGQ2zRkeYx0V9t6Q3yMACY6lykpLCS7F4Z1Qj0mwVHV8ZISKVq606+HVE4g+XkACU8+aNYvS0lIpPT2djEzA69FJpkkhK3lg4nkgOTnZZmXDLBghn6cDEpz1bVy/nske2MgTeQqugeBdtquz09RZTkdkstsBKTo6mg4dOKjqsNh5vWs488NzjnTUlXmdAUgclAZ273KINnr0kmkTL6AkjR8MGkM4wySZI+Cjl9dTAQlGWQE0ZveqsY3Q1NjI7Oo5Q8a6FZAK8vPpyuXLlgQuUDovN9cjQclZgARGjo+PZ14ZpcB7MASeHGfPHefTJ09R2JLQcYMR3mtPBKTFixfT0eFhS/J4/759FBwcPG557DZAgrdBvZcPLnFh7LSuro6W5eVRXW0tDQ4O0oVztj5EAGbhYeGGRJjh40M+Pj6q+7Nmzaa01FS2P5Wbk0PzDax8jwftnQlIel9XMu1vThEKko6Sju7iAU8DpICAeQTv3Hoy+ezp0wyoDh06xOLRs2d18wHM5tixC2pGproNkM7rAExHe7uhqwh4Kezr6bEhxPVr1wjrnXqdXbtmDe3csUO55+fnR6+9+qpirh1GVr/44nPmilfveatpEpCkoHOXoJP1egfveRIgzZw1S3cVBqtQkRERzCU69vkhDxHDh1xWRoaNLAaYYTvFqtzEc24BpD0DA6rOQJGhtXEFlRdGU3lhlP1QmmOj+NDf169LhCOHD9GpkyeUe8NDQ/TlF19Q0cpC5sQK7n8vX7pE777zDvn6+ir5xkNQPCsByTuEghTecpzcxQPOAiRse7z04ov00UcfMlc6+Mj+7LNP6YP332MyNjY6Zky51tzURDeuX1fJ5K2b11FRQRStWBpuGEpWxNLO7erDwygHXmqtylCXA9KCkBAbQNm7s4vWdOZQRVGkYShbGU7JCf4UHelLpSUlKuIBmRcuXGhDBC0gvXrzpmrGBKJhye6rr76kjPR0m+etElUCkhR07hJ0sl7v4D1nAFJFeTlb4blx7Rq1tLTQ8uXLWSgqKqKurk567dWbTLalpqQYyraQkBAbWXr4wHZqq08xlMWQ0+WFEZSRGkgxUTPZFot2qW/2nDmGddqTqy4HpFVVakdVhw4eoJHBahb6OrKpsjiaKoqiVKG8KIpSkwIYGAGQ0KEjhw+rCFmoc5LZBpBevUlr1qyxIdTtW7cof1m+Tbo9wtm7JwHJO4SCFN5ynNzFA+MFJCyzffDB+3T61EnCXrmePJozx58+eP99eu7Gdd37eAZyUwSTkaNH6cieahraV0lNNYmGoJSZGsTkcVSEL82d60/afSUoY+m1aaw0lwPS6VOnVAQoXFGgABKAqaMphZrrElWhtjJWASMOSEvz8lTlbN28xYYAACQQKjAoiG227d2zl/mdxxooJ0xSQiJz3hcf67zDt94CSE88PpWeefpxywEvFV7ohx9+2HIZqP/xx6YqSgrjaQ+eRVuc0SbQhgurJ594bFz94+U88sgj4yrnySfut0mOnTHfimPHae9p8XgBKWj+fPr8888oNS1NkWVcpolxaVExk2/z5s3Tzbd7l/pYCWZZfIKAuLUhSSWLuWyGHEYAIM3wmUHtbW0qedzT3aNbn9g2vWuXAhI8s4pojOt58+aqCGAWkKBiKJaF8wHaDu7atZMpMGBJDoOHgDXWvXv3srx52TlsSgvNPu2z4/nvLYBUlB9h2uYet70nxtOefYoJbdjjE9MdvV6eG64If0ef1eafPXMaK8t3xtPjalPZihilTTVlCeMqiwvDgDkzxlXOqrI4pU1y7DINaSmOHae9p8XOAqSYmPt7RL09PbR+7VqVLIPyAWSeESBBKUyUo5CrVgApLCxMVQ70AqzIUJcCErThxM4PDw1TQIC/igBmAcnH11dVFsrVEmDmzFmEAYuNi6PMrCwqLiqi+tpagmki5C1cuZLW9vdTgMHXg7Y8s/8lIBkLCy2A4L8EJHP0koBkjk4PAiDh4/7OnY/YsRgul6CefV74uMaRFyg8vP/ee0w7jufjcWBgoK4MtQJIWDYUZTuuZ8+ebSOTed1GsVsBaejIEcuAhGU3LQGMOunqdAlI5gQHBycJSOboJQHJHJ0eBECaPn06HRgcpC+//ILaWlsJpoxuXLuuAFJAQAANDx2hb775mkpKSnSBAQpdejLUCiBBxmrLMjqOY08e6wJSd2cnrVuzhv7bt98KLvnUl/YKNboHsxTaRgfPD7Q0Q9Iu2eFQl1690JsPDQ1lYebMmbp5UlNTddP1yjOTJgHJnOCQgOQYnSQgmaPXgwBIXA4dPHCAPvnkY7Ysh6W5/d9tR1RUlNMrL79EleXlBPDi+cVYu2IF2YxZlRVAgladVrbzs0tinWNd6wLSX/74J/rbn/7MDkupYej+v7EKNrqvPQ1cUrRSIcDwvipa3ZxKLfVJqlBfHUexUX6KYgPKXrZsmYoA27ZutSE6ZlEw2IqBQvj07l1luY63D6ZAcA8xTxtvLAHJnOCQgOQYnSQgmaPXgwRI45VVWgMF4eHhijw+ur+K2hqSqaUuySZolRpg9UYEJMzerLRNF5C+/RYC/L/dRx+dKyuV4Rkbte8DgwoBNvXmUV97pm5oqklQAdKBwQMqApQUF9sQoK+vj4FN1+pOysrMpFdefplNcbu6upS8EpD0X/KOhjSqr0yh3rYMw81js0oNKKerOd2wHLNLdqub0qmxOsWwHACcWaWGhqoUQnkcFLWxKNTsKTW01adSY5X9NvENdXtKDX3tGdRQmUKdduhkFpA8cuwa05w6du31aabGjtPe0+LxKjWYkb9zTZjx6e/tVcnRxoYGJo8BRpv6lunKYsjo4uVhKi27TRs3qsqprqxUZKyZtvI8uoCkgz82SbwAR2McYBVdTOBk78D2LtrYk2fIYFxYNK1KoJgoPyovL1d1HsisdzAW2nPDR4cVwmAKubqjnYHSwO7dbKNPApIakLpacujY8H3r62dOn6AN/XW6YzMWIO3a1k3nR+/Zx7px/RqNDO2n7pZsm7LGAqTWulQ6emS/wjfnRk9Tf3eNLljaAyQI/R2bO+ni+Xt2EWHR+PCB3dTdoqYB+G0sQOptX0ojQ4PEtZTOnj5JW9Y32/QNZXFhaARI6/vqafTs/eMQRw4OUFu97YfAWIDU2ZRFx486Z+y2bmijc2dPs/cM7yj62tOWa9M/c2O3TzV2G9Y0Whq7zetb6MK5e3bUMHaHBndTe4PtR4U4dpz2nhZPNCBBoQBaxas7OhT5pyerMzPVvtagrbxnex1tWZNvM9ZcDiMGKJUXRTC179SUZBvr4IsWL7Zbr15bkOZyQAIo7Nq5UwUo165eobU9q6ipJmPMsLq1kpn7EaeHUHfU6yCIu2HDBpt70Lb79ttv6PChQxQfEyuX7DruCWTMYs6ePq4aG07ndb3VNgxqBEgQ/JvWNuqWc/TIoM0swJ5Q62vPVgQjbwuP+zvLbNpkD5D6Oyt023R8ZIi6W9WgJAo17QypuzWLTp0YsSnr+rWr1Na0wqZNXBjqAdLGNQ025aB/p04M25RjD5AwdqdP2rYJZa3tMT92EDZ4FzmNxXhk6CB1amaVdseuw87YdZXb9M/e2PV2lOq2CWPX05qlKkscO057T4snGpAgD+vr6tixlqioKBsZyOUl9n602yiQAT2tth8fIiBxUCorTLDxZI3DtUaHdXm9RrHLAQkNwd4ODPeJzI5rENBIBRuHWxvq621sLmG2ZfQMDP29/NJLumbR42Nj6e7dT5ixVbmHdE8Yr+mutRkTPkZDh/erXnowpDEgZdLF86OGZfV3qYHEnlDrbFlhWM7pU3hx1DMJI6EGQcr7ohev66lQ9U8UalpAGti+2m5Z3S3qNnFhqAdIEKh67UFaQ7VaKNgDpDXd+iCCco4OHVT1zd7Y9bZnKrMQvXZt6F+lKsve2HW1OmfsupozCB+teu1B2pruSlWbxLHjtPe0eLyAhA/72lU1tGPbdsOwb88e9rENdXAjAEA6vB/wmT6n8amTJykiwtjNOgAnKSnJZkzggQFuLOzVZ++eWwAJDcrLzbMhAicGNEXgGTYxIYFKiooIvjb4PTHGtH1hSIhh50OXLGG2ngA4K3UM/sEr6zu3bzPVyCXjIKKWwN6g1DDlkSlUXBBFEEA8jJ45pktnTnOer7ctk7pb0xkgPfzwIzRnlo9SBvKs6Vxq8+HAy0C8f89GJX9PazrlZ4cx/zBTpjyqpPO6tm7ut9umplVp9575rk0AJLRplt80VVndrfl2y+nvalTyo00lBdFsqQ1tAiDx9iDes3O93bKwnMfyt2UwOkEYPvLIFAoM8FOV01idZrecXdtFOmVQVXHsvTbpjN35s/ozW0731Y3pSt12x251Ll038NrMxm5gk1IOHzv0T3fsNqn3J3hbeNxcm/Edne7xk9HYdTTm2qXT2r42oU0Zyth5GgiJ7QGPauWGo/+hYffxxx/bDTC6OpYzU4Db5k2bdd9ZWHKIi41lHqxhrgheF2AbDx5j+TjyGEu7Lc0t4+qX2wAJxF9eUGDTKd65sWKAUYodo4F8cDGzqq+ppaCgIF1CgchjDRgvy2z87LRp5MkBM9RTJ07S+XNn2dcw1uURtF9J2jHg+Xbu2E6+fj6sj1UVlXRuVF3OBTuzI5R59cplpd7IyHBmemTRwoV07qymnHNnbdamtW26eOEcK+vUyeM0ezbU+qdRfW2dTZsuXbSdkYtlXbl86X6bIsLIx2cG6x/apKUTeE98VnuNPSrQavvWzQqd8GJr6WRvFoky8YJzmufl5ZCP7z3T/9bGblQpy9ljh+McEzp2F+yPHWZPnE7L85cqY+fJ7yDaZlaeuCIfQAl+6LS8zP+D5+EZwZ6M6O/rG3ef3ApIIHRsbCydPH7CkBCcIGKMLwPRZIYrBmwy1QEQBnOJNHXket/efQrjwfKFI89q84ZHRLCylixZMq5y4EoZ1jswTq0tLeMqKzwsTOmftr2O/IfiDOebQwfvKxs4UgbPm5e3lJU13rFDebxNzho7vfMsvN1mYmeO3YqCAqV/vJ8y1j+HpKULXPC0Nlt7d6qrqmycoWrLN/Pf7YCERkKQVFZUsJPHRgwMZD44OEjFxSUO+W+Hh9ja2lrKyclhjAq35/iiwqExnFEqLyvTNathhnjemme8Qk0Ckjk32xKQzNFJApI5wNDKGxxihQPSjz++w8KGdeuYLMXHXWdnJ21Yv57tD2mfG+s/rD6gXMzQjeQx0rF/v3nTJkJ9Y5Vp9r5HAJLYWBgBhNOpxoZGJcDdOUxhiPnMXPvPnUtvvvE6U39csXwFe76/v58N3sWLF+n5524wLZTeXn0tPTN1eGMeCUj2BaWcIdmnDxdSfHYrZ0jWAGU8sgNLbMdHRpgzvn179xKcnkJJq62lhW7depveffcdglsdmA7CoVUrdWGbo6mhkVA+VqWgPYcYdVVXVVuSyWO1w+MAaawGO3J/8+bNbMAWC877AEgXL963DI7/UHqAgoMjZXtzXglI9gWuBCT79JGA5HoA0sobfAR88vEdWrHi3oc27oeFhrLjLMe+O3sJ0MLs8+4nn3iNbJvUgASzGMPDQ6rB0AISNvgBSPCvpB30yfpfApJ9gSsByT59JCC5H5C4PyS4feByym/mTPr4zh3KyMhQ0gBSkG/zAvT9IfFnPSWe1ICEg7GDGptKMNsORQpxADBgzvQYK5btidcSkOwLXAlI9ukjAclzACkm+r4/JKhkf/bpp1QkeM/Oy8llgARNSE+URdo2TWpA4rry2k6L/0u+86gYHhbuFQMmtt3qtQQk+wJXApJ9+khAcj8gYTb0/vvvMWsz+MgGGG3ZtIntG7337rsErbeK8nL6/LPP2F6TVVnh6ucmNSAVFxezTb0Tx4+z08OBgUHEA6a8MLgK0+04H+JqwruzPglI9gWuBCT79JGA5H5AgvxYXrBcOfiPVR74RoqKjKThoSH6/LNPmex77dVXDc9gulMGGdU9qQEJncaZFAyWUXj3nXcM3fsaEc3b0yUg2Re4EpDs00cCkmcAEuTQguBgGti1i4XJoJg16QEJgwbPiNlZWVReWqoEmCSC0UFMfb0dYBxtvwQk+wJXApJ9+khA8hxAcvTd9/T8DwQgefoguLp9EpDsC1wJSPbpIwFJAtJEySwJSAbufSeK4J5SLqb6CxYssBSCAgOVWSU2VK2Wg+e4uR/E4ykHLu05bZ3VJpQ3njYFCnTCIcPxlIWPCN6/8Ywd2sDLcRadcN5lPH1z5tjBDxDvn4y9DzglID2ggCRfVu97WeWYyTGb7DwgAUkCkvyilDwgeUDygEfwgAQkyYgewYiT/ctP9k/ObiQPjM0DEpAkIElAkjwgeUDygEfwgEcBEsyYFxYWUldnJ7Mwe+jgIdqzezd1d3VR4cqVFGLHO6z8+hj760PSSNJI8oDkAbM8ADfl4eHhzHVPUVER1dXWMmOu6enptFAwWG22PDP5PAKQcE5o29Ztdn1vcFXTjevXs3NFZjon88iXT/KA5AHJA47xAAxOJyUm0ujZs3ZlMkyzwTIEgMtZNHY7IMFBHhw9ccAxE8OdbkVZudOI4CxiynIcY3xJL0kvyQOexQOR/+bB+eyZM6blMZz4nTp50mmTBLcC0pr+ftMd1wIVPMh2dHRIUJJr35IHJA9IHnACD1SUVzD/SVpZa+Y/XP3k5uaOexzcBkgN9fW6YLRr5y4qKSmhmJgYFuLj4qm8rJx279plkx+gVFVRaZcIs2fPUQ5f4msMZtirqioJfpEQoqOi7D4vv+A86wtOjoccD8kDzueBtNRUwsqTFnzgwgduyuvr66m2tpZamptp29atuqtacAYYHR09LnnqFkAKCw2z6fzZM6epuHAphSyYaxiqylfS5UsXbYgmOqkSmRUbby++8ALzD490uEd/5eWXmFXcV2/epI8+/JAZXa2vqxsXEcU65bXzXxZJU0lTyQMTxwOwsqEFI2yjbN+ygZYsXkBBQXNtQkx0GA3uG7CRxfCsgD0oq+PlckDy9fUloK6IxOfPnaXKkhiqKIq0G0pXhFNC3Fw6e/q06vnB/fsJ5ku0RNi3by/dvn2LZn5nQPXI4SP0+eefUZzgoO/A/kH64vPPSZocmTiG146L/C9pLXnAeTwAs1tzAwIILnV48J8715SyAeTmrp07VfL02tUrVFu91K4shqwuWxlO1RUrCCtVojzv6+mxkcVmx9vlgBQZGanqAJD4wO5a2rlxpV0CAIxio/0oOtKXYmNiVAQAMaJj7ntO5J2/cP487d69WyHO8889R9u3bVP+I5+Pjw8DpAfJhTmnj4ydJxQkLSUt3cED2VnZqjNl4QAAIABJREFU9OYbbzC/bvjY5uHjj+/Qyy+/RIvHUM+OiIiwkaUDOzqptz3brjwuK4ygpHh/iorwpfbWVpsy5gl2HB2hi8sBqa+3V9X4PQO7aGSwmoXt65dTTXk8rSpTh8qSWIqPncXACICEDmoVImpralRAgzznRkdp/759SvpzN67Thg0blP+cUHc++uiBcmHO+y1jKUQlD3gvD6xYvpxtP7z+2qvUUFdPK1auVEJbSwvbkvj6q68oPi7ORubxcW/U7OVjf2h4XzUd3V9FPe1ZhqCUnODP5DEAydfPl3muFWdJOdnZhnXyuvVilwISpodXLl9WAVJmeqoCSACmjqYUaq5LVIXaylgFjDggpaelqcoZ2HV/JsQ7unbNGvrwww+Iz34a6hvojTdep5AFIQqxOtrb6auvvvQqr4q8fzL2XmEix06O3Xh4gLswP3XiBImW4MUyA+bNo3feuU0vv/SiIu/E+7g+cuiQSo5CrvIJAuLWhiSVLOayGXIYAYA0w2cG4fiOCEhbt2wxrFPbBvG/SwFp7ty5qkYDnAIC/FUEMAtIgUFBNmWJHcM1PCiCSPAWe+HcKLW1tNKrN1+hu3c/oR3btjOFB9zbsH69JeJp65P/pZCRPCB5wBU8gL0iLM+lpqaqZJd2L714ZSGTf1Do0rYL2xUiiOB6jr9aHpsFJChGaMvS1mfmv1sBaejIEcuAhM6ZJQAG5cMPPqBPP72rrLHi+u233qLszEybgTJDOJlHCh7JA5IH3MUDHJCwJ8/bUF1RSZ0dq5X/SM/JzDIEJFjI0ZOhVmZIqEtbFiYgvG1mY7cC0vFjxywDkna2BWKM1WmoI+ILAMHP78FzXT4WfeR9KWAlD3gHD0Cr7pNPPqaK8vsWa6B9fH50VJGDmC09f+M5tiKknTlhnL0GkPxm+FDQ3AD64IMPyOhnhXH9/PxsUDQ8bImlJTsY/RMRGXaV9NoENfPsrCymtDDLwJtkTXW17rN65ck073hh5TjJcZrsPLBj+zb69O5dgqJY/rJ8eumFFxRAmus/l5kA+vbbb5hBVD1aQF1clKG4huEAKzMkeEfWlqVX51hpujOkkPnBtGThInrj9deN8MiyAN+/d6+q4W0tTQoBDg9UUFdLGlNswF4SD631SZQUP0dRbECn8GUgEqCvp9emTfPmBbKDtNgnQvj4zh1apQGfsCWh7B7isYgl70shJ3lA8oAn8cDBgwfZsRUu4w4ODjI5VllRQS+9+AJVVVXZPY80MjyskqPJycmKPIamXUdTGrU1pNiE2Kh7R3C4UkNRYaGqnN07d1mSp7qAZIhCwg2rgwJVRRjk42By8sQJGtpbTUf2VNC6rhzq78jUDasbUyjhO9VvHGLFiWBeBuKlS5faEGDH9u1sWltaXEwRYeF0YHCQvvjic9q+datykFYCkhQwVnlZPid5xxN4wN/fn8k3yDhHLW83NTaq5Gh/Xx8DpOF9lbSuK1dXFkNG15THUkyUH9Oy8/X1YbJVlMeQ81Zo43JAwtROq/p9+MAeWmMARCJA9bSls/NI69etUxERh2sxKFoCwCIErDWI6cvy8pia97UrV5iNOwlIUqiI/CGvJT94Ew9gb2jGDOvuH2JjY1WyFKCya2sLre00BiMuk5trEik60o+tOolghGtoQVuho8sBCY2E7TixAzA9sXPbeqouTR8zDO7bpZphoZzSkhLdzgOQtujowyclJRHWVl9/7TVKSUySS3ZOsBRshfnkM1L4Sx6wzgPYk7965TIdOniQyb+khAR68cUXWdgzMECbNm6kstJSCp4frCsfQfsZM2bQwQMHVPL4yuVL1NFcQqubcsYMjXVFdF3jPmhg9wBNtyhT3AJImFaOHD2qIgKA5cD+/ZSVmWVDPCgm5OXm2hAOz0CZAYfE9Bh7544d9MH77xM8HGrvh4aGspPM79y+NWkBqbS4hPbsHnAo6NFKSzu9//BP5WhdmOnqlTVWWlZGpsN1tTa3WKoLplkc7dcmHWsgY/UJ93MyM9lBxeEjR8hswMa2mbK1eRYtWuRwv7Zs3myprsB5gczAsSN0HNi9W7FBqW27vf9QXNq1Y6dDfRvct99Sv+y1Y6LvQYYCjN57913K/s4qAlTAv/zyC7p+7SpduXSJbr7yCpNtkHH22hO6ZImNcVUYW62rrTM0lIqVLnjyFicWuIYvJQClvfrs3XMLIKFBcEcOtW9th/CfmTzfuJE2b9xIu3bsoPOj53TzYR8pICDAsPMgGqx9YzaEfSQtIbAXBWCEeQ28NNr73v6/qV69PqxHa20azI9Y6ffq1at1x0hbvvj/6NCQpboKl690uC6tDUOzfYQrFLHNZq5PHDtmqV+lhSvpjTfeoFu3b5kOly5dtFQXLOSb6YuY58ypU5bqCgqEcpHaQotYrt419pmNtGLtjR2OdGgtV+uVL6a9/NJLlvplrx0TfQ8HXXHAv1Dzvm7asJEuX7yk9AfnkqDwMFZ7VixfoUs32APt7emh0tJSWl5QwGIYErh86ZIN/6Be7UHdserV3ncbIKEhixYupDMay90io9i7BhjpnT7WdhBoXZBfoPKJpM3jP2fOmAOmfcYb/ktAuqG8NBKQ1EtDEpDu84Y3AhI/GKt1vRMbFc0AiB9KNQtIkGc1q1bpgpI9OczvQS8Acna8ctGtgITGYw0Ta528Y2bi8Zg3Hy/BvOl5CUj3hY4EJAlIRrLFGwEJqz+wNqOdIfV1d6tmRI4AEmRbQny8Q7KY03TJkiXjBiPU73ZA4gI+eMECqqutJUwReSfFGN4Iq6uqKDg42KENM3wpYIOvp6uLEaympobefecdFm7fukUbN2xgLih4OyZTLAFJApIRP8sZ0n3e8EZAgnbdmTNn6O4nHxPOYMZGRzMZ9/XXX9HArvtngBwFJPALlj1Xrlih6xVWlMnwppCbk2O4h2/Ee/bSPQaQeCNh8G/x4sWUkJBAGRkZBLVEbMBiJsXzmI2huHDr1tv02WefUkpyCnsebsvhP6S1tZV2bNvG7m3fvt3hss22wZ35nnjiSZoXMI9Cl4RSfHw85eXl0fLlK1QhPz+f3QsPDSNfH1964sknLdECz+F0OMYOdeXk5Kjq4fUmJiZSRHgEzZk9h6ZOnWqprimPPsrqWrJ4CasrMyPTpq6CggJ2j9U1Zw49/sQTlupCv2b6zSQYj4yPi2dKN7wvYgzNzeioaEbvxx57zFJdftOfpeSIRZSXEkfly/OovqKE2htqaF3Patq4pkcJq5vqqaa0kHKT4ygsyPa4gxmee+aZZ9mHGDSw4mLjKD0t3YaG6F9yUjLFxcVRYMA8Aj+ZKVub58knnyJfHx9aELyAjQneRZF2/DotNY2979jPfeKJJ+iZZ591uD72zLTpTLMsNiaWMC68fDHOzMhgbQlZsIDQPm2bveE/jrpgy4MfisVeOf6LvogS4hOova3NUv+gOIF3ubCwkHBeqbWlhRobGpjlh6ioKEsyeSy6ehwgjdVgR+7v3rWL3nvvXcL0lj8HQLp48YLyHyro0EwJCrSmN8/L9cT4kUemkKPBquB+2EJdVgHJ0T4h/1SLIIHnHK3v0UcfVfjLEb4AIC2a4+NQCJ0321JdTz31tMP9mjLFWr8g8P/28MMO12cVkB5++BGH63JknDwt7+JFi9lMBQdjPa1tjrZnUgMStPVgWkMkCmZGp0+rtYW++ebrSemgz1FBivwSkNR7LRKQ7n/USEBS84YoV+S1c2gz6QFp8DvbTvYYBlNeGCe0l8cb70lAui9M5QxJLTDkDOk+b+A98cb3ezK2eVID0pHDh+jmzVfsMltLczNbg10QbHya2VsHXgLSfaEjAUkCkr33wVvf8cnW7kkNSCnJyQxsnn/uOSouKqLwsDBaGLKQhaysLNrOzLd/QnAUONkGFv2x9wIa3ZNLdmrBLZfs7oO6XLJT88ZklBnu7tOkBiQQt7iwiN54/TVmrYFro/AYygxHjhwhWGxw90BMRP1GoGMvXQKSWuhIQJKANBHvpixT/Z5xekx6QOIdXbxwIS3LW0rVlVUEu2sxkVGKCwqeZ7LF9oDH6J4EJPWLIgFJAtJkkwue3J8HBpA8eRAmqm1GoGMvXQKSBCQj/pBLdmremKj39kEuVwKSRTPp3sA0RoLFXroEJLXQkTMkOUPyhnd9srRRApIEJJXygwQkCUhGHyxyhqTmjckCAp7UDwlIEpAkINnhATlDkjMkTxLYk70tEpDsCCNvH3yjL1176XKGpP4KloAkAcnb5YA3tV8CkgQkOUOywwMSkCQgeZNA9/a2ehQg5S9bRjt37qSR4aN05vQZJRwdHqYd27dTQX4+wQKttxPdVe23NxMyuidnSHKGZMQbcg9JzRuueo/dVc+cOXOopLiEtm7ZQnApz8P69euZqbVZs2Y5XRa7HZB8fH2p+N/ci8MXu+hrw+j6+LHjzCkV/IG4a6C8pV4jwWIvXQKSWujIGZKcIXnL++6sdkZERNL6devo+rVrdmUy3Jh3rl5NQUHO85TgVkCCWwigrxH42EvftGED+c+dK0HJznKTPeAxuicBSQKSEW/IGZKaN5wFAJ5SDj7y4QTVntw1ure8oMAphgbcBkiYGR05dEi389euXqXLFy8SvMQChfFfjxDDQ0NOIYKnMISz22EkWOylS0BSCx05Q5IzJGe/l55aXm93j66chey9cf06k8OI9WQx0lZVrxr3BMFtgAS34nodgxHUgIAA5hYXoDVz1iwKmDePKsrLdfPDMOp0g1nCvIAAWtPXR4g9lQkmsl32gMfongQkCUhGvCFnSGremMh319Vlr+1fw0BHK5NHjh6lnOxsmh8czORwcHAwrVy+nHmm1ebFEl9lZeW4ZK1bAAnTOy3S7t2ziwoLYikzNcQw4P6RQ4M2wJSZmalLhMH9+5i176+++pIunD9Hqd+5MXf1YLurPqwFd3d3s/VgKIUgwIvuoQMHVAHp27ZupZ7uHuau2kp7Y6JjqKO9nbDhyevCJqi2rl07d7Jl2t6eHsrOzNIdt7HqXxAcQqs7Oli/tm/bxurbuWOHTV28HX29vZSelmaprkWLFlNLUzOtX7eeeF3og7ZfA7t2sftYe1+Wl2eprsSYcNrY30MH9++lY8OH6fjIEAvnz52hC+fPKuHEsWGWjnyttda+SrFhXVlRyWiIsQet9Gi4Z/dudm/D+vVUtHKlpX5Nn35vKQi02bJ5s8IfBwYHVXTcu2cPu4d8ZaWllhSY2J50UTHrF68L/TqoqWv/vn33+rVhA9XV1lrq11h86or7K5Yvp2vXrtKHH36guDKH8eh3bt9inrET4xPG7Ft8XJzNfhFWqKorVlBifBjFxy6xCSlJEdTUUGkji7Gq5T9nzph1GtHG5YAEy9potIiuI8MHaVV5HFUURdoNBbmLKDZ6Nu3bu1f1/Plz52iWjsVu+EOC19jGxkZ6/sYNNmAApoL8AvJ5ALT1muobVXQSaW503d3ZaYmZVq9e7XBdR4eGLNVVuHylw3UBTIxeAnvpy5evcLiuE8eOWaqrqa6U3njjDbp1+5bpcOnSRUt1hYWFOdyvM6fUnpbt0U28FxQYSJcvXXaoPnyw6r3TYrl613P8/enqlSsO1fXySy9ZoqFe/a5MW7ZsGX322ad085VXaPPmzVRbU6OE3bt30a233yZ8jCckGIOSr58fHRs5pqLXudHTVF2WZlcWQ1YX5i+hpTmxdOWyemyxamVVG9rlgJSakqLp/Fk6NFBNQ3srqbbCGJSW5y2i6EhfFqAMAaARhWpKSooNUwGQTp08oaSXFBWxL4Gvv/6K3nv3XVq6dOmkVoyQgHRD4REJSOrlJglI93nDGwFp5syZ9P7779G5c6OGH9f+/v50585H9NKLLyoyUAuYqampyjsCeQpw2bujkQa2FFFFUZQhKK1ctphiovwoKsKX8nJzbGZYISEhhnVq2yD+dzkgQTCIQLJuTR+NDFazAFBqqE6m2spEVagsiVPACKCEDtTX1anKwRKO2DFcawGJ34+IiKCXXniRAEyY3lZVVNg8y/N6cywB6b7QkYAkAUmUO+K1NwJS0Pz59Pnnn1Faerpd2VVWXMJk3Lx583TzdXZ0qORoc3OzIo/3bS+mVWXxVF1qG2Ii/ZhMBiDN8JnBlntFmlaWl+vWN5Y8dSkg+fr62iBpTHSEQgAAU0dTCjXXJapCbWWsDSDFxMSoCHlg8IANAYwACUSBiiOAaejwYTaw852oSz8W0V11v6ZqFY2ePetQaGtptaGjmfY2N7U4VA/aNbh3n6W6li8rcLgu7IGY6Yc2z9Klyxyu6/CBg5bqaqwppuvXb9ALL7xgOpw8cX8FQNt2e/+XLFnicL+GLXpWDpwXSCdPnHSovrNnR8nKwcs5c/zp9KlTDtWFLQR7tPLEexyQoqOjlbY3NzWxvVWxvVkZGXYBCfwjAklUZKRKHrc2JKlkMZfNfLWKA9LSvDxVOYP79ivtEtsz1rVLAWnu3LmqRoNxAgL8VQQwC0g4gyQSEtfazh48cICOm1jPn6weY4OC5lNkZKRDwepUOzh4gUP1oF0R4RE2Y6YdQ73/+NpztF+LFy+2VFdAgON14UNHr91jpS0KCaa42FjCJrPZECMIpLHKF+/7+c10mIZQkhHLMHsNRQPQxJExi4qKtnSkA3sXaKcjdUVHx1jql9n+T0Q+yNKPP75DVYJW29nTp+n86KjSF0wAcGTmow8/1N3TwR6dVoZiT4mvWCE2C0hQktGWZcV4gVsBCZtfVgEJg6wlgHbgQ0ND7W7oafPL/+plHUkPSQ/JA57JAxD2OIf5xRefU0NDPdOOBfhwQPL3n0vQYvzmm6+p0mBLYv78+boy1AoggU+08hig6Sj/6ALSf//v/53+5//8n2Tv52hFyO/MGRK+kkUCYDD02oSBg2kLfPnji0EvT1RUlG66Xl6Z5pkvqBwXOS4PIg9glQl7SdgLR+DLqnV1dfTuu+9QS1OT4UwT2xSiDMU1aGgFkCBntWVh1uTomOgC0i8f+hkhvPrqq4aY5GhFyI/ptLbRyUnxKgKYXbKDKqNY1qGDh3Q7f2xkRBmsu598QpGa5ZSwJaHsPmIrfZLPSEEoeUDygLfygChDcY0PfSuAhD1JbVlWaKILSEEB8ygtOZn+27ffOhWQ0MAtmzapGr5p43qFAHu2FFNvWwb1tKWrQndrGhXkLVYUG1BOR1ubqpy2VtvN+J7ubgY2/X197LTxKy+/zPT2W4W8EpCkMLHy4shnJN94Og9A7XusNu7VWMzJzc1V5PHhgXLqbs2irpZMm5CS6K/SsoNChQhIfT29Y9at1zZdQDJEIeGGXmFm0hITE1VWGi5eOE/7d6xieu/9HVnU35GpGwBU+bn3ziJhb0h7GCspKcmGAOdGR+nw4fszpxkzZhBO7X/55Re0fetWZnJIApIULGb4VuaRfOJNPIDlMhyabW5stJGLYj+gFCECCRTBjuytpkO7y8iePF7dmEKpSXPZOaSZM/3o1MmTqnIg58V6zF67HJCg2QHLCiIRjh09Qn0dObpAJAJUX3sG5WYtJhBNfB6uK/z8/GwIgMOza9b026TXrKphm30w9xIbFS2X7AxsAZplIplPCmvJA57HAx0dHfTVl19SeHi4jQzk4wXtU1GW4nr/wDq7YMRlcmdTKiUnzKVtW209Nlj1xOByQAIhYKxP62sDGiOZ6YkUEb5QN0SGL6LszBQbJAYBoSrLCSzGsFeFZbpAnTNGiQkJdPfuJ/T2W29JQJKApMs/Ii/Ja88TuA/ymMA+YFlJKW3csMEwbNuylcm2keFhu/wNG5Ra26Jr+9ppVVkaVZakGIa6ykzasnGtCtBQTrWgiu7oGLkFkNBIGDzUIjP+r1uzxsY4H6af8H+kl3/rlq2GxA4LDWMDAu2T8pJSm3w4eHfno49YngXBwTb3HSWmzC+FluQByQOu4AF4OBgRFLa4lp02hjWaWIMPdt5O7DXBzY9WvmIlC6rhPJ8YJ8TH25hvw/M4yiPmc/TabYAEMNAaSeUEwexp9OwoQUMOy3Ha2RTPN7h/v6FKIycEpqu93d2G01ZolSQlJ4+LiLwuGUthJHlA8oA38sCCkBBdUILshRyGrN69ezdh1enE8eO6MvnM6dPj9h7rNkDCoOFcEjThOMA4End2rCYoKXjj4Ms2S6EleUDygCt4AOeDYCnDTF2JiUl0WqOcYFYmHx0epjA7e1Vm6kcetwISGgCCZWdl0ZHDh8cEJqxPHjp4kDIzMkwRGOVDiaK0tJTyvvNRk5WZRdevXaUXX3iB1VlUWDjmLMssMWU+KWQkD0ge8CQeWJ6fzzxzm20TVow2a47m2AMlzKD6+vpotoVDsHptcjsgiY2C/S44kMPUD+uXPOA/9pwctdvlN3Mmvf32W8wnSEXZPeuz/f39zNzG22+/Te+8c5tZ/G5vazMNcGJ75bUUPpIHJA+4gwdgZGDv7t20csUKu36jsJJkxXhsyIIFhC0RHJ3R+pfCfxhHhgX9AAvmgezRy6MAiTcUxMY0kwfMovg9R2J4nsSZIxHIAEgXL15g5aHcNf39DJT01MYdqUvmlYJJ8oDkAVfxAGQX9nKgxIDzRk0NDboy0iog8X5ABmOVCTMgHmbOmqVrrJU/M57YIwFpPB0SnwW6Dw+rvZKKgIS8cHSFQc3LzdUdULE8eS0FjuQByQOexAMRkZG0e+dOJsM+/OAD2rNnDzP/w9s4XkDi5bgqntSAhIOxg4ODKqCBt9l0jVMrAFL+snxVPlcNgKxHCjjJA5IHxssDsNG5betWtiKE85VbNm8huPCQgORBhyzhCwkKDPYGe9nSZezrIjpSWvy2Ryd5TwpNyQOezwPwZ7Rp40Z668032VbE66+9ZmkPyV1jPalnSOVlZcxEEFQS5wcH0xx/fyXAtEVCQjxzcnXh/Hm7oOWuwZH1er4AkGMkx8hTeaCmehW9c/s2IfbUNmrbNakBCZ3tWr2azYC++upL5jcEvkMQ4Njq22+/offefZeklQYpVLQvhvwveWIy8IBVhTB39X3SAxIIGx4RQSUlxcxlBdxWILQ2t1BGZia52305GAaKFgcOHHAoVJbfU2N3F+PIeqXAljwgecDZPPBAAJKziebM8gBIx0eO0+3btxwK/d1dXjMNdya9ZFlSCEoemLw8IAHJzUoYAKSRo8fo1u1bDoW+rk4JSG4eOykYJ69glGPrnrGVgORmoTaZACktNZUOHBi0CaOnjtGNk9vo/EANC+tXTCEetlX4Ken8vrviS+dO2rQd/WlpaZkU4J+bk0Pbt21XQlho6KTol1nwWBgSovQddEhKtHXqabYsmW9iAEsCkgQkpwml5pYWw1nep2+coP9xcz0Lnem/IB62lUxR0vl9d8VGs9Rjx0acRiN3CbK5AQF09cpVlb1ImH8xa3jTXe12Zr2HNI49YYdt0aJFXj+2zqSRu8uSgORmQJo2bRpFLwqmpakJVFqQS3UVxbS6qY62bVxLu7duosODe+n08RF23dPeTDWlhZSdEE1hCz3PfxNMNRkJdW8GpGvXrnm90AqYN4+uXVUDEmxFPkiApGfAecmSJV4/tu4GEWfWLwHJAwAp0PdZWjTHx6EQEhjgcS/Srl07JyUgvfXWWx5Ha0eFgASk6boeBSQgTczSm6P8yfN7HCDBOyyYJCEhgYW4+HhatHgxIZ03elLF06bRZAEk7LdMxhkS+gTTLN7MdxKQJCBZ5V9YfwD/BM2fT/AuO5Gzao8BJNiYg5FAe743YJ8J/jqgCGCVuB733CQCJFhRn6yAVFJU5NU8JwFJApIjsg+gk56WRgf279eVyTu3bye4Mffx8XHqe+F2QII5H7jFhfM9e2DE78EXx6aNm5iVbkcI7LF5JSB5vFIDQLaxvt6pL56r+VECkgQkszwHH0unT50aUyZDZp84doxSkpOd9m64FZDgMveURZe58PM+KTRkJhEgXblyedLOkGCw0uwL7Yn5JCBJQBqLL7Ect3XLFlMTAz5B4DH8ysFv0lh1jHXfbYAUHh5OcA/BOyTGBw8coHVr11Ln6tUsPnzokG4+eJLF2YKxOql3f0HwAlq/Zu2EOZrSq1M3bRIBktFyHdK9WcsO7ccsXnf83K0UY7J+CUgSkOzxL/boh4eGdOUsZPOpk6fo+LHjbOYkymrxemD3bsJ+k716xrrnFkCCR1h4OxQ7g2sAj9HmMQ7xwWq3dmkPlrrhqlyvozh7AaUIvdDS1MyMrsI3UmhYmO7zemU6PU0Cklcs2V25esV9PGISdOzxpgQkCUhG/IH9on1799rIY8jW1pYWCgoKUvE+VqbWrlmjO6FAulE9ZtLdAkjr1q6z6XxLYzlVFEWOGdb2d9o8CzcTep09cvgQAx044LMXYP17rpN9w+u1RzdNApIEJCcAji5vCeVKQJq8gNTVsZo+vXtXJePgxaB2lTm3E0vz8mxk6onjI1RWmEhlhQmGoaIkjXCWTTuxiI6y7lvO5YAUGBREUEwQO7Frxzqqq0wYE4yy0+ZTdKQvtbe1q55HedDS076U8KAIFxO7duygJaGhTJ0cKuUIdatq2ADGxcXpPqsta8L+S0DyCkA6oPE8PGH8IICIM+uQgDT5AClkwQL64P33mRx79ZWbtHHDBhb27dlDb77xBku/9fZbNjMcka8gN7Xy+NjwIFUWx4wpjwtyF1J8jD+dGz2rksfYirG6dOdyQCpauVLV+GMjR2lksJqG91VRS12KIRGy0++BEQDJz8+PLd+JoLa8oMAGkLCU19TYyEDp/LlRihDOkizPz2cD5raZERc8EpC8ApDcrdTw9DPP0GOPP07PPPuspYBl8qVLl9KyZcuUkJOTQ89Om2apPLTjz3/5i807Jwo7Z19PmTLFclvR3rS0NKXvnA4zZ82yXOajj051af9FemKZ7bVXX6XXbt6k6Ohom3bgaExmRgaTcSPDwzb3eVn5+fldqO77AAAgAElEQVQqeQztuoMDNXRgVxlVlUQbyuOl2QvY5CAqwpcWLgyxmSnptYnXaS92OSAdHT6qIkBDXQ0DJA5KrfVJ1LgqXhVWlcewzgOMENCh0tJSVTn9fX2GRMf+EzTAsDQHRQls4ElAcv4Jball53ya8pf3qaeeol/9+lcEYPKE8ORTT9H3v/99w3eOt9uZ8UM/e4ieePJJj+g/xuCnP/2pS/sv0nJeYCB9+uldWrlypd029HR2MlCaNWuWbr6N69er5Gh1VZUijwFKDauSqL460SZwWQxAmuEzg6BlJ04QWpqadOsT+6B37VJAmjlzpqrR6MDCkGCFAACljqYUaq5LVIXaylgbQAoNDVWVBaDT66CY1tbaSnc++ojeuX2L1vb3yxkSn6U5KZ7MB2PdfQ4JgASB/PAjjzChDMHszvDQz35G3/ve98Z858T3b7zX6P/vf/97t/ab0/wPf/ijy/sv0g9WE/CBDW1lnh4THU3JSWoL5lnfzZJgUIDnE+PLly6p5OiihQtV8ri1IUkli7ls1gISDsmKgAQNaLEes9cuBSQsj4mNHjpyhAIC/FUEMAtIeuBmptO+vr60d88eBkZQdMDyn5nnJizPJFqym8yA5G5LDRyQ/vrXv9Jf//o3t4cf/fjHLhfIAKR//d2/ur3voP9vfvMbl/dflEHY+8EMCcuuPP3s6dN0fnRU+Y/03Tt3MFmnZ1Fh/vz5KnkM2YxnMDHgwSwg4TlRtuMay8S8bWZjrwWkGTNm2BDAbKexvrpgwQJauHChwwQzW4fpfBKQvGIPyVMA6c9//otHCGR3AdLvfvc7j+i/uwEJwv7Vmzfpjddfp9DQe8dWtIBUW3NPcQvLcnryaKIBycr+vC4gbd64iXbu2EH/+3//bzL66XVwrDTtDOnKpUsUFBigoLEjS3bBGnSHZsdY9Xvk/UkESPAbZHQ41tsPxhqdj3MVTz311NNsye6Pf/yjRwhkdwHSb3/7W4/ov7sBCXwXHBxMr7/2Gn391Vf01ptv0hdffE6nTpxgcrC4uJi++vJLZh90toEFhYCAAJuPeuYw1MIMCStN2hmSFSOsuoD0y4d+Rgg4iGr0s/oiavXW83KzVIC0ujmVWuqTVKG+Os5mDykjI0NFAJwS1rYJB7ig7DBWaKivJ8y4tM+75P8kAqTJbO3b3d5VJSBNZ4AsAUmtOANlharKSnaAFYdYQ7/z74T0cBMH/rXWchYvXqySx2aX7BITE1Xy+OyZM5bkqS4gPf/882wqaARGSLcqrNvb2lQNPzC4TyHAjg0rqb8jUzeUFUYqoIS6YVpIRORV1dU2bQJIYZ/o/ffeo/fee9cw3Lhx3bLevFU6KM9JQPKKJTtlvJykAOJoeRKQJCA5yjNmzgJt09iug/YyVqqO7q+iwR0l1NuWrRuy0gKZPOZadr29vSp5DDnvaHuRXxeQ7AERv2elMjwDMz1wHczBBNfbN9XS1rXLdYGIA1RfewZVFEUzIuA8gdaEUGREpA0BlixewgAJbi2w5moU3OrOYhIB0q6dOybtkp1VfnfWcxKQJCA5wktBgYH08Z07tGTxYhu5KJazdNkyRRZDJsNc0OGBagZGXPbqxb1tGZSdHkQApMDAeaTV1gsXznyK9Y117XJAwroiDl9xQEJ86eIF6utYaheQQBSAUlVZNiOa+DwsMRiBSnl5OX355Rc024Md/KXHR1NjVSmt7+mkge1b6PjIkBJGz5yis2dOKv+3rl/D8sZFutH+nsEsYcOG9ZMSkLBiMNaLNNH3JSBJQHKUx2BdBJYc9KzY8LK0+/qQq0eHBseUxZDHPa3plJsZQsePHVPJc5RhVXvZ5YAEQmBvR4uoVy5fpsqKUlqwIJCC58+zCQsXzqea6gpCPhGMcG3PDTGAasXy5RPq5ZAPrpUY6pgnjp8wFORGSgJ9XZ1uF5La/vb19Rr2w5uVGi5fvuR2WktAkoCkfd+Sk5OprKzMMGBPCVsWWzdvtsu/pSUlNitOg/v2UlpyNMVELTIMBXnpNHTksEoeX7t6lTnu07bV7H+3ABIa19DQoFq64yAzcvQolZWWUnx8PEXHxDA35iXFxTamgpAfnS8c46SylhAAqJCQEAZiVtQSteWN9/9kAqTmluZJCUinT5+y+0KPlwfMPC8BSQKSyCfYH8KHEvbH7QXsnespfGnLgssfLoPFuLKigplcg3UbBMjMqKhogiUGMR+/xt6+WLaj124DJDS0saHBBpl5x8aKAUZ4fqwOQ9f+6JEjVFt9z/JtS/O9rwZu/XvP7gGCPauxypmo+5MJkPLy8ujGczdswvPPP0dvXTtAH17sYqE19bfEw4bCx5R0ft9d8fMvPGfTdvRnt44G50Txg1G5EpAkIBnxhrPSYahgLLlr7/7Arl3jlqNuBSQQEgoK9jppdC81NXXMzkMFEvtHn332qXIItr+/n1568UWCSY01fX1MVx8D4axBdbScyQRI6DvU522Cjw+hnzzdx2c68TDDx+AZvXImOE1sI28rYqP9SUfHejz5JSBJQBoP/5h5lvlF2rPHkjyGLLVimUHbLrcDEhoEqwldnZ26+0MiIEEjr721lWDHSdsRvf+Yqr711psq8+sAJJi44fkrysrp66+/ouD5wUoav+eKGMIuJzuHiouKHQpxMTFuaa8raCLrUJ81AT0kIElA0nsvILfgFO/8+XNMrkG2Iezfv49yBbNCes/qpUEZYeWKFXTp4kVTwIRzpbAq7gwwQns8ApA4YWAAECbyW5qbqae7m3Zs28YOtba2tlJebh7B5zvPaybGoa9Dhw6qnqmpqaGTJ++dZuZlfPXVl5S/LF+Vj9+Tsa1wlDRxPU0kIElA0r53UGq4c+cj+uSTj9l+OoytfvH553TyxAl67dWbTKEBGnBzHJSbqAeuewry85n8hSfvSxcuMIC6cO4c7d+3j7q7uignO5utfGjbNZ7/HgVI4+mI3rMApIMHD9gAjWhKA9NU7CctzVtqk0+vTJnmemEsaT6dHp36GLNU8Pvf/8EjTOe4y3TQr3/9G4/ov7tNBwEw3n//PXYEBsoGeEfwwQ5PBrBhh/8rCpazLYkd27Z7jWyb1IB06OAB5sTKnk2l1e3tzIEfbONJwSfBxlN5YMqjUxkg/c5DrF27C5B++atfSUCaPp1tW2BGBG1kkWdXLl9BcF/O08qKS9gHtzsVt3hbzMSTGpDiYmPZYGCAykpKaV7APZ8gUJlMiIunM6dOE5brDh1UL+uZIZzMI8HLlTwgAenekp0EpHvvHfeHpPXMmp2ZxWQe582x/CHxfJ4ST2pAApHTUlPp5RdfZIPEVb3FGKbZPdmKg6cwimyHewEYgPSjn/yY/t2//4/07/79f3B7+Pf/4T/SP/7jPypf4q7gD/hD+k9/9/du7zun/z/8wz+4tP8ijWfNnk0ffvgB88rAFQqwEnTz5it07eoV1i6k37h2nVlr8ARNUbH9RteTHpDQcQxGdGQUZaRnKAHq5o4qSRgRUaa7V1g/CPR/7PEn6Cc/fYh+8IMf0tNPPUvPPDNNFb7/gx/SP33/B04PP/zRT1T1oN4nnniK1fPjn7jWhfcvfvkrVu8jjzxq06af/vRnTu87p+djjz1pUx/o8sMf/dhtgASerygvZy4nXr35Ch0bGaEPP/iAfXjn5eaydkHpARrEsFTjLe/IAwFI3jIYsp0S2MbiAewFaM1u4WgENrnHetbKfSwNiUcvcA1blFbKctYzOM6hbVOERWOeZtoEYa+tz+zREzPljydPWmoanTt3jnD4/Ny5UYoUXJpDhTs8NNStY+Vo3yQgGRgKdZSQMr8EE1fwgASk6cwUjhYgHlRAcgXPubIOCUgSkLzqC8qVL4cn1iUBSQKSJ/Kls9okAUkCkgQkL+IBCUgSkJwl/D2xHAlIXiSMPJGBZJtcu1QpAUkC0mR+5yQgSUCSMyQv4gEJSBKQJCBxv+VCPJmJIvvm2q9+SW/z9JaAJAFpMr8vcobkRV/Hk5kRZd/MgZIEJAlIk/ld8ShAgj+a+Lg4qq2ppb6+PtqyeTOLG+obKDY2Vi4tSfB84HlAApIEJFcD0pIlSyglOVkJixYtmrD30CMACdZqcep49OxZmwNo4nmD0ydPUlFhobSwIIFpwl4IV7/sjtYnAUkCkqM842h+OKWMi4ujttZWgscEUQbz61MnTzKP3ZGRkU59F90OSEmJSbod5h3Xi8+NjhIMp5ohNFxNxMTEUFx8PAUGBdk8A+KXFBUxb6ZmypN5zC0tSTpNDJ1gkUHrPA2OK3EqfyJoHhgYaPN+njh+fELqMtv+XTt3qtqE/sM7tNnnHc03rOPaG3RxtBxvyB8wbx5t2bRJRV89GczTbly/Tl2rV1vyuaRHD7cCUkV5hemOcwKIcUlxsV2mwMzr00/vqgyrwvmfSIiwJaHsPmIxXV5PjECVdB0/XVOTk2nrlq1KWDyBSygYr7ycHKUu1Bsc7B7vypx3wsLCVO2BAWV+byLi+fPnq+oDPSaiHneXiX5euXzZkkzGR1JAQMC46eI2QCpcWUhXr1yx6TymiO1tbZSVmUkJCQmUnZ1NHW1tuva78HxqSoohEbZv20Yff3yHsrKy2Cxpw/r19M03X9O+vXuVZyQgjV9AuvtFkvXLMZQ8MD4eCAoKMtwygUzevnUbwXcc7AgagRZmzuMFJbcAEjqvtzbZ1tJI4WGLaH5QgE0IC11I7W0tzFWvOEvCtd5SHBgU/t4xvReZFW55v/jinptfmGuXgDSdli1dSr19fYZhY/cq2t6Zr4Ts0D8TDxXpvkq6mMeTrrd2FRn2jfdb5BF5PT7hJunnXfSbO3cuk5Vaubp1yxY2KYCymTim2MfMzsqmwf37bSYUBwYHVXnF58xcuxyQAAJ79+xVdeTqlctUv2opVRRF2g1lK8OpvDSXue0ViYc1T73OXjh/njZv3mxzLyE+nj766EN6+aWXiDuwepCX7MBYt27fMgyfvT5C/+PmeiV0pv+CeDjUNFNJF/N40vW3r+407Bvvt7f4i9Hjc5nmXQDg7PECYCxcuJAiI6OUEBKy0EbuGdW7uqPDRh5v29xjVxZDVpcXRtO2LesJ+0iiPK6prjZdt7ZNLgckqAxeu3pV6QA2JLduaKK+jhy7BAAYJcTOoehIX1qxYoUNEaCaqO0cluwAPFhz1t7DVwF80nNnfQ8yIGG2ygWzXvwgABL4Qcsj8v+DLei9YfzTUlKZy3Iux8T4jddfp3DBHYVefwBkIpjgevjwdmpclWRXHpcXRlBGaiBFR/rR3j17bMqY4+9v6X1yOSA1NTSoGn/o4CCNDFazsLYrT5cIZYURlBjnz8AIgATCbt28WVVOZUWFDQHgVfHNN99g+0Z9PT0296GZBGGMQRzv2qfeYHtLmh4IiWkPAiAtWrzYhj+8ZfxkOx9M4CwvLWOy7Z13blNFWTlb7cGKD0JzQyPdvfsJc9CHvXgjHoHcFAHp0MGDdHR/NQ3vq6L66kRdeYzZUVpyAJPHURG+5Ovny3xkieUkJSYa1mnUFqS7HJCwjCY2vGBZngJIAKaOphRqrktUhdrKWAWMOCDlZGerytm5Y4cuAYDU8A5r5KYcbn4XP8DCCDMDEXz0rh8EQIqPj9flH3svj7z3YAKBJ4w79nE++OB9Gjl6lGbNmqXLu3MDAujd2+/QW2++qXsf/din2T6BXOUThKP7q6i5LokaaxJtAuQwAgBphs8Mam5qUsnjdWvXGtZpj34uBSSAgwhG0JILnj9PIYAjgATVU7EsAJ29jsp7+sID5yn0QEhMexAACZqYkkf0eUTSxfPoAo+1n3/+GaVqVN61e6GFK1beWwGaa6uSjTOY4vYJ5CnkAQckxK0NSarJAZ8saAEpLDRUJY+x8mSFb1wKSPgaF0Fk6MgRCgjwVxHA7AzJ19dXVRbK1RLA18+PUlJSxgzOPm2sbcdY/8FUS5ctcyhERUXZ9HesevTuY09PBB+96wcBkMrLypxCTz0ayzTPE+jePiYckKDIwPtSWV5OXR2rlf9IX5abxwBp3rx5qnTcw7kjUR5zGWoFkFCetiyjmRtvr17sVkAaHhqeUECC2iL2h/AlYS988vEdt5kjwhfNiWPH6fbtWw6F/u5uGwbTG+Cx0qKjoiQg3b5FXZ2dTqHnWPSW9yU4OYMH/P396c6dj6i2pkbh27OnT9P50VHlPzSaX3zhBfrs07tKmlj3RAOSvwVFIV1ASoiNo6yMTPpf/+t/CQ4n1Jdix8xea2dIUBe0umSHfR8RkY8fO2ZDdOjKA5BKS0oJCg5GAeZYzPbB2fkASCNHj40JCtqZS1+XcwSoBKR76u5r+vvdxgPO5ilZ3oMBegcG9zOlha7VnRQfE8uW3zggzfX3J2gwf/vtN5SXm6vL2zCrJspQXGNP3coMCUph2rKs8KEuIP3yoZ/R7379G3r9tdfUKCT8s1IZnsFpXrHhFeUlCgGwidbZnEqtDcmq0LAqnmKj/BTFBpRTWFioKmezzlkkCPvdu3bShx9+QO4EHXu0cjcgZWRkjAmGD8KS3fDwsO5La2/s3HkPGqKx0TEUHRmlBHw1P/3MM04LC0MWKmWjnsjwCK+ikTvHxxV1Yw9o+9at7KObq3sPHTrExqiiooJpGC9fvpwwUzJqz/FjanmMrQArgJSTk6OSx4e/a4dRvUbpuoAk4I7hpVGBY6VDPVEEpOGhI4wAAKONPXnU35GpG1prkyjmO1DCQBw5dEhVzsoVK3SJjpcU55FmunEWZI8m7gak3NxcCUi3b9GxYyO6/GNv7Nx5b/GixfTqzZtsSQbLMgh1tbX0yCNTnBaGh4ZU5R8/dsKraOTO8XFl3QuCF1BycjIlJSUpGneQK1oLC3pt6unuVslRWPgGIEEeb+lfpiuLIaOh+i1q2WkN3o5lZ1SvLUhzOSAtWLDARrNjYEcvrevKNew8B6mOhlSKi55J9XV1KiIC4Nxt8NGIwGbSU2IiqLW2kjat6aWD+/fSyNBhOj4yRKNnTtGF82eVgLSBHVupsjCfYiOcYwxWAtJ9CxVmxspT8ixauIhZGhE/7nA2z5mAJJaN66PD3gXanjJWE92O0LAwdrQFSlyO1oUjMeI4Q/N5cFcTbV2TP6Y8riqNYWrf2ZmZqjJQXkhIiMNtQdtdDkiodO/AgKoDWOvsW11OXc3p1NmcZhi6mtOoq71S9Sw631hfb9h5rInCVNDC7wiU+G8HtrD5x0N8nJvPn0ybRoG+z9KiOT4OhZBAWzVOR5kR+SUgTR5AwqFGZwHSHJ39BU8FpE3rN9C6/n4lLFm8mB5//HGnhca6OqVs1NPe2mZ3GczKezieZ7B/jr2iLz7/nMJCba3S2Csb8lHrh+7kiWPU35FNvW0ZY4aGVek2xlb/f/beO6iOZMsb/GM/u7H77UTMi2/eZ3bexNiYL2J3dvq1V1t5JECAMDJ4gRxGHiSEkAAJCRkkJCGBvHd4kASyCDlkumW7ZVHLe9c9M29m/js7v6SzyKpbVbfupbi3uOSNyKi6mVlZmSezzi9P5slzjh87RpDQzN5rlOYXQAKStxw/rgIWZkJo+3aCywi9ymLpDUCmtZsEQEKa3jNYO7116yZbY52bO4flqaioYBbAsfn3/t07tilYumKF7vN6Zdoe52dAKigslEt2v9rxs71vu9GRop6EhG+hNwLS1StXVLxkVWmpbXQAPeGMDrTlob6ugXAw1SnjBbz0zJnTdPTwYcbTUF8oLFitH7x0g//y9uGKc51jU8fQoMEDDcOM6VNdPDbADQWUx6y+W5vPL4CESoAIeu4n0CDYRtq8eTMtmL+ANm3axKzK6pk8h6M+MysL69evo9evXhE27nnDAUjoPPzH7GDnju3MZ5InHcjLsuXqZ0Cav2C+BKRfAaknOV3rbkCCEoPIoHDvVAlJC0iYbNoFzChH65nAiYB0+FeniRMnptGNH39kdjqXLF6s8D0zXgVpZuGCBS79jT6H4eUF8+dTypgxzIAr3P1gnwn7i9rxgf/w6G32LndpfgMkVGzqlCm6Zs/1GqqNg5gJUDNr4ImWFmpuVq97r1mzhqE/fw7KDtBQSU9LNy2L57f9KgGp262FW7H2DbX6QACkQQMH2cKMkxOTXBhOTwEk8IqPP/7EFjoAkLS8x8mABP4EnoYJ/du3bwjGB6yO63XlFS5t1bbd7H9hQUGXeahfAQnEg7XZ/Y2NuktxRo2vra62tGmGmU2txj8Hlvfg/I8DC2YHb9+8oenTpitxPM0nVwlIEpC8WNozkpDsAqSetIeklZDAN/r0+cIWQPr2m29cmLRTAAmKAwkJCWwP5/TpU+we/3mA5vG7d2/p9q1blnkbFMawSmXEe/XiT508RUZazp7yUL8DEq8w3DLDUCCW5rT7RPiPeEhFUZHW/XzgzBOIy9+hd02bMJFJSHGCCQ69fN0WJwFJApKNgPTFF/YwYglIHerzwyMiXJizEwAJe1j32tsZ4EChAZ6wAT564cH9+6Y8UMvbYGYIx2r0tlQ4IHGejH19b7T7tO/k/x0DSKgQpBUYYI0YPpzSJk5UQlh4uKGyA2+I3nVu3hzWUYebD+nq5MMaxfNnz5gaut7zPomTgCQByUZAsmvvpKcDUr9+/W2RkJwKSOBN4JWwaQcFhJaW4+we/7XBWyUDlA83EitKSmjP7j1KWLZkCcXHxxt6UOgK33QUIHWlIXrPAuAqysuZBIT11Js3fmTS16VL39OD+z8xVckbP/xAdhkq1auD2zgJSBKQbAKk06dO2sKEAWpff/W1i2TQk/aQvv22ry20+PprVzo4QUIS+QqWyxITEz2SgsTnnXQf0IDECQ3T6KtWrqQdO3YoYdu2bUwjxO8WHCQgSUCyCZDqamttYcJcyuLLM/zakwDJrj2knqDUwPlcIFx7BSA5uqMkIDkGkLxd2vDH+NJTatiwbp2tgKQ9MCkBqeMsktMkJH+Mv+56pwQkL2antnaGBCTHAJKt/drN4wqGT9vazlFr60kl5M/LtxWQdu7YqZSN91RX1zpyWUhPy45LeXZc286eVS1fSkDqPmvqEpC6mXG4ZXJ+BqSZM2fKg7E90FIDxhW0m2CNhAfsmX719de2BRwc52Wzaz9jq9Fux3k3fmdaQDp10r69NACaVlKUgCQByZEzM1s+Qj8DkrRl1zNt2dky9roRJHxZPy0grbd56RK24vg+Gq4SkCQgSUDSGF+VxlU3Wl7qs2Kp4dq1q4E7xgIEeIxAbv269VS+tlwJKclj6MOPPrItLFq0SCkb71m0sNjWszdG7eqN8XLJzt8fq5SQLAPLH36wDkJiXiuA1NP8IfVGZiXb3H2SiVNoKwFJApLcQ+qBDvqcwkBkPQIfJHzZxxKQJCBJQJKAJJcr/c0H5PvZGJSA5O+B4Oclu4yMDAlI99pp65bNkin7+1uQ7+/1Y1ACkgM+gsQRw2lm5gSamz2VFs7LpUX5ubS2dBlVrFquCosL86hwdjbNSBtL8SNjbBm88XFxEpDutdO6igpb6OnL5Q35LrlcFmhjwLGANGDgQOKhq0THeQr4nc/OyqK5c+awkJiURMOGDfM7E+rXrx8dOXzELSjAX48YylevsqXuEpA66CoBSTL3rvIZ+XzXx5CjAAnuyxcWFTGXwXAbwQPcSBTm5zPHU552OnyGwEz7+/fvmJFVOONDgMn2169f0eqV9jB2T+vF80tA8k5zTtSic3dvRctu4YIiWwCe96u8dp05SRr6n4bwHzdtyhRau2YNbVi/gcpWr6bJmZk0qJtcuDsCkBLi46nRjf8NHEiDDw641LVqnRtEu3XzJgOeObm5NHLkSObYD04BU1NTmQ96gJNVV7/d8YFIQHIGIM3Ny5OA5IDl6+74xmSZngHb4MGDqaSkhHAg+OKFC6pDwfyA8IXz56n5YBMtLFpIWIGyi8Z+BSSYPlm+rES3wbzhelcQwwqILJi/gN68fk1jx441JNixo0eZD3q7COppOQAkdOzNmzc9CmtXrTRskyd1iIqKUi0FisuC/P7VzWbVWaFVE/+ceGhYMlCV5k5a8Ue6FQlJApJnTMuTMSbz9hzawpv20SNHPOLJDXX1lJyUZAs/8hsgwTbW9m3bDBsOaehES4uL91gRoEqXLzclwu7duwmGEc0+iPS0NLaEh/0qs3zdlda3b1+aXzif1qxZ41HImjbNlvqGhoZKQLrXTmlpE22hZ3eNE1luz2HqPbWvcmfPNuTHIt81up88aVKXvyG/ARIc52kbBpe5+/bto7GpqaqGTRg/gS3VQTLSPgMJy2gA7G9soGNHjxim47mRMSMYIOFqVE4gx0tA6lBqGDd+XK/s/0Ae27Jt1kE8MyPDhbeC18JQ7d49eyl7xgwlwO/WmdOndfMnJiR06TvyCyCNGjnSRfKBG97ZMzNoUkYCZaa7hknpCTQ7O50pOmhBKTY2VpcIEpDcD0gJSB2AlKKZBElm5n7sSBoFBo2GR0aSdrKPvSN4ou3fX9/CO1aU4Mpcy4uxqtWVceFzQEJDUGmxIa0tx6kgdwzNy4k1DTnTY2hcahgdPHBA9TwUImB6X0uI+rpaevLkMZ05c9owYGkQig2Rw4e7PK8tLxD/f/vtt3LJ7l47jTaY1ARin8s2BQaQ2NGP4Jv1dXUqfgrpZ9mi6aa8GLw6N2sU5eVmuoDZ1s3eHzL3OSAlJSWppCM0vmpXEe3clE0FufGGRJg5LZoSYgdQfGx/io+PdyFCcnKyC6BMmzaNbdC1HD9OZmHf3r0uz9rR2T2lDK68YHTtDUoNOKfWU/pL1lMCinYMDB06lCLCI5QAdW1tHr3/iYmJKjCCoFBftZq2VpgDUs6MEZScOJjiRven4kULXcoI9fKMp88BadOGjarKb9+2hZprC1nYuTGbFsxNoMK8eFWYNzuWEuJ+BaPYDhESevGilLW4uNhSB+h1Sm+Pg5RoBEaI7w2AFB4eLsdPDxNS3i8AACAASURBVFX7xrJzSEiIEqC5+vU339gWhgwZqpSN9wQHBztmrMCf2fWrV9kqDz9jya9Q6EpJSTGtK/imyEc3b9qk8ONNa6dR4Zx4KsiNcwnJCYOYcABA6tuvL9VUV6vKme6l0pXPAUlsPO4njh+rEADAVLpkHC1dmKIKRfmJHZIRpKNfAQmq3GJZ1VVVuoSHjry7oLfc15tAqrm5udcDEphab+rzQGrrjRs/0rWrV5UwJTPTVlfuOI8jlt90oIkGdtPBUE/6JTM9gwHR48ePaG1ZGS0qWqiEXTt3svOXMAiAFSWjcvc3Nqr4KPgqFxBwLSlOVfFizpvZSlVsfyYhAZByZ+eqyqmq1OfHRvXg8T4FJIiVIoicam2lkJAhKgJYBSQwELEsbMrxRvHrvLlz6cGD+27D/Z9+IqsiLi87kK4bN2zo9YCEw4CB1Ke9qS1aj7GY5cP1uF1Bu+ftBI+xAwcOZHwNVmxwr9ff4JHPnz2jH65d102HJCnyUNzjO/AGkMKGDVOVBaUIvTq5i/MrIB3Yv5+Cg70DJDRMS0xtY6F9V1VZqRsgUT19+oTNMEA8nIvSPt9b/mMZAgdk9UJiQizFj4qikZGhnSG8H43kIWJQZ7yYx0H3o6LDKD52lG77eJt7S18HYju1gAS+YBcYoRytBpoTAAl2OF+9eknp6emmfCs3J4fxOAgD2r4PCwvT5aHeABLK1vJjmILTvtPdf11AGhUzghJi46j9bjsZ/dwVrJeulZCOHzvmNSChsVoC6L1TLw6mg6CpB3t2e/bsprAwuX+gRycZJzfPe8IY0AOkzz773DZQ0vIZRwBSWBhbkhPNqC1csIAt3Yl9NnXSZAZImHSK8bjXAhLOgSLeLkDyZtVBF5CCg4bQsKHBdP/+fSM8cmmctrF6/yFaajs3dtQIFQGsLtmNHj1aVRYARu+dYhxE1Ly8PHr96hXdvHmDxpuYFBKfk/eSMcsx4NwxoAdIffp8YQsgDY+IUPEZ8C8nABIm98+ePaX8/HyF7504fpywDcLHKlZ9oLCEoy88Trxib13LjzHR9waQIjR00ttCEd9tdK8LSIYoJCQYFegufu/uPSoirCxdrhCgYW8elZVk0Opl6apQungijUns0OrgSg2wCi4Ss2yVudXuwUFBhIH77t1bqtpXqdtB7uou053LlGTf9N6+0QOkL74IbEDCeD925Chb5SmYN4+GBgczMOKABKWLhvp6lp47K8eQ32nPIE2YMEHhxwerC2h58VhdpQau9cy17HJyclT8eM/uPYbvNPtWfQ5IaRMnqirecvwYI0DjvjxaV5pBFaXpumH10gmUFD+QadlBFDz5bwoRIiAZ2VHCLKBkWQkzsnrzxg2CZGVGEJnWexmb7Pue2fd6gNS//4CAlpAwVsHbmg4eZEtyXNX7cFMT428ly5bRs6dPaUxysq7RAD7WF8yfr+Kj0M6DhHSgKp/WrTTmx6XF4ykxboCiZQfjBCI/npSZ6RWf9TkgQYf/XFubqvJNB6qpwgSMOEgBlFKSBtPWLVtUz0PfXm8DLWwYNu0u0s8/v6ed27dT3OhYiomKdgl6G368w+S1ZzIp2W+9p9/0AOmrL7+yBZA+/vgTFa8B03XCkp04vmOiYygzM5Ngj47zQRxlsaI5nJCQ4NK+mr1ltH5Vpq5gwHkxrisWjaOEuIG0etVKlzJCvDxG4XNAAiHnzZ2nagDWOav3baOcrCSamjnSMOTMSKLaavWSHwbIjOnTddF47549qtkDn0Vor/futdOAAQN0yxA7Xt73HiYn+7rn9LUeINm1hwQtO3Hm70RAAvCMHzeesrKylDAmeYwlngbgAp8U29h29gxtLC+i/NljaJ5JKMhNpU3rlrpoIeIYibffj18ACZXVrl2CIFiGmzplCoWGDlPUsLExBxXHKZMn61qYhcgKZQU9AkDyGT1ylNsAbRO952Vcz2FKsq96b1/pAdLnn9unZYcJs8iwnSIhAUxWlq6kt2/esIk3tIafPnnMVoQw6caxljm5s9060IOWMVaZxDaizcWLFjFNPO23hfdGRkXROh2PDTgXpc3vyX+/ARIkEtiXE4ng6f3xo0e71HhPCCXz9l6GJ/ve2X2vB0h2nkNqPXFCxaecAkhNTU0MiHB8Rus+J33iRLrX3s7S586Z45ZPYq/JiP82NzXR/IJCQjlF8+czlxRGeY08L1j9hvwGSKggJJ8D+9WWu40aqo2vqaoiq3s/qWNSaNSIDn9HE8aPpytXrrBw9uxZtulnlVgyn7MZk+yf3tk/WkDCElSgA1JwSAi9ePGcFi9ebAg2/fr1p+rKSnr58oWl5bupkycbgpKW/+r9H2fDMRq/AhIYyKDBg2l+YaGh73ZtwyFa5s+bZ2guQ2RK2OA7eeIEE2GB7EirqKigR48eErRCbvz4I1MDl4ZZeycjE8eKvO+5Y0ALSIsXLbIVkLAtIPIhJ0hIw349GOtOazglOZlJSXoHY/XGPJQcYEFHbK+7e2jmxcTEGAKj3nuM4vwOSLxisLYMVUVYjdWqdMN5X+W+fWxN05PTv2Vlq5l5jTxBZAUgwT8Sfy/KffjggSOMJfI6yWvPZY6y73zfd3H/ZlUmdtRoJQwaOIg+/ewz20JUZJRSNt4zcsRI6qvjf82XfR8cHEIvnj+npUuWGKp1Q/UdBgMgIXliGm3QoEGUn1/A9vlhVk0PkGDVAebXZsyYYfh+b+jhGEDSVh4bZzHR0V1qbGvrCYKlXrHssrIyphzB4yBFYQMwM8M7vXlejrz6nhFJmkua9+YxUFdTyw6+HmjcT9iKgJSCAN9eU6ZMoVOtHatDs00OxrqjX9DgwaxsaEavWL6CWfVOTUmxtELlrmy9dMcCkl5lPY2D87/a2loVIEHCSohTm2N//foVTZ+mrzru6Ttlfskk5RiQY8BXYwD267THWPh/mEhLTkhU8T9f1cvb9wQ0IEE6wp6TGXHS09JYh8bHxpnmMytDpkkGJMeAHAP+GgPYh4+Ojqak5GQW4uLjCQakPVmm81fdte8NaEAqyC8gOKjavWuXi0YelgRh3gKHYi9fuiTBqId6C9UOaPlfAoMcAz13DAQ0IGFg7tyxQxFpb9+6SVcuX2aBi7XQtINmiRzEPXcQy76TfSfHQGCMgYAHJAxU2M+rWLuWgRMACmHHtm00OTPT79oy8kMKjA9J9qPsRzkGuj4GegUgyYHS9YEiaShpKMeAHAPdPQYkIMm9E7lcadMYmDRpEu0/cFAJojfPyOHDlXjkmZmdrdAdthTF54oWLlTSwAC2bN2qpNfU1qlsN86fP19JQxmwfsKZBk7Oi+XGx3dql7p7Jy9DXiUI+XIMSECyiRn5stPku5zJJGbPnk1Xr/+ghJSUFAUcRo4YocQjT9GCBUoaNKLE58rLK5Q09HXzoUNK+vmL36m0p8pWlylpKGP48OHKs5MnT1aljU1NVdLcvVOOMWeOsUDvFwlIEpAUJhXog7272ycBSTLx7h5jgV6+BCQJSBKQbBoDEpAkIAU6YHR3+yQg2cSMurujZPnOZ3YSkJzfR/I7cnYfSUCSgCQlJJvGgAQkZzM7CUbO7x9HAhKszUILCAdWIyIiyBML3z1x0E2bOpWdi9q1Ywf1lDB50iQJZBogk4DkfIbXE/lDb6qzYwAJwJM7ezbV19bqmjuvra5hBlBDQ0MDihHChBE8PuqZeHdyXH1dfUD1g95H/9VXX9GXHoTMzEyVmjV81fDnMb5FFezsrCwlDWNaTCsqKlLS8PyWLZ1q37W1dYzuvNzCwkLVs/B7w9NSU1NVaXGxsUqau3fyMsyuX3/zjd/GwODBAykxfrgqJCdFU0ZGRreECRNSVe/i79YbN4EQB76E8Ts7J4e2bN5MdbW1Sti4fj1lZWXRiF+dntrZXr8DUv8BA6gwP5+0fuvNmDH8G+E5Ownhr7LQ8V115W5Gq+5KgxMvf9HMV+/9/e9/T3//9x/IYECDr77+2m9jYGxKDF09u0ITyuhf/uWfuyU8aL+keVfHu301Fn31nm+//ZZwfu7YkSOWJsnwtwRfdnbVz6+ANGTIEDrU3Gyp4VrGWltTS/3797eNEHYR1NNyJCA5d5lHApI5GDsOkNoASP/CbFf+0z/9E2nDH/7wT4pdS9iy1Kar//+jKu/99u97BSCtKi0lON/T8luz/+fa2mje3Lm28GK/AdLQoUNJ6xpYbHTTgYNMRIQLCTFevD+w/0CPl5QkIPVsQPrkk09owMCBFDRkCGGJrzdJVE4DpGttq+n1yzv0+P45evLgAj19+D29eHZTBSzcqLKn194ASFu3bDHktSLfNbqH91pPJ+Ta/H4DpMaGBpfG729spFkzZ5LW/zvWu3NycnSlqdrqahrQg5fvJCD1XEACAMWMGME8dMJLJwLG7gcf9I6lPicC0stn1+lhe6sSHv10ll49v0uvXz2g9+9eMnDCst4///M/0x/+8AcW/vEf1dKQHlgFMiDBHXv5mjUu/BjAs3HDBpo6dSrz3g2zVCNHjqSsGTNo185duvkXacxeaQHH3X+/ANLcOXNUjcH+UWN9FWVPH0MzpiQYhqypSdRQX616FkSbOmWKx8gMkIOZFcxu3RGpO9MlIPVMQPrww49UQMQBCdcvv/yyV0hKTgOkq22rFCACKN240kxXLzbRzeun6db1k3Tnx+P00+1WevXiDv3hn35hy3v/+q//StqlvN4GSOPHjXPZw285dpSypk2g1ORow5CfN53Onj6t4sdwiDosLMxrnupzQBoydCjz4iqKfUcPH6DCOQk0LyfWMMydNZqypkRRfGx/5j5CfB73AwcN0iUCfM3DB9KdW7cpKTGJAAAVa9YqYvzLFy8oJjpG99nuBCJetgSknglIn372mSEghYSGSEDSqMTz8W7XNW38KJ09nVV0+4ejdPNaC139/jBd/e4w3blxTvnWATSvXz1nAHX3x2P0/t0TsgpITx5c1XnfCr/xDbvoCK+yZzSgcrj5oCEfFnn0rOkxlJwY5PL8qZMnGZ/1po4+B6Tp06er0Pj4saN0oLqQDlTl06KCZENCTJ80nIERACkoKIhOtbaqkBkqt1oCwKLyu3dv6e3bN3T75i3mPXbfnj0sbkFBIWVNn07t7Xfp6pXLLs9qy+qu/xKQeiggfWoMSMEhwRKQuhmQMtPjXQDi2rm19P79G/r553f0yy8/q4BIlHqg+HD7hxP09NE1+sMf/oF+ft+xlCfm0d4/f/KDy/ug5dddfMFX5QIAxMk9FBTq9iykml1zDHkxQClrSjQlxA2guNH9KSE+TlUGyouKivKKNj4HJLgTFwmweuUKaq4tZKF+71xaWpRKiwrHqML8uYkKGAGQ0Fkwu68qZ9UqFwI0NzfRuXNtyh7T0sWL2SDdsH6dkjcmJobFjUlOVuJ8NRjwHglIPROQfv/7Dw0lpD5ffCEByQ+AdP1858qHFlDE/5CK/uGXd/T29RN6dO8UYZ/p0U8X6fmT6/T2zVP6+ee39PLZLXr+5Bo9fXSJnjy4SPduHHQ0IEFjOSYqWgmYtFvhYxXl5So+uri4WOHH+7blUNG8RFowN8ElJMYPZDwZgNS3X1+XVat8L7XufApIODskggju42JHKgQAMJUuGUdLF6aoQlG+KyDFxsaqympuanLpAIiia9esUeL79evHwGf6tOlKHDrtzp3b7NCtlQ60O48EpJ4JSNCm+/zzPhQVHa0AExQcsCT9wQfm6tKBoonnzz0kPQnpxqUdhlKRCEhPnz4hhPv3rlP77Qt05+YFut9+le7euki3rh+ne7dO04O7nYoR2I+6+0OdIwEJB1cvffe9brtPtp6gzIwMFa/T8i/toXwchuUCAq4lxakqXsx5MwQDBA5I6WlpKn6M80nad1n5rwtIv/zyC0HzxOxnpXBtHqh6i4AEYgQHD1ERwCogYUYgloV77ftOtLTQ4cOHVfH37rUT9pV43qFDg1lnZqabdxzPb/dVAlLPBSQACzTqcJgQmp7YVwoUsLHSDqcB0oMH7bqMWQQjK/dPH9+lG9eOsiU9rrHnRECalZ3N2vvjjz/QytJSmjVzlhI2rFtHd27fpp9/fk9jx45T+J3Iv/R4KDTuvAEko7LE91m51wWkv/jdnxHCjz/+aIhJVgrX5tECEk77ewtIKNsdIK1evZp12PatW3U7BGVcvHCBnjx+bJiubYPd/yUg9WxAssK4AzWP0wDp4aOHtgDSL7+8p+fP79CP7afoTvspprl394d6R0lIsPf56NFDOnZEPeEW+RMUvQDA7Xfu6vI32AvV46HeABLeqy0L/F6sj5V7XUCakzOb5hcU0D/88ku3AhI20LwFpKHBwS4E0Da4b79+tLasjKBJp6eFBzBCh82cOdNjwmnf5e1/CUiBDUiQoLCMFxUdxc4sYc8Sxw1gI44DFcbp4KAg5T/GNpg9Tze6fvnlVzQ8MpJwOFebJ2L4cIqMilIFnCP5/YcfKnmxDxYeEUHRMTFs2RFX/Ee8tjy9/04EpPfv3zMlJigydSU8ffmMjt063RFunqKWW6fp5vXjLqDk7Xff1efQl69evaSJEyea8i4oboHHBQcHu+TrbkAa6MWRGl1AMkQhIcEbgkIc1KLouNQxKhHR6pLd+PHjVWVV7tvnQnB3dcTGHzrWXb7uTJeA5D9Agsbnrt27DQMYvh4j9iQOy3k4mwQzV5999hl93qcPhYWHEYAJZ5lQFgALwMLLBWD17z9A+c/jtVeAB8qGLTExDSCIeFjJ79PnC/riiy8I+6fY4woO6VRJB2gBhL766mv69NPP6Ouvv2H/raqtV6xbb0i7RYsWdet3FRcbRVW7lqhCdWUlnTzRSq0tJ7ocsNxfeaRWCfsO1dDunRtV79u2Pr9b22jGd3DW5/XrV5QQn6DUYfmyZbS+okL5j+enTZ7CAElrbABp4D1aM0EAKW8kpNjRo1X8+GRrq6oeZm0R03wKSHjxuooKVcW3b92sEKByWw6tXZ5Ba0rSVWH1sjTlDBLXsltTVqYqp7iLJ4RFovjyXgKS/wCpuHgxXb3+g2Ho27efitGLTN/qPRgHwEHMDykFoPTxxx2SjTeA9NlnnytAh/I5uOE9HJAwARTfi3V+Xhe8G/fffPONKg8UNcCUUIb4rN79idaThrQD0PvyO+pt70JfQjGjWAD+E8ePs+MwnBaQUM63tdH9n+4Zngvas3u3io9iksYBqWbnHCormUCrlrmGtHEhKqUG7GGJwgb4M6+HJ1efA1JyUpLqHBI04Rqriqhm52yqKE03DOUr0mlSWhgjAsyei43HfUpKigsBIP2sK6+gzZs2mYbFi4oJH68nhLMrrwSkwAYkWAQB4zdbBvMGkAYNHkThEeH00Ucfs/IhBXHQMAKkocFDKTKqQxLjgIRVAv6cp1cJSP4bu+A/tTU1TPqBC5Kk5GQ6f65NASQs0cEUG85jZc+YYcjb5mis5mBf/0BVIdXvyTPkxeDTZcsm0riUoUzLbnDQYIJEKfLkZC+P0fgckGCq5+yZM6rKnzl9kspXZJgSAEQAKGVMGOZi0+6oRpOOg0Vl5T7WYe40ay5eOG/YYbys7rpKQPLfR+0LCQlAAUBCGDBwgEqS4QDgDSBhuQ5LcihjeORwEpfZOCBh47tPnz7M6CvegTrgP38vJmyIA0hhaZHHW71KQPLf2OX8CG4iRP526OBBxstKV6ygJ08eU3JCoilvw3KvCCS4b6zb7ZYXgx+vXZ5GyQmDqengAZcysCfK6+jJ1eeAhMrFjlafIQIRTp5ooQnjx9Cw0CDDkDomnlpPqJEYz+JMkl6jR8TE0OtXr6iuplY3Xe8ZX8dJQPLfR40lDcwkjYK4DGaVSevl+/zzz5l9LzB/7ONA2aBfv/4KAHgKSJ99/jkrB8treB9ABmVDWsJ/DkiIE0PMiBgaOHCQ8l6cl8K+EQAN+bCfhH2lTz75VMmj1x4eBwvnRrTzliH5+vvr6e/DRCI0dBjbk8S+JCYhaBNWfKwanV5SXKwCFEzQa6t3U3j4EAoLCzIM0VGhdLh5v2rFC/x4xnT1OU9PaOwXQEIFtXtAaAg22DZt3Eg4ZIV1bDBrXCdlZhK8FCKPNsB/B/IZNTp/3jx6++YN02IyyuPPeAlI/gMkd/1utz+kjz76iKAowSUTABWYu6eABBAAgEAbD6q1CPj/zTcdUg4HJHEPCXFcsUFc3uPg8umnn9K33/ZloATAtALG/tSyc9d3vT0dfGX0qFGGfFGkDyYPrSdOuPBWKIlMmTyZtNpykMxzZuXQwf2uklGVF8plYl38Bkj4OHbu2OlCBC3gmP1fs3q1JYJnZmQSVGvFhjvlXgJSYAPSh4KaNWf+YPaQRjCD9RSQACywDhEWFs58MEFKQQCIhISGsvL0AIm/G8tzXFmDK1XwNFyhCQhwg9KEGK93LwHJf2MXVm9u37pFdTU1bNKu5WdwEYGlvO8uXLCkSYxJzrGjR3X5MQSF6qoq2rB+PdXV1rGzm3p8GXtWULbQ1sWT/34DJF5JSDg4D6TXQKM4nF9atnSpVw0HMEHERQgODvGqDF53O64SkPz3UY8aNYqZjIIpKb0AVWg9Rmw1joFHVJSy18Of44DE9208kZAgyWDZD+rcvDxcMa4BJFi2MwIkpAEIMW5hVQLlAIDEcrBch3KstD0jPUOXbqBlqo6SkR3fiyyj43vBJARadm/evKZrV69QRESECy/LzspiZ5XMDs+K9IRq+JHDhz3ixZxHw1RQV8EIdfE7IKES0dHRBJDhjTO7QoEBa6UiIc3uQ4KD6cjhQ7R9yxb2TElJCdPfhw4/9pcglsIEu1kZ3ZkmAcl/gOQLpQZ+Dgnadlgqg6+kiOERDAz4gVY9QAKDEfdnBg3qUGCAphwAQ09rD98FFCc4IMHqOFYisOQCZgMwwrf24Ucd559w9gmgBI09LB8C1PAfeazY45NKDf4buxyQCgoK6Pq1q/TgwX3CGNPyqtkzZzFNO/BBbZref0he69ets8SLwafhy27J4sW28VBHABIIA8YMb4Rz8/Joz+49CkHg8AkWwhGPjwX59AipF5eYmMhmES9ePCeoiiNPRUUFXblymTIyMmjZkiWEtLq6Ostl6r2nK3ESkPz3UfsCkAAOmPAADAAkCDibJEomACmMIS6pAFSwdyoGLMcBhKClauQAEMDCLUCAYYnP4x7PYh+LvwcSE/ah8F2hXqgjZrl6y4z8GfEqAcl/Y5cDUvbMmeywM4xLY5Kttck5LiWVLd3pHYw141uRkZFUWFBA8G2kJyAcam6mObm5FGqzYQHHAJIZcbxNw7onDAyKoiQA6cyZ0woA5ebMpvfv3lHk8OFKnLfv8+Y5CUj++6h9AUgiA8dSnZ5kI+bx170IVFbrIAHJf2NXBCTwnUGDB9PWLVuYNFS+di2TlqL+TQK+eeNHttfkyURey8cAZrACzoM3Nuq0ZRr9D2hAwqHb+nq19LNw4UI6fOiQCnzev38n3U/oaDDqzYx4HA7QGQ2qnhIfEx1N6enphsGq+rNVBh5o+caOHWtIu4SETpM2PWU89KR6agEJdQforFmzhl6+fKGcTWJSkxsXFE5qd8ADUp0GkLTExxo7tFGmTZnqFwYrJST/zTK1Y0H7326170ADJKll57+xC74Be3F8K0Icu2HDhlHZ6tW0ZdNmtncopjn9PqABqb6ultrv3jEFGthgAiBZ3fSzu0MlIPnvo3bXlxKQzB0NSkBy7th1N7admh7QgAQLDgCbe+13qWTpUkpKSKTRI0exgL2jU6dOMrXJfXv3moKW2Hn4CL/+5hvbAsretnUrVVVW9qgATRw76YCyfM3ggocOJSzbGQVu+aCrkg2ADZp0YeHhTNEAlr/FMtF2bA4jYL0eUjuUIXiejz/uUD7A88ijp5KNPQTtuSKcN8J5JShRfK1xZ4G24V2szNBQpmXH32f1CqvkRrSDEoX43ch7CV5WxkBAAxIIMHnSJLp86Xu22QdwEgPWV7dv26brK8mIeH/9N3/NNJmgzSSDfTT44ssv6a//5m98ysR8odQARQYcZIVJHpjtwSl3qGdjY5gzfq55h30BABcOucJWHdKhBAH1bDB4qORC2w7P8/0tgBN3Q4HneZn8PfADhnho0nENPKh9oz6wOI4yQ4eFMg07LaDxsoyuUqlBgowRn/Q2PuABiRMmPCyMxo8bx5QXpk6ZSiOiYzxSIefl/O7PfkeYsUowsg+MGKP84AP67W9/G3CABBVugAGAiTN22J5DHD+HBEASzfwAGJCOM0xfffUVAzT+PM4HAeBwZgjlQcLBeSUADK6Ig8YcyhSlIqiEQ60bkhdcTgD0eH1wBehZ8cEkPuMUQGpvv0t37txWwrFjzVRVudO2cP36VaVsvKetrc3FnA7nD/LaNZDuNYBk10ABICHA0ZoEJXtAqc8XX9Cf/Pa3AQlIAAqY5xcZOe4hEfJlOS0gIR1WmLkUpZVcACY42ySWyYEJcdxXkqjKjSU6DoIANdHqN57BYV3tUqJYvt69UwDp/v2fqP1euxJu3rpBLS0HbQt37t5WysZ7WlpaCAeV7eIpspxOEJOA9G0nMawMDA5If/u3fysByaZlyz//87+g3/zmNz4HpLGpqeyUOU6a6wUt09Zjyu7iADbcZp1RXi0gAUiYhKRxsIfnMQnqABa1RW4RkCABoUxRKQNLf5CQ9PafMO6xDOjpnll+fr4u3UDLrlh8tvIdinm0gATQOHGiyTZAutt+VwKSh3xS7B9P7iUgeUhoDki4/v7D30tQ6iIoffD73zMw8gcguftQRIZuBCbu4q0CUnh4BLOagD0inJKHZMUlKP4OWHcAcIhLcTxND5B4Gq5GgASbdmwJUAf8xOf17n2thGLUX3qAdPLkIdsASZS+pITk2QTeqM+M4iUgdQGQ/vZ//S1jGmAcMpjT4O/+7u9IL/zlX/6lBKSRI5nGGxQMEOAGgu8Zj0I+ZwAAIABJREFUcSDAfhOAgzvl4/H8qgdIolUImAOCZCVKSFBuMCuTl210dTYgHbYFkM6cPqaSjiQgSUBy1FqtKCFh2c7oY5Xx5mdYOH3+6q/+ym+AhD0TqEsbBZGh8/p6eu1Q5+5wCyE+C823jz7ucKinXbIT8+Ee9YDqNsrSpvH/IiBxi93i3hPiAEh8WQ5lQgqDbyatJMbLdHeFbTwj2iHNaBZsd7yehHT69FFbAKntbIsEJA8n7V3pXykheUhsCUjWgMYdM+Pp/gQkX6h9wyMrAIeraaPd2OMRwcEdIOG8EF/C45I4px+/ioAEsEH5XJrCM1ANFzXrYFQV/5HXqExettHVqUoNkGJOnrRHQjp75rgEJA95ZMABUnxcHGXPmKEEuCLvSiPtfFYCkgQkIwatFw+NNoABAAIAgIB7HH7l+aFswFTf/96VttjHwr4R8mB5jYegoCDleZQDSQdGhHmZcHXB34ln8DxfBsSyHUAQ6bw8XAFS/Hkr194ASNDWk3tI3btMJ/JnR0hIMJ+DA6y7du4kGETlBjzF6+lTp2jH9u2Ulpbm0fmhqKgoKi8vp9raWhqXOtYF2OCDvr621rI/DwlIrkzTCvMyyhPoEhJvNxzqMcsWX3+j2sdBOl9G43m1VwAInheDqNKN/JB0tG4j4MwPEhr2erTvQJpYHu5xvk77brP/Tgak1lap1CAyek/vIV0X5BfQnt27Ca4mRF4MVxc7t2+n3Nmz2VEBT8s2y+93QIIzMACR2GB39wAmAI1Zw5AWHx9Pjx8/Yu4l4IYCVhrgkgLE5s+OjBnB4nHlcWZXCUiBA0gzs2dSTU2tYfjqq689YtBmzDsQ07Zs3WpIu2XLSix9T2bfmtU0vT2kEyeabdlD6m0SEiboC4uKLDtMhaCQM2sWU8ax2l9m+fwKSOlpaQQHfO4ASC8dlm7j4uJMB31dXS3zBTL0Vz/vBfn59OjRQ+blEKfaQRgJSPYCjKeM158SktmHgTQ71L49pUdPyu9kLTt7D8beUS3bBerBWCz7NjY0eMWPd2zbxg5yu/um3KX7DZBg+FQPaBB39swZ2rJ5C82dM4c2bthgCFpY3gOiGzUS6Zs2blKlR4RH0MsXL+jZs6fMg6Y/AQmeP/WYHjaZAZiilpTIqLAvAVfWcDstxoMOkByxPwD7ZOJGOs+HsiEhogwex68wVaP3TrxHlBY+/7wPO+yJA59i0Dsfw8s2ukpAcu0HI1o5Ld6pgHTr9k3bpCMAW2+x1HD86FFDnmzEq8X4hvp6Fa814stm8X4DpJbjx10av2njRmYyBXtKYqXxH4xWb2kPoAMVWjE/v29tPUG1tTUuaZgJ/PDDdXry+DHl5831y5IdPma+qYz1f5HZ4D9AhWtJiWm4h9kZpA8cOJA9B3CBlhXKCw4JZs9BKwv/YeKIPw/AweY14kXrAdhPgC0zlAn1Yp4fV6gaIz82xXk81KWRTww4zIl8fOOc53V3lYDUCUiYnODwK7dx54522nQ8qzeh0ObT/sfECP2P/sMYQF/DdJG7vnQqIF27dslWQALAiYoNgSYhQUVfu0/EgQZ7++CXXI0fVyjp5M+b58K/8Qy2Uzj/9ebqF0DavnWrqjEXzp+n1Svm0dxZCTR3VrxpKF6YS8jPCYZr6YoVukRYvWoVvXjxnNZVVDBjlCKBBgcF0dHDh+ndu7d+AaTg4BBF40or6XBAEjWjRCYSGhqqAiRIL2AkohTDpKxf1YX//oMP2Ol+aGsB5JAXkiXK5OdTuGoxBhvi8TxABi4GoNGFZ8Q6aO87ztsYn5PR5uf//QlI06dPp127dxuGL7/8yrTNvA1mVzB70I6HqOgodghWBB0uEXNAQN6IiAhF+QHjAdp5vAx+xQQD7/7s8887xlJMDMsDBsLrhH7m+cUrtwyOsjHZw4QGki8UKCDpYuLC8/CytNeKdesNabdo0SLdb1L8Bu26Rz9OnTpNCRkZ6ZQ6NsW2MGlSOk2Z3BnGjUtx4Sd2tcUf5czNm8u2MUSeunf3dsqeGk9TM0cahrxZqVRduVfFiy9euEATx4/3uu99DkiYeZ0/d07ViKo9FbR80TialxNrGPJmjqYJY4MpPrY/FS9apHoehAQj1XYmLCJDjPzll59pafFil3TkLytbTVcuX7JsvdcOpQYwAYANJA1IMgAY8WPngAQGpTWiyczH/DqT5RISGBOYjXZGi3KgPYWyoYGFZ3nZHJCQBhVhXMGUOCDxeJj24eUjTi98/AmsU8cwbS69dLM4fwKSL84hcbtykFwQAFBwJdEx2eiQjKECjv9IA62QD2NieORw9h+TBvQv+omXgyvyos+RhkkDgA1AB/Dilr8RJz6Dd2BcQfsOz0NSxvMiQCKeS9N4Hv/1glO07LTffW/6j4lkcXEx0xSGlMNDbXUNwdYgxpYZPTAWRSDC/YGGvbRkQaohLwafnjtrNGVODKOEuEGMx2rLgNsTs/capfkckObm5akIsL+xgZprC1noAKU4mpejDnNzYmniuBAGRgAkNEYrYmZlZXlFACPCGMXbAUicAeFjx7IHGAJnMPjwOWiAKYkAgTQwHiyV4RkOSJCwwGQgzYB54Xk9BiKWLQISz6sFJB7vDpBQR0hTevtSvAyja28BJLH9UMFGf8G1BOKxXAY/SGIejAdMVtCXHJCwtCrmwT0mHBgLohr4N9/oT1CQH30lvguSEJiStlz8d6cGLgHJd+dz9PhRcEgI/XSvnd6+eU1379yhmzdvKAEuOX7++T09uH/fVNkAfFMEE2ylNFYW0oGqfFqYn2QISgAj8OK40f0pJHgoQdtOLCc+IcErfuxzQMIymVjx+QVzFUACMJUuGUdLF6aoQlF+ogJGHJBmzZqlKmfDunVuCQBvsanJY1jQ62ArcXYAEgCFH0IEKGF2jJk0ZwockDizwZ4RTwMD4bNuDkhI43FgTghgPOL+EX+el20XIGGGDuYKJsjf4cm1NwIS6MOXxND/6C9Ir0Z0MwMk+FHC8+KzADPEiXbrkI6JEOJF8EI9RIASy3F3LwHJf4CEfr93r51tN8SOHq3L+8aPH8/SG+vrdNPB73ZrjtzMyc1V8eOS4lQVL+a8GXyYA1Lffn0J2yMiX1+9cpXhO834rE8BCbN7sdK4Dw8PVRHAKiBhRi6WdezoUV0ChIeFsz2nly9fsM7hHmOxjIcOLV7o2Vp3VwGJnbyHUsG/bSSCCSFgiQVacZwBcNAAQwHNILkgDc9ACsI9GIsISIj7/Ycds2nEc4sAfOlGW7ZdgITyURfUmb/Dk6s/AQl0Qv2NgnYJ1JN28bx8osD/8yveiYkJBw8rgIR9JYwFhGHDwthyHcYH6M/LxRWAgzgRkPjEgUtlPH9XAAl7TEa0wx6tGeORaV0DM6yegKdhYm5Gy7Vr1tDP79+zvWO9fNrtE/AXvmKFq1VASkxIUPFjaErrvc9dnC4gtZ44QWfPniWzn7uC9dLhcEwEkeaDTRQcPERFAKuABOYsloV77TuxPv7dhQv09u0bWreuglmDSEpKopSUFJo7dy5dOHeOgRSWEbXPGv3vKiD1698xSwXD0Aa+ji8CEjaaIUEhTvTqiWe1gMSZDK4APtC7Y6+i01spL9sOQOLMFDMk8d2e3PsTkIz6mMfrqeR70jbkNQIkTECw/s9paAWQIMlwY6YY25Cu0I8YC2K9sNSGOA5IyNcBYjCkqt4PAiBxaV0sw8q9U7TseH/1pismM69fv6LY2M6zmKNGjqQJ49QKBRlpaYzHYaxp6YM4LQ+FRrM3gIT9cG1Z4E/ad7r7rwtIf/G7PyMErAsa/dwVrJeuBaQD+/d7DUjY7NcSQPvOvLw8evf2LWWb7C+1nT1DVy5ftky4rgASGAMkFy0DQDyAA64HwAg4aHCGAkUQDB4sjYGBIY8ISNjs1io/IA/so3UnIGFSAIaG+lthYHp5eiMgsf6OjiZs/PK+BHPX0odrX5ot2XHAE/sAe00YH3ys9O3boTShNS2E90HqwkRH+26AMcrWxov/JSB1TcrR8itP/sNvFiSkSZMmKbzrxPHjdKq1VfmP8rZu2swASbROw9+jVWg419bGnvUGkFCmlh+D3/N3Wb3qAtK1q1fZJpkRGCHe6gvEfDD+qK30sGHBKkS2KiFBtVUsixNTfN+uXTuZRp8Yp72flDmJdRgYujZN739XAAkMQtzMFj9uDDC+NKcFJHguBYPBMgh/RgQkzETwP2hIEFvGgWYcZsmYRQEARWbFy+6qhISNebwTB3R5nby5+hOQRo0aRdOnTTcMfELgTbv4Mxww+H9csWyGcQBX4/gfEhpCYeFqxQK4dYeaPvrLDJBQR/QDHO3xdwDooPWIfseYw6REb8LSUZeO83DapTyMNXeTjYz0DEPapaakWPqe9L4xGece6NCfN278SN9/d5FNKtDnJ0+cUAAJe0w4Q4StiV079M8G2SkhoT4iP8Y96uBpX+oCkhkQ8TRPX8Tza42nTs5M8wqQMjMzVQTYs2uXS+P3NzTQsaNHXOJ5XXDttNRgzaJ4VwAJYi2Yh9bQJRgDRGUwKdyDCeGe+8tBHBQURGCB0gI2qZGGwCUoMB8EPN/B9DoZFfKhDNgPhEo8f5ZfobUDYOT/+RUzYTAn/h9XPusW47y59ycg+VLtG301YOAANklAv4hnhaC8gjjsx2DygXGCPsR/0NQMkJAO9XDkh0o33oOyuCo/+hSTEsSLgR8HwPMYS3gGS4LIMyys4zA0l9iN+lUqNbgHDpHX2H2Pb/7p0yf05s1rJi29f/9OAaSCggKmZffTvXusX43erTXdBt7gjYQ0NjVVxY+N9vSN6sHjfQ5IixYuVFW8trpKIcC2imlUviJdN+Tnximadqi81mqD3j4QVMqtA5JvjKvCS6fRB86XWJCuB1ricwAt8T/uwbiw5wTwwmFJo015o3iAFRQjtOXiv7Y+2IvA+SO9vJ7EBTogoU+xX4TlEYAQlk74eSORTug3SLSYsAD8+R4Rz6P9z+NxxfIaFAwAKgAffsYIafA+i3drA0CPl4HxgBk2Du3i/VA3h2Vy7X4Tz8+vEpD8C0jgg5hMzC8ooF07dtLO7TsIwIB49CG07LRWbzjj51doJ4uSTVFREePHTTUFtH39DMaL165IJ22YOS1apWUHE2+qchYsMBUE+Pu1V58DEhBYtLSA+707Smhr+VSqKE03DAAqHMiCqmF2draq8SDECKgeaxxJ1dfVESwBA5iMAgALmndRkZEuz2vLw/+uSEj8Q5bXzo31QAekQO5rCUj+ByQ9HuVJ3ORJk1W8FEara3YvoJ0bswx5Mfg0+HHOjBHsHFJc7Ghmf1QEJCyHe1IPntfngATE1lqUPd/WRuvKcmlFcZrbUJiXQWdOqX0m7dZZrkMDIbZCYQF7Ymbh5En1RiAnjt5VAlInmNjBbP0JSDHR0ZSenm4YIHHa0cZALWPs2LGGtEvw8mCk3jcn4zwHPkjiUOmGGrcZ/aBgpV22O3SwntYuzzQFJA5KM6aMolMnT6pAreV4i2X/ctq6+RyQUAEsP2iJAHSdMX26oQkfLClAWw62kkQkxn/YUdM2rLv+S0AKHEByN0bsUPsOVDBCu6SWnedA4W7M2ZkOHgtNPHdnwjIzMlxs2R0+dIjtJ5vVB0o3WgsNWPGC+rnZc2ZpfgEkVGhW9kwVsHCQARHXV6xjBvpwAjlt4kTasnmzLoDhGaNTymaNRtqoESMoOSGRnetwl1dM7y5AgoqvnmkYfPjY2zFLt8r0sCeAcrh2l/Y5MOCO96gVIbT5jP6j/njeE0buTwlJ7Fe9e0/aYUQTHv/FF18qpoJ4HK5cmw37N9i3EdNwD4O5kVGRFB0dw/aBtHt5yANLHtg7wt4T9qmM9gi1ZXf1vwQk/wIStGvBw4zCjKlTmZbdhnXrTQEC2nB7d+9x4ccAl3Xl5S7bGQnx8VRVWekiHIAfrykrM32X3ncmxvkNkFCJvDlzXIjAgcnKNXvGDNPGQ2MI5tAfPXyoEBWdePnSJbZvhL0jWAOHh0SRKGb3ngASmDNmEdgo1gZoP4EhsM3omBjGUJAXjAUKCZxZgGFBgwpMiW9aQxOLp/MrV+/VvgfPIw/azbXvkAfvEcvBiX9ePkuPjFQYG07+Iz8/uMvfya9YhuUb4ngW5WCz1Qpj9CcgjRwxgiZPnmwY7FD7hgo+1PlBE9BftA8H8ECf4zwXpz/6idMV4xfPYYzgHmeGtGVgtQE0x5EKKCpgiQZ9xcvozuvECRMMaZecnGz5mzL73mSaPuihr3+4fl3hY9wCjd512+YtbvsC46iuttaQH8PyAvaX9Fa2OK+G4ADt3a70mV8BCRWH11g930i8kXpXqBRCg8Rdw5cuXUJQhYT5DK5tsmL5cma5oXhRMZOumg4epCdPHiv+PtyV6QkggRlgRgsmBEbDmTr+Y/YNEAHD4TNjMHAwL35QEelgNtxOHIABmlhYotQyGoAF8kJKQfk88HxgZBh0+I93Myvjv5YDrTz2nl/dGaAeYJZgbkyb7td66FkTgFYezrxARZnP3qFyjPeJmly8HtqrPwHJF2rfWKNHvwNUQGMO6myyIhhYBV0YKAmgBfoPGTpE6Wv0C8rgoMXHh3imDNqXWN4Wjwhwmuv1H0/z5uoUpYaCuXmUP3eOEtLHp9KY+NG2hdxZ2UrZeE/e7ByFn7jjF92ZjoOn2MczC6mpqdS//wC3vBL1xL4TXPXo8Vx3cctLlhtut3hCA78DEiqLQ1XLS0qouanJkBjfXbxIh5qaCH5WYD7FSiOPHjlCx46pbdzBLBJQnj8PRopZRdqEiUocT9O7egpI/EMHcwZjEhkF7gGUPA+umAmDmfN8sLYgpqPt/ACtGM8BSU8dHPnQTl4m/oOJ4T24R93A6MR0MC/EgelxxqfH0HCgsiPfx6p6Ij4oqJOZinUV7wMdkNAvmABwi+kckAD42rNdoD8kJuQFjfCc2CfwawVaQ6JCOiYy2jJE2or3GBfobz5pENO8vXcKIEGTVnSgd7XtKJ2pWmNbuH3zB1X5geagT8vnJmVmUkNdncu+khaUsH9fXVVFSYmJlnin9j16/x0BSGLFMCucN3curSlbowScMUK8mM/KPQ7hwhU6zwvgA/hUVFQocUhDHE7s83xmVzsBSWQEYBhg/Fiaw0xZTMM90nGGCZKNOCPm+dwBEs/HrwBHbsIIByCNAAn7TWaAhLrgWV6up9dAByRODy0gAUggNfF0fsWyHJeAeByACf0PSRkSNQc1TE6wNIr//AwTlu70lko5IEFy5uV29epUQLp756ZtYARgu+Ngj7FYLcHyP3gWJreY6GAMYKke3zUmuGb8zCxtREwMW13CitSJlhamTYfVLEz0ly8rYT67zJ73Js1xgORNI4yeASGPHD6sdMiCwkIGPnGxsUpcdGQUi4OmiVE5Ynx3ABKYOhgUZrAYUFpGAQaFdCyNMRDRGMhEfg5IWO7jAZIUmJm2PLyvg7F1qDXjUCZAhZuPwaycMzgs5wUqIEHtOyM93TDYqfYtAhLoi742AiRtPCYPOL+HPhMP1QKQUA7iMYnBkgv+I7+2z7sDkMaNHWtIO1h/Fr+b7rzXSkiQls7WVNgGSnfb7zpSQpo4fgK9evWSWltaGK1nZWXT61cvmfWGJ48f04MH9+mnn+7RKi9dQfA+w74Qlvsx3gByfPuDp9t5DWhAKi0tZftF27dtY6eZHz9+xJYEOQFBZKgtQrEByyA83uzaHYAE0MCeAvZewiPC2R6RuFTD02HuBTNiLtmITIcDEtqEJTgEaM9oAYnPsgFC4vPYdwBjA5gB/PAOgBQULAIVkMz6GWla2on08vS+K4AE5QpMDAYMGMj6CC7G8X4wCPQZxg6vDzcz1H9Af2a5g7uWxwQDeWGxgcd1VWnDKVp2eoDUVr/JHkCqKVeBEcDOCUt24FcwC4RJN8x9YbxiUoL98NrqasrJyaHS5csJBldfv3plibe5+x58kR7QgAQ0h7UGrnkC74rYAARhwSCOHemw0lA037qZC7sBSWuehW92Gy2tMKObI0awJRzOhHDlgISZsBgv3kMCwkwbbRfj+T1MAUHzjilG/KokAQZnBkhYBtUu96E8tMuKhOHPJTt3H1h3ARLoA9DXsxuICQEmE7xPtNfgkGC2z4QJCyRd5NfmwaQF/nJg3ZtNTgYMYBMuABKewXeBjW69pT1tWWb/nQxI5xq32AJIF5t3OxKQMMGA+wm40xHHce6sHMLEm8etKl3J+B//7/RrQAMSJ35oSCjBW6x2PTUiPJxSx3hmldhOQMIMFctqIihBcgHjAAhAYuIGNjljAKggXZSgkOYOkD759FO2lINlHV4Wv6IsvlzH47jEBIAzAyS0AfXhxjz587ACjo+G/ze69lZAGjiow0K76BKC9yHOFaFPsBegnWAAUDABAJhgfEPdXktbLNlpx013LNlJQNJXyeZ8pzuvHJBEf0h439iUVAZA4G34LwFJY0+uOzvFH2V7C0iQJMAoRCABowczx74R9gbgqgASDDa2wWQ4s8d/MHyuVWWk9o2ytAyMMyv4VML7sR/FA9fwg+YVnoURUNSDLwVxdXNIa2CCcG/Bn8UVy0goH/XD81gmglYg2oP/RgdweZ1w7a2ABOkLGnWgI8YEB4woNkY+YIADGkLaQRry8IlBxPCO8QGJFnn4XiHyYAwhTnvImpdvJHmLfWL13tGA1GDPkt2Fpp2OlJDwjT569JC2b92qnP3BhLvtzFl69vSplJD8AQ7+eKe3gASmzxm8+MEjHtIEmAgAA3tAImiBsWCZBoAADTwAm5guloXZs/hfvMcyHYBCDKK0hNk5zNnjPWB4WokHYCM+i/svv+xQSUd98DGg/ngey0V6KuJiffh9bwEk7t9IXCYDzUAvrtCCe3GZEz6OoKSAwJRaflVYEMvABALPKXlGjCBIX5y+/MoByU61794ASNCyE1XKnbKHBN43J2c2k4agvNB88CA9fPCAWWbIz58nAckf4OCPd3oLSJwxyKvaFl5vAST0u57rEUw4oKSAJVMcfNaODwAIgB/SMUBNbzICyQnPw8wQpGptGfy/Vmri8d5enQxIZ2vX2bKH5GRAAv/Lzc2lM6dP0cP7D+jS999RYUGBamsCS+9xcZ1uzv3BMz15Z6/YQ/KEIO7ySkBSA4q3zIw/15sAibc5UK5OBqQz1eW2AZJT1b7d8aqemC4BycM9LwlIEpACBVC62g6nAtLd9ju2gZHTD8b2RNAxq7MEJAlIhks8XWVYVp6XEpK9AG+F5nblcSog3bhyQQKSh3zNDCR8mSYBycOOkxKSvQxUApK99LQLbKyU4xRAuvHjj3Tt2jUlXDhxkA5tLbEtXP7uvFI23nPwQBMNGmTNnqYvmXkgvEsCUhcA6X/+339K/+2//08ZukCDP/ntf6Pf/OY3LPz2t79VtIOc8HHZeTDWCoPvaXmcAkgRYWEUHjZMCUODBtPgQQNsC1HDw2hE9HAlREd1nPFxwhgNtDpIQPISkP77//gf9O/+/X+g/+3f/XsZukiDP/qjP3IkIH308cfsPBDUrK2Er7/+hoaFDlMCrF7w56AGL6Z9+21fJQ3ab2Iat6LAnx0yZKiSjkPe0MbjabDEID6LsngatPPENJie4mnu3snzmV2dAkiBxpR7c3scBUj48OLj4wnWvctWraZ9e/cxD4T58+Yx1UUYnfR3Z2HJ7k9/96f0H//Tf5ZA1EUg4mD+7//Df6Q//uM/JqdJSJ6OtdmzZ9PV6z8oISWl0woInAGKaUULOs1VRUZGqtLKy9XW6JsPHVLSz1/8jp1F43UrW12mpKF80So+nA+K7xybmqp8P+7eycuXV/9ZY3AC7WHTEmfcwJcnT5pEo0ePJhzehhWR7qifIwAJhz03bdxk6AtJ9MNRvmYNOzzqCTGGR0TQaMHPOw5uHmhopPPnzhFsP3lSFgDp//g//4sEI5vAiIPSf/rP/7sEpF/BTAJS7wYBT/hRd+WFJXx3jlP3NzRS6K+uL+yqh98BaeqUKczitgg67u5PnTxJkyZNcgskwUOH0s0bNxTjqu3td2nCuPH04vkzZgUcJjZgeLVy3z63ZXGC/9c/+RMJRjaDEQel//J//ZHlfuD94aSrlJAkkDhpPHpTl6jISNrf2GhJOACfhuPUmupqgvdab96nfcavgIRTxe7Axygd3gqxlKdtkPh/x/bt9PDhA8qbk0dYroCn2MePHjHJCDbEkHfp4iX0/t07gq038Vmj+08+/Yw+/exzJYwYMZLqauosh6wZWcqzYjldvfekDpX7qgj7HV19p/b56dNnWKYD6hsRHuFSByO694R4CUgSkHrCODWq46TMSQSP2kY81yweTvu0lseN3mMW7zdAwj6RXgMbGxpo+fLlBOdfCHCnC3/tB/fvd8kPUMqekWUIJPAYu3v3biU9PCyMSUSzZs5U4kCcJ48fWfYYqyUmfNbrtcMoblFRkerd2vK8/W/0Pr34c21tlt3Ae1KfoqIij2gR34NMmlihgwQkCUhWxomdeeDzDOaBulpmbGwsgS9o+cWF8+eZBLR+/XoqX7uWNm/axFz6gPdq8wLMYBy6K3XxCyDBSZi28WfPnKGCebk0dOgg3RASPJilY99HSwhs0OoR4fTpUwRCimk///yepk2dpsShQ2GUUIwT87u7l4DUyYQkIEmlBnffi0zv/F66SguchQIwXDh3TuFnsOCPVZ/7P/1EV69coenTprr18ApDyVp+jHIPNNZTRMQwCgoa5BJSU5Ko+eABF158qLnZ7fvM2u1zQII7XPhnF0Gl7ewZmp+XQnNnxboNkzPi2JKb+PzuXZ1SkNjYqqpKgjdJvjyHtHl5eYq5dvwvXriQSU2Rw4crnSqW4e5eAlLnByYBSQKSu+9Fpnd+L12lBaQX7IEvXbJE4V2rVqxgFr/fvHnN0n755WcGSmbvguSDvSCRpy4vQIx0AAAgAElEQVRZNNstLwa/Xrl8seo5lLN08WKlPmbv1UvzOSCNGjWKoTpvPBMJdy+jbeum07ycWMMwJ3sUJScOovjY/mwZjz/PryMFLTreUOwLwaf8y5cvaHBQkAuRKsrLCR1XXVXlksbLcHeVgNT5gfV2QBoxYgRh2Y4HzDz5+IGaLI/HNS42VkmDGxAxTVQXx/NTpkxR0mfOnKmagY5JTlbSUAbK4u/EyoFYrlgfd+/kZchr5/h2Ei2gRPDs2VMqK1ut9De0leEj6cjhw0wTGZ6BT59sZW7NjeqOMct5KL/W7FtHq5elGfJi8Om8WaNpfGowxccOoE0bN7iUAQeRRu80i/c5IC1ftkxV+ZrqSmquLWRha8U0mp+XRIVz1CE/N4FSkoMYGAGQ0CCsZXIC4jq/sFCXAHBmhw8a/oC0hJgwfjwtLl7M3Dtr06z+l4DUSdfeDkhWx4zM1zlmJC28owX3GJuYmKjwNZzTfPfuLU2dNlWJm5I5iUlK8HWmR2uchxP56L49e+hAdSEdrC6gVUsnGoJSBxj1p7jR/WnAgP7UdPCgqpyJEyfqvk+vDmKczwHpZGurquJTp2QqgARgKl0yjpYuTFGFovxEBYw4IKWnp6vKMVq2ExsLNXB0DAIc4Ylp3t5LQOr8oCQgddLC2/Ekn5M0tDIGOCCNGTNG4WNz58xh4IODq7yM2bNyWNzQIfpq2XW1tSo+Cr7KBQRcS4pTVbyY82bwYQQAUt9+fUkLbBs0e/e8Pu6uPgUkiJkiGmO5Ljh4iIoAVgEJyw9iWVDp1mss9qzS09IIBhix3soDVL3ra2osq3vrlY04CUidDEQCUictjMaLjJc0smMMYAviyZPHtGrlSrYnHhQURM+fPWPKDLx8SEyI++HadV3eCAUIkYfiHjzaG0ACCGrL4vXw5KoLSP/f//P/0ucff0JvXr8mo58nL+F5tYB0YP8BrwEJZVohwK6dOxUQ2rRhIxUvXESrSlfS0cOHWfzbt28oPj5Bt8N4vc2uEpA6GYwEpE5amI0ZmSbpZMcYWLliBUFr+MXz5/Tq1UumzDB+3DjGy4YOGcLi3r9/RymCFCW+F9rOejzUG0BCudqyvDEvpAtIf/G7P6P/9dd/w6wcdCcgHW4+5DUgDRo0yIUAIrFxn5GezkAHdvH6/Zt2nzY9MiqKbt68Qa0tLS5p2rxG/yUgdTIXCUidtDAaLzJe0siuMQAJJ2fmLMa/Wo4do2lTO1W8sTI0fdo0GjYszJC3dTcgQQDxtK26gGQEQmK8py9Cfhzg0qJo5PAwlYhodckuJiZGVdbRI0ddGr9hwwa6c/u2S7xY95JlJfT61SvTPGJ+7b0EpE4GIwGpkxbacSL/dx9tcGge5m54WLtmLRUVLbQtQAuXl43rzh07CRpsPb1PcRxGy4/Bo72RkLSrXygXgOkpjXwKSKjc4UOHVERYVDRfIcD+ynym2bG8eByJYcmCFBrzq8o3V2rIzc1VlbOuQm0hGe+qr6ulY0ePmBJlZMwIJkXh6inxkF8CUiejkYDUSQtvxpJ8xjv64axh+712JVy5coX2VlbZFm7euqmUjfe0tLQ4wkHfhAkTKXvmTLcBqt1GY0vLj6G1xwGpqaaAViweTyWLxrqEhLgBKqWGrBkzVPy4al+l4TuN6oJ4nwPS7Jwc1SGs5qaD1FQDNcN82lg2iSpK03VDafFYSozvIALE0eamJhUBsrJcTQjtb2yQgPTddyo6YeYiTQd5x/jMPiSZ5j+aagEJoLGvqto2QLpz57bjAAlbFo8fPWRnLJ8+fUJG4fXrVwQrOEbjU3sMZ/WqVQyQAEYby6bo8mLw6ILceBUgVVVWqvgM+LzRO83ifQ5IOKwqmv/Byd7qvZtow6pMw8ZzkFq5eBwDpdIVK1SNB5OFSwltQwFI6IzEuHjDMGPqNCkh6ZzR0tLSyn8pIfmPKVvpn0DNowdI1bV1tgGSKH05RUKCBh1AKC8vj3BvFGCFwQyQtCs80Hzeu30xbVoz1ZQfl69Ip6J5SUzte2Z2tkrIAD+2aqxaOyZ9DkiowNqyNSpAuXjhPG3ZWEpF89KoaN5Ek5BGu3asJxANjebB6FAsdOG5mrfZ9cWL514fjtV2KK+T0VUaV+3st0Azrqr9uOR/3wC0HiDV1jfYAkgNjftV0pHTAAlLdmbjDBrFZoAE6w7Qdhb51amTJ2jl0mxatTTTbViQP00lYKAcnG3yZv8I7fALIEHjDebKRSLgfvu2bZScnOxCYDQOJlL27Nrl8syxo0cN13NhOBUuDtwFb7RB+CCQgNTJdKSE1EkLPj7ktftpogdI9Y2NtgBSU3OzIwFp8OAgevL4Mc2ZM8eFX4pjbu/uPaaAhLyxo0e7TPKxrD9r1iyVd2Kx3EGDB1OBjvsg+KrDcqKY15N7vwASKgjbc0BuLSjhP2wxQcceYc3qMvZfLx/MnUN10ZMG87ywtQR3z9iP4nHeXCUgdTIcCUidtPBmLMlnvKOfHiDZJSE5FZAg2bTfvUs1VVW6ZtEwlgYOHERY/amvrXXL46BtrOdSArwYroKSkpNp5MhRlDxmDM0vKCC49tHyZGzFzJo5y+27zMa53wAJlQIya82eaxtp9P/0qVMkGos0amR0VBRdu3JV5f+nYs1aZSnvwf37FBER4TURJSB1MhEJSJ20MBqPMt5+GnUnIFVV1zhSQsI4WrRwITsMC2sNAwYOpL59OybXmGRDgtm3dy87OCuaFzIbf8uXlbjsBRnxX208wGxObq7XfJTXy6+AhEpAUqmqrHJBW22Dxf/btmzRtd7NG8WvcI8OSwy3bt5UbNdhAw77SUD47Bkz6MH9n+jK5cteE1ICUieDkYDUSQs+BuW1+2miB0iBrtTAx1XTgYOMn8HyNybXd+/epQcP7tOrly9ZfOG8fI/2c6ZOneoRL+Z8GVsqvE5dufodkFB57BHFxcUzj4SiBh5vLK6wVQcVRXg2tLph1nTwAEN87CVxIjXU19OPP1wnHpeYkMA6Tm/vij9jdpWA1MlwehsgffHll/Thhx85OvTp84Uy9s3GcU9O0wOkqppaW/aQcJ7JiVp2vL/AC1PHjqWKteVUU1VN3128wDy8rlxRSqIlcJ7fyhWGW2EsVW8JT+TJmNTnzZnDNPyslGsljyMASawoTg8DdIDU2dkzafLkycx3jOhkT8xvdq91YY680N2vrNyn+khhaHX6tOmqOLNyxTQJSBKQnAxKn/fp49W4Fse40+/1AMnOg7F37t5RgZJTDsa66xcrWxpmZUA5ISMjg0qWLSNoLPOwdOlSGj9+vMrxqVk5nqQ5DpA8qby7vND4aGhoUD7I9IlpTBrKTM9Q4rDWiiW8aVOmKnHuyhXTJSBJQJKA1DkGxG/DV/daQLp9+5Zt0hGADeWJUlJPAKTQkBDmfBSeDnzVD3a8J6ABac/u3fT48SOmiQe0v37tKj16+FDVQdu2bWUbf+FeautJQOpkRnLJznnLd71RQrp85bKtgHTj5o0eB0gAh3XlFQyUoE1sB1j4ooyABiRYb7jX3k7v3r5lp5ohCS1fvlzpnLVlZczDIgwmektsCUgSkKSE1DkGvP2OuvLcpo2baV3FeiUsKFxAkydPtS2sr1hN27euV8La1cupf/8Oz9VdqXdXn82akUU7d+wwDDAKC55nRe27q3Wx6/mABiQQCeeUFixYQBXl5cwdhagQsXjRIhbvjd8O3gESkDqZkZSQpITEvwt57fwuuoMW/fr1J5hGA+CYBfhLWlxc7PWEuzvqblZmwAOSWePtSJOA1PnhSUCSgGTHNyXL6PymehstJCB10bCoBKTOjyeQAQnGK5ctWaIKS4qLaeGCBewsndOW7T7++BNaUFhIWAXQ1jspKanHzJh7G0Pu7e2VgCQByTbmFMiAFB4RYXhgEKb2nQZIqWPGGNbXnf2z3s4UZfs7J5m+poUEpC4CEmxKFcyb5zIL1c5K8R8z6pCQENsAQBwsKWPGWKoD6jEpM7Nb6oC26bVbL64wP79b6iDSxM57M0BaVVrqOEBau0ZtUV880CgByX8M184xGYhlSUDqIiAF4qCQbXJlWGaAtHXLFscB0snWVikhyW+7R036wHckIMlB2+MGrT8A0wyQ4P/FSUt2n3z8iSEYQVKSEpLrhMMfY0q+07UfJCBJQJKAZGEMmAESTPQ7CZA+++xzCUgW+lQCgisg+JsmEpDkwJWAZGEMmAESpA4nARI07MQ9I+29lJCcx4j9DQROeX+vACQchsVGflVlJZ05c4aFdRUVlJI8RjJjC8zYKYPVn/UwA6SGujpHARLAEf7CtEDE/0tAkoDkz2/J7N2OAqQJEyZQWVkZM59++NBh4qFy714qW72a0iZOtOx6gjcaZy5+uH6NnWa+dvUKHWpuJrg9v3evncWdONFiydEfL09ee+fHbAZIFWvXOg6QSpYulYAkJ1tdmnAbWftesmRJ4Fr7hnfDzIxMOnbkiOEHxGd2uB48cIDS0tIsARO8KN66eYOuXrlMo0eOUnUOpKbp06Yx46vVVZWqNAk6vRN0zPrdDJCys7MdB0ghQ4Ppwvnzut+UlJDk+DYb6zDGunTJEkv+kBbMn09Dg4Nt459+lZAAGHC/KwKO1fuyVasIZ4DMCAvAgedEM19K8Bf/5vVrSwBn9i6ZFtgfOcbaqJEjVSEmKoqGhYZSnz59HAdIWLYLCQ6mqMhIVZ3RhqFDh5p+N3Is95yxHBUVRUmJiar+HDhoEEVGRRGAxVMjsJkZGV7x44DwGFtTXe1V4wFa3128SLU1NaqO0H5I8HqIfNp48T8kJRgnHBEdY5pPfEbe95wPtjv7qid4jO0N7ie6s4+dXHZGWjrBueiZ06cU3oXJ90/37tEvP//M3Oo8fPjAskfX5ctK3EpFRgIDvMvOyc1V6uEt3fwmIW3bulUXjIoXLaLRo0ezfR04zwsJDaVRo0fT8pISl/wAm927dhkSYceOHXTs6BHDdE40ANLImBFu8/H88ioBCWNAApIcB/7iBVhdAvBcuXSJ4HKc1wM88fWrVzRr5kzKyspik+3qSvdbEguLFuqCEY40YBUpKTmZRo4aRcljxtD8ggKCN24tOJ0/d46mTZum1IXXyZOrXwBpwvjxLo0/sL+BZs4YS4lxoYZh1oyxdPhQkwshjIxFSkCSDMOTj8HTvBKQnDG+4ITzwcMHSrh+/jidq1tvW7h354ZSNt7TdqaNBg0a3CXG6+lY0+aHr7eXL1/QjOnTlXoApJ4/f0arV69W4lYsW8ZACct42jL4/9jRo132G8+3tVHp8mKKHR1JI0eEu4TEhBG0oWK1Cy+Gl24oQ/CyPb36HJBAmLNnzqgacuxIMxXmJdG8nFjTMHNaDCUlBFFjQ4Pq+dYTJ6j/gAEuRJg/fz7rDDN/IUh7//4ds9jsKfFkfmcwJH/1gwQkZ/S/1oX5rRvX6EzVGtvCnds3HecxFlLR69evKDY2VuF72E8CP0tJTVXiMtLSWJyRDU3sjR7Yf0DFT9vOnKYF+ZmmvBi8OmfGCMqaNpYgGYnSEiyXiH7nPPk+fQ5IMAIqVr7t7Fmq31tI+yvzaX5egiERAEbxsf1ZiIyMdEH0lJQUpRNEAmCdtTC/wDTEjhqt+6xYjrx3BvNxUj9IQHLGmNACUvu9djpbu842QEJ5YmhpafG/hDRsGL169ZIyBUPJu3bsYPtGosPRjes3sAn3AJ0JO74l8E2RH2MvaN+OJbRny0xDXszBKCFuAMWN7s+WB7FUKJYTHh7uFU/1OSBt3rhRVfFtWzZRc20hC/V78mhhfgotmDdGFfJzEwmN54AEQmq180qWLfOKAE5icLIuzmBwVvtBApIz+ksPkNrqNwU0IPXr149++uke3Wtvp8jhwylr+nQGRgcaGxU+OCt7JovbvdN4nx18UwSS1atWMV7cVFNAuzfPpMI5SVSQ6xqS4gcyfgxA6te/HzM6IJYDlyxWvyMxn08BCeKh9mxESnKiAkgAptIl42jpwhRVKMpPVMAIoIQGYN9IJAD8x4sNk/fOYBaB3A9ffvUVffrpp44OAM1A7gO0TQ+QzjVstgWQLjTtVElHkJScICGh3SNGjKCHDx4o2xKPHj2kIb+q9EO1/9nTpwSLNKLEpB0Lhw8dUvHRMWPGqPhxSXGqihdz3syFAwBS3359KWvGDFU5VfvcK1Jo64L/PgUkEEkEEez9BAcPURHAKiBpy8I6praB2Nxzt3+EdGwERngpYmrfKf9LIJRjwLdjQBeQGrfYAkgXm3c7FpAwzoKDg5liw5TJk13OZZqdv8SzSBf5Me6xx89XrHC1CkhafoyyvNlH0gUkrCPy8PbtW9L7efPRaSt9YP9+rwEJ79cSU1un0JBQphbe3n6XAROWC9MmTGAq3lDz5mFY6DAXMNOWJf/7lslIekt6Wx0DuoDUYM+S3YWDOxwNSFZppJcvLCxMl4d6A0goX8uPwe/13msWpwtIf/G7PyMehgWH6OGRxy9CJbSAdPTIEa8BCVojIgHMDsACqecXFNKzZ0/Zmuqm9RtocFCQV20wI6ZMk0xUjgHfjwE9QAr0PSTwtLYzZy2tAK1cvkKX13U3IJktFRp9J7qAtL+hkXi4e/eubYCEPSQRRHAfHzdKJSJaXbKLi4tTlQVpy6iRPB6aJvHx8XSqtZXevnlD165epeSkJLfP8efl1ffMRtJc0tzdGNADpEDXsgsaMoSePnlC4HsVa8sNw9nTp9kxGz0aAtS0/BhCgzcSElTOtWXpvdNdnC4g6SKQJtJdwUbpUE0UK76ufI1CgOodubRm+URavWyCKqxaOp6mZg5XFBtQNoz/ieWsKl3pEbDA+gNMD2EPqauni43aKuMlM5VjoPvHgC4g1VTYsoeE80yiyrdTlBoYID19QtkzZ5ryPfBFnPs0Goe1GvNtsGXHAWl/5VxavSydVi1NcwmpyUGKlh2UGmCmTeTH6yvWGb7TqC6I9zkgTZw4kdmX45VvPdHCziHV7JxD61ZmUEVpum5YUzKRMiaGMSLglLL2cO34CRMsEQBSGjYAG+vr2fLd4UPNFBEx3NKzZoSUad3PeCSNJY31xoAeIAX6wVi7AEkLJPv27KED1YXUuG8urSs15sclC1MJoAQtuwED+lPTwYMqQAKf1+srd3E+B6SgoCAX52EH99dRRWmmLhCJAFW+Io3Sx4fTvr17VY2HMzJ3GiXYc4JNptu3bhIMDjY2NEo/SNJfjFcfjbuPSqb7Fji1gHTz2ve2SUcAtju3b6ikJCeofQ8cOIgePXxISxYvNh3D58+10ckTJwzzjBw5UsVLISjs27WGKkzAiPPklYvH0ZjEIFq7psylDGj/efMd+ByQUMnsGTNUUhKI0FBfT+NS4ykhPsYwjE2JJ63ePJ6daCIdDRs2jOprapg09OLFc5o3J88rQnlDXPmMbxmTpHfvpDe0aG/fua2Ey2eOUOueVbaFG9cv0+07t5Rw/OixLtlrs2ucQhP65YsXhgpaMFL9yy8/09Jic9DavGmTCz9etXw+LS3KoCULjMOyhZlUsUZt9BrKZUvdgKRZ+/0CSKgQDrLyZTt+xbmkhQsW0ODBasOFsPqNPaOTra0uz8CuHZz86TWypKSE2XvCPhHs1d248SNduXLFJVy8eIH5tdErQ8b1TiYn+73n9Ht0dBRhU52HiPAwChkaZFuIjIyg6KjhSoiICKNvHbC6EBERwSx7P7j/Ey1bsoTiR8dSdFQUjUlMoo0bNjDno7D8jS0Os/GMSfu5tjYVbwXY7dy+nbCipfcs/GzV19WpngEfh8BgxI/1ytHG+Q2QgkNC2D4OByPxikOucDUOpYNDTc0u1h143v2NjaaNT0hMpIrycrcBYq+ZNVwt0eT/nsOsZF/JvgrkMTBhwgS69P33uurfRw4fYk76rLQ/MSHBBZTAZ2FZB37r1q9fT+Vr1zKgAxABsDgf5ldsnURHR+sCmJU6II/fAAkvB3Lv2rnTpWG8gWZXiJlG6G218TKfZFZyDMgxEAhjAJJR2sQ0JeCMkaftmjJ5CmGVyozvGqXhTKmRgWtP6uFXQEJFoQufP3cenWhpcUsIrE+2HD9Os2fPtkxslB8fn0BjBZPs/L25s3JoeGSk5bI8IazMKxmdHANyDPhiDGC1KS4+niAtzZ0zh1JTU5lTU2jiefp+2MfDypMR8GjjwZOxkuVuWdBqPfwOSGJF4bjv2NGjusRobmpiZn/E/FbuYS4Ie0i3btxUdQ6cSMF8O9Ly8qSigxVayjySwcox4KwxgBUm8DC98O7dW1pUtFDF96z2X0x0NJv8awFI/H/wwAEKDQnxqnyjejgKkHglARZDg4OV4O3+zqTMTKZdB0UJvY02qIoD3aE+KZf/nPWh8bEgr7Jf5BjQHwNYJoMW3fatWyk2Lo6wTBcaOowiodgwZgxTOkD64kXFXoMG+HB0TAyzcDN50iSC5h6UR7wxC2SlHx0JSFYqbiUPNuPgANAsL4AIJjiyZmSZ5jMrQ6bpfzCSLpIucgx0zxjAMh2OsRQVLTDkW5iE79y+g7k6d3dO0yn9FNCAtL+xgWpraw07jHfC1SuXaWVpqdt8PL+8ds9HJukq6SrHgLUxwF2Yj3Lj7To5MZEt5xm5MHcavQMakPbt20tnz5w2BRpY/X7+7BlNnjTZNJ/TOk7Wx9qHK+kk6RSIYwBGUOG9YHlJie52BNo8YOBAOnH8GJOQ9LYsnEiXgAYkqEFis69izRpDsIE+/ZPHjw3Tndhpsk6SycoxIMdAeVkZ429Y4ZmZla3wMDgbhUWaF8+fsz2m6dOmKWlOHzcBDUg4Tb1s6VLWKbB3dfnyJbp06XsWrly+xGYYOMmcnpbWYzrM6QNK1k8ySjkGfDMGcKQlL3cOwXW5npbdzRs3KD093SvPrf7qw4AGJE7U0aNG09KlS2nr5s20betWFrZs2kQFBQWEzUGeT1598yF5QucRMTF0QfBgjHucHj+PcK6NnS5va2tj1t9hAf7M6dPMeO+pkyfJLCxauJC++fprCh46lJ10v37tGu3ctp3FId7pYffOXYQ6H4QfsF/ru2H9etM2gx44TQ8agVYIoN25c22MlqApaCvSGysIMC3jSZ/JvL79juDBADwO4JOVlUVjx46lmOiYHtlnvQKQ5Afi2w/ETnpv37qNmSk5cuQIHTiwnxr3N9oScnJm0YcffkR9v+1LD+7fZ/uI1ZVVLA7xTg/1tXWszqdaTyp1XbZsqS20AY0PHjxAR44cZrTHRM7OPpVl9dzvsbv7TgKSD40kYiYzbuxYGj9uXJcCTMZ398BwQvk47wA7XZcvXaJDhw9R86FmVWhqbqKDTQfdBj0Q0wOk+ppa+vLLr3pEgEdnKONYASQrNOJ5QKuGxgYW9u9vZJITpCpsojthTHR3HZISE7v0bfJvu7vrGajlS0DyISDhkNmxo0foZOuJLoXS0hW9gjnk5uayg8043Pfzz+9dAtzQ4wyZu2AVkFAOpKWeEFBXK4DU2trqlj4i/Sr37aN169a5BFiWDlQmKLZr7949Xfo2+bctlinvrUuEEpAkIDmW0eTOmaO7Wcs3cN+8ecOYMhizWbAKSGZlODXNnYR08mSrKW207YL7gIqKCpcgAcmzSaQEIesgJNJKApIEpB4LSK9fS0CyG5Cg6CAByTPw4VKReBWZrLy3Dk4SkCQg9VhAgnFc7Qxf77+UkMwlSJFm165elYDUxSV1AJMEIesgJNLKp4AEvfnwiIhuC2LDnHgv95A8G6TuluxevZSAZLeEBEPDUkKSEpLIP8G3BwwYQPDc3b9//2491+RTQIKmjmi+3O57kYhOvJeAZC8gvXzxwpKEdPPmDdIGnMnZt3s31VZV0dPHjy2VI0oSTrm/e/s2awfacuH8OZd23r1716O2PX70iHkH1YKS3EPyDKScyH88rdPwiAjauGGjcm7t3Nmz7OwatC5Xr1rVLefTJCDJJTvHLi+4k5CsApJTwKMn1AOAtGHDBhcpSQJS7wEkuO1pqKsjON8zExpwaLq6qoqgKu8p2Bnll4AkAcm2wWQ0yLyNdwdILyxKSD0BCJxSR9h13LRpkwSkLu4jeTvm/fkcluXWVVSYgpARQJUsW8aW87paf0cCElRP9+3dy0JVZSXBEZURIcT4rhLD2+dx4BUOsRISEiheCKk4BDthghImT5lCra0n6MxpmG/xPmzbtlUpk5efnJyseveoUaN6/GFGt4D0/LlHy1FOYfpOrgfOJG3ZsiXgACk6OoYSExNV3wi+Vf798GtjY0OXvk3+XfPy+HXsuHGqd8PleMTw4V2eDIaHhzOvsPsbGuj77yDRdIS9u/dQ7uzZbN/HCl/D3lBDfb0hn8UyXcvxFrZ8J/Jc8X77tm1d3l9yFCC1HD9OiQkJup2UnJTE1i/NxEgrhO+OPCGhoQRDhmLn+Pu+ob6BMjMn6dKyO2jQHWW6A6TnEpC6BZC3bdvmF0CCZ+jucpMAG5ZXLl92zDcK9fplS0q69H0GBwfT06dP6P37d8xZ37Nnz4iHly9fsIPk93/6iZDP7Pvs27cvAcC0PAt2Dbds3kxRkZGq5xPi4wmCApbstM+UrVqtymv2Xr00xwBSedkyys2KpZlTRxiG3Ow4qql0JRwnil4DfREnAckzZQWrfeIWkJ5JCak7pK09e/b4HJBCfmWue/fs7hJDMxpbgQZIkGhu3bpJ0DSNi40lrNKIbYcvpAkTJjBPB/v27FGliflwn5mR4bJfBIsyBXlplDU1gbKmxruE7KkJtLBwmgsgAcRGdcG0mSMAqbZqJxXNS6Z5ObGmYXJ6BMXH9idYNeYgJF61hPbVfwlI/gIk6+druoNxB2qZBw/s9zkgJcTFsZk+tB+747sNNEAKDQ1ljvdg3duMXuvLK5i1k6CgIN180Pw9c+q0ip+2HGui/NlJprwYvDprShSlJIfS6VMn1c8fb3EBSLM6iml+B7GcHy4AACAASURBVCQg8f7KQjpQlU/F81MMiTA1YzgDIwDSkCFD6PjRoyoiAJjEhvnyXgKSBKRAAifsF/ha7VsCkmffEHdhjn1rM16XkdbhpNTIhTk8ZYuT+pOtrVTz/7d3Jn5VHNkef//B+7y8mSQzWSaJMX4SM9nVaBLDKoobCoomRk3EDRUQRUVRQMVlFBX3CLjvCyBqBBUVNIomRhKNEkVx3zUmM5P5zGQm571fa1379t59u/tyoe7nU5++t7tvL1WnzrdO1alT66bQljVplDnuE1V9nJIUQ316hdMnH4cJXnaHDx3yuk5srLXlL/wOpPlzZ1NJ4SQhAUqzpvWn6ZM/80qT03t7YAQgoQAy0tO9MkAJSMgUDPaLCwyrJ1Z9843Qarhx4zrNnTOHIiIivM4Rn2/kOweSucpkJE9xjlaXHYKt1icI1KV3UYrW4LTbNweSuTrELKTUMamaugu9SRhjUtNxeUuWeOnRKVOmePRx4brxNCWjH2WlfyZLgBF0MYAUEhpC+Xl53tfJytJ8LjUd4HcgdY/p6skAgClnxkCaOTXOK03J7CsDErzIxGRXAtL2bcVCdG328uPTHgTrvHjxAi3NzaWjlUeEwtq2daulzGPX5UAyV5lYvulttYD0448cSE5B7FxNjd8sJCweiIgAZlObNm0063B967JD9ASMIWEuXozE6YDVq6TERGEMqWDzZtW8kVo23bt399LHs6b399LFTDcDRmIgxQ+O99LHO7ZtV70nez6lrSKQ1qxeLUx4Io2P0sX09kkjNZSWlFKHDpFeGWAUSCC+WSDBKwSrY7YV9admTc4SoNSzh/U1hjiQ3AfS3bt3uYWkE+XcF2D5q8vuzp3bppbLYEtnYMmQuH5xqkqwvgEJujYmOprOn6sRPOyk+isjI0Pwsvv+xEnV6R/oxpPqUICO9VhhaxRISvoY3nt6TJAeVwRSoz89R0hQ4Gof6YWM/JYCacf27ZaBhIyTZqb0GaQWEloUWOtFfB4y7eKFCzRyxEiv/eJz9L5zIPkBSAaXnvBFKTfk/0onx7rVZYfuJSsJgXb7SbrnxfW2PgIJ7wdvOyxdLlX+UVFRlJioPe0D5yjpUCtAwrNIr2VlUUdFIKG1ce3qVTUWCfvFhW30uxRI8MXv1Km9F5GNWkhqmSl+FimQcD8swCU+p31ke8F1Eq6P4v1mvnMguQ+k27dvcwvJQQsJkxzFVpJbQDpSWSm0/NH6N5P0lF99BZIZPSU9104LCWCUAkmvG1X6PPitCCRNEj08qHQxvX1SIOEFEobGewFp7syBlD01zitNnfipbAxp0KBBsgyQ3r94axHVnD1Da1atpulTp9LqVasIq4xiGXGciwzbvm2bYPK2bdu2QQIJeZCZkU5xcerdHdJ8deu31hjSrVu3OJAcBNK6dev8AiTu9m28cZc1eTKtXb1GM2H4ZZhGY7vy8GEvPYrxKCsWUu/evb2uA09NK3rC70Aq2LLRkwHrl6XS5zlDFdO4UR95oIQXXbRwoVcGAG7SDBielEQXay/IVh3dtWuXcO6ZH34Qjk2bNk32X+m1tH4HsoUEt0/WRaL1jv44pgUkzERvyF1qTr87ljL3h4XEgWQMSO0iI4UoDWz1ZK3trJnZqvpt3Zo1Xno0NTXVo4+LN0ygRbMTFdPgAR28nBoQ/VtsIc2fO0/1nlq6xO9Agom+fmUWrV06RhFEDFCL5wwhBiW05jEjWJwBSkASv3ibNhGE0CSdOnWmsPBwIbNgFSEWlPg8K98DGUgpKSkBCaQbPGyQo0DeWlTEgfT11zIdI9U5Vn/7GjqIASktLU3Qa9BtaklLp2Firfgd9paV0bZNk6ho3XhNfbwgezANHdRRcPvu2KE9wSISXwdxArXuq3bM70DCS3x5oIIW5wzXzACACVAanzqQEPNO/PLsu/Qlo6OjadjQoZYyRnotrd8cSMZadVp5qHRMzUL66af7xIHkbJSK3bt2uQokdOfD6oVlpiQLvu6rb2NIDEijx4zxKb86de4s06U7ijfq6mLoY0Bp2OAognMa08FsCzhaKbM6ASS8RPm+fTRmVDJ179aFusVEyRL2p40dTYcPfSl7eZYJ0gzIXfIgbMaVK5dp4YL51K9fHIWGhlrKKOm1xb85kDiQnO5Cc/v66Dpzs8sO9alLVBQhBpu4btn1nQNJvY5mTZoki2W3ft0aSoj/lAbEfaSaUoYPosKCzV76GMGvE4clWC7DOgMkBhVEkR0SHy+EZkd49uiYGGFQDgtBsXPUtlLhRcDBCWnj6cSJ7+jqlcvCeBFcvCdmZhKsJ+n5Vn/XFyBNSEsjs2nsmDEyl1Or+Sj9n5aF5LaCbmj3g2JxG0is/CPbtyeM/27fWkzXr131dCmzsU5YUrtKdgrntG+vHcmaXZMDSR1IaASUlpTI9CsmKWNyLfQbayhgG9WlC6HeK+nhdWvX+qRX6xyQlF7S6D4mfGrboYPj6duq4x4nB0yqS9bx1Ve7lnh/fQESq/Bmt0Pj430SQnFeir9zIDnbLacF2R+qq/0CpAH9+8sApCePRjxE6xuQgoODqaSkxJYxcFbnlOKDGtW9OA/rKbFrWd02KCAhk1CQmFMxetQoIUArvFPOnztHasEHjWQsA9I3x44pthq0ChVOHcOGDad27dpTeHgEffhhMDVv3pJatnqfoqJiaG7OfDp6RL7uiNY1cf6mTZsNrYckdmqoPHSIzKbCLVsE93kj+WT2HA4k/wEJK8e6bSEhziSsHwDo7t07tG71GoJ8Dhk61CslJyfTmpWrPOBCdIfhw4drKkMA6duqKtP1E/Vs/twFFB0TS23bRlJQUAi1avUBvdOsOQUFh9HAAfFUvn+/6etiHNzX9ZDM1ie98zt37kzbhIX+zDtzrF+7VjUihN59xccbHJDw8j179qTFixYLYYTu3bsrxITCBFlxxlj5fuK77wwL5prVa+mzT+PorbfeoVat3qPmzVvQO+8086S3336HXn/9DWrUqDG99tqblJQ0girKvcO8q0EJ/f9Ts6Yaeh8xkKy8s5P/UQPS/fv3HfUw07IcGtKx/Px8D5ScnhgLOUIkFcAIyxkgeKiebGFy/L6yMuE/3333re74MJSt0UYjGoqjRqVSWGgbat6sBbV8t6WnbrJ6+tZbb1PTpq/Sc8+9QCEh4bR82Qr66ihWbNVX6Kj/iBun945qx+EpXFa2hzB1RS+tWrnK8H0QAmjqlCkknZ+k9k7wrhuflubxXFZ7XqP7XQUS1uQoLChwLKm9NMIMIUz7zBkzBGGBVYQW4M4vvqDk4cm2rVJpFEhp4ybQe63ep/davScTcibs4i3g1PilJvT6G2/TyhWrZAOQUmGp/0DigVXdAOOaNWtcAxImqwNGZ8+cMb2WztmzZ4T/jkweoal4jQJp08ZNFN2lGwUHBRuqn6irb7zxJj35h6do8OCh9OVBdccrVld9BRJ0HXp5CgsLhVRcvFWwKqHbduzY4dlfUFggLA+hphvV9mNKzPRp02jD+vWy8aWSnTtpzapVlJmRIYQuUruGlf2uAsnKA/ryH9A+ZeRIQjh9FNTt27eourqaJmdmagqu1XvqAQlzpzp07EJhoaGGBV0Mpjdef4Mef/KPtOTzPE0ocSD5r6vLDVC4dY+CLVtcAxLcvQGkVauMt+ZZPYUCxn+x3Dbbp7Q1AqSiwiIKD2tDrVrKLSJxXVT7DmupU6euVHm4UtNSsgNI0nf8tE8fIR/ghg3dJz0eCL/rNZDgsQcQoT96cuZEgu8+rCWnCkYPSEMGD6M2YWGWYMQqAKD0p+caUWFBkarA13cgQfm4pZQb8n38AaQpFtbRmTH9L4IiLinZqVm3jQCpQ2R7elehe47VP70tejMaNXqROnaKJnT7MYtIurUbSBgDrzl7VlhuAjoPjV+n9JyT163XQOrQoQN99PHHprsArGa4FpDQj9v2/2Pn6Qm0keNNm/6Zmr76Ou3fX64o8GaABEgXFxZS6ujRrgowgjGqzSxn+zMzMz0ekahkLN3jS0+4AmR4TTHHhtgesbrlhWkWVusOs5Dy8vNMXwOBYNFI2arj5aUFJEROCA4KM9yNrlVPMbb01FNP01+mz1TtybATSJMmTqRLly4KeTB27FhKTEggOHpgvCz8YVQaq+Xi9v/qNZDczkw1IGGAMCI8glq0eNcWIKEVhq6BCeMzhSVCpK0vM0Ayk0dYc2VA/wFCwgJqZv4rPbdnjx40aNBAzbRw4QIPhBiMsDWzFtKlS5fowIEKWdqyaRPNmT2bFi9aJIwnBqolVFxUJLwH3gWBgqXvevLkScvwKi0t9QApOXm4ZlmhLBGdW1rORn9jXgugcvybY6avgXqH/06eNEnzv1pAWrhgEbVv186W+glYvfnmW/RCo5cIa75J6yd+2wEkdMsB5KgTmDfWu/ejcD0YkwOkqk+fFuYNGS0Hf5/HgRSsPmHMbOGoAWlW9mxqFxFhm7BD4OGB98wzL9DePWUygbcCpPj4ePrqyJEHAhwV5VWxEe9vz+7dQqVHxUdC9As9BaCVf74A6Y7JpSe2bd9G0jR2bKpQHghZc/nSJctK298gmztnjkeusrNnyt6zquq45XdzE0iQFdbKR1T+EAMRVeBptnjhIkEer169QnoR+9WAhO6tkOAwatbskZerlgVk5BgajU8/8yxlZk6S1U87gIT8gQX04717hACpStZpr1696OyZH2jb1iKv+qxVL/19jAPJBSANG5pgS1eAuCJA4H//+BM0b+4CmcCbBRLmcDDQYPlqeEOKBZPBCGNxUBqXL18iuMvjP9kzZ3qdK/6f1ndfgHT7lrm1kKQwwm8OJH3Hj/LyctcsJMjKvLlzPXJVW1tLo1NShImfmOeHrmUkjJWggTR0yBBhaRkmt/AI05I3HFMD0rKly6lDZKQH7OJ65st3jPcGBYVRuULXuh0WErrq+ussG4Mxc3SP6+VNXTnOgeQCkMJCfHNkUKsUL7/8Co1ITvEJSBivgfchKvbhL7+UtTIThg7zKIm0seOE+QYIH7Jg/nzhP7CUWFgRM0LtC5Bu3LhpqtXPgaQPHyVL7+DBg64CCfIzY/p0T+MIMomxEKwGe+PGdSHhO/YxEGGL7kojzkpqQJrxlxkUFhJiO5CErvXnG9P2bfLgo3YAyUx9C5RzOZBcAFLQh0G2CzsghbkP0V27E2JOifupzVhIYx723aNiR0ZGylpSZXsedNWV7dnjdQwK4EB5uQCrT/v29TpmRPh9A5K5tZA4kAIHSJCdPn360rL8fKqtPe8FHjGE0BDauH6dsLCkERjhumpAGpk80vYeDNaIfOyx39GK5au86qcdXXZG6lggnsOB5DCQVixbScFBzgAJLbCWrVrT/n3eoUvMAGnx4gd98Pm5yt5NiGkGRTA6ZZQMOllZk4Vj2TPMd9v5AiSl1rzWPg4ka0CC4mRedk47NagpT0Rs6Nqliyypna+1Xw1IyUnJ1NLivCMGHrXt4088SRhDFjcYOZDUx+05kBwG0rL85aZmfKsJttJ+AOndlh/4BCRMJgRwkhLkIeMx4I9j6CZRmmg3avRo4fjcOTkyWGkpBhyzCiSshaQFH6VjHEiBCyQ9OTJznANJHQRm8tHJczmQHAYSWkNOddnBtbRLVIxPXXbLli4VoDI7e5YMKrmLFwvH9jxc8l0qiOi7B7ByZs+R/Vd6rvQ3B5I1SEiB66SXnT8tJKxbBq+5mJgYQjR5cUIsyrbt2hnyxBPLnSqQEp2zkB77399Tfu4ybiEZ1LMcSAYzSizYat/V3L5DguwfMIXF9MorTSkxYbhs8p2ZLrvx48cLULl186aXNw4cFZizw7x58xSB8/3Jk8J/lawrtTxi+zmQ6j6QUL7+6LLDgnG158/TzRsPIn+j0SNNt27dopqaszQ1a4ohhwbInRqQpk2dTqHBztTRJ//wNG0r3saBZFDPciAZzCimSLW2akAaOGAQtWrZylbHBnTXPfHkH2j2rByZsJsBElbpZJUdFfajHj2EtFs07+ijnj1lQFr+0LK6fv0aWZkkaxVI9++bD6zKu+yswc9tIGEuDZZOZ/KILeaIYX6cOF1+GJWAnQd515uDpAWk3CV5tk6KZd3rcDp6//0g2rd3n6yOci875e5DDiQXgDR92l8owqawQWJhf/zxP9Ku0l0yYTcDJFTUSRMneSkBVtGxXb5cHrCyYMtmz/mlO7Xjh6kB3DKQfuRAEnfbOdllh2UN3LSQWPggjFlu3LCB+vTurWr99Pr4Y1q3bp3HBRyTadVkje1Xs5AQSSXoQ3stpAcu3y/QmDHjZPWTOzUowwjlxIHkApAQJyskOISaNWtui5UEYX+h0YuUlDhCCKIIARcns0CCIEzMyKDq06c83XTnz5+jtatXy2JhITwMmxS7f98+XSXAlIF0axVIgKRYIRv5zi0kaxYSFq50C0iY9Iq5RojCkZmeYViusiZN9sisXugiNSCh7kyeNIUiwsNtqZ9oNCKe3eNP/FFxDhIHEgeSYQGXKk4zv9W67CCA+Xn5FGlTrKzXXnudnnu+EZWV7fUCEYOSFSCZec9xqWMp7rPPfMpTDiRrkJAC2EkLyU0gzZo5U7C6S0tKTMsVQv+goaIXNUQLSAcPHKQWWKnZh0jfrPcCDcZn//Q8ZaRPUl2wj3fZKUOJW0guWEgABSpN7159KdTHGeHwrIOw5+Xmy5wZ3AKSGXipnWsVSLDOpEpZ7ze3kKzB79rVq65ZSKy7LmeOeY9N5im6fcd2TZhpAQl1B93fkW3bUYsW3qs3M9AY3TZ5qQm9/0EwYTVVVielWw4kDiRNYVVTnGb2a1lIEEh03UVGdrTsBv7mG2/SU08/SxMzs1RbXriPLxYSJiEmJiRS3z6PIger5QFC20dbjPDMgWQNElL4Omkh4V5uddkxIE2fPt10PV0w70EYKzvWQ5o3bwGFhoTSuxYj8zdu3IQ+/DBUNjeQA0kZQFLdwi0klywksUAOGTyUPnj/A8MLgaEL4OVXmtJLTV6hnDnzFJecEF/fCpCGxA8RQv+LHRquX79Oc3NyZONIXbt2pc8XLxYifsM1XBqMVSpkSr8xZhAVFaWZpk6dKlt+4s6dO9xCuvYIZk4DKTc3V4BSnz59NMsKZWnF25LJBuQJsldYUGAaSHt2P/DMW5qfr/lfPQuJ1aEln+dSZNv21PqD1obHlNBz8cyzz1F0dKwujHAfbiEpA4oDyQ9AgkAuWvg5tW0bSe+2aCm0xqQOD4AQhBxzjZo0eZk6duxK+/YqjxmxisS2ZoHUv39/j9ccPJzOnasRInozODFPO0RanjxxIt26+Wh+SM3ZMz4pIqaQlLZp48fLgWRy6Qm08nmX3SOASS0svd/r1q4VgIRGiFIZ2bXvk169BI85dBPCg87odWNjY+nqlSuC/Mb1i9P8n1EgoR5VlFdQr159KaJNW2rerAW1aC7vxkMdxTIwjRu/RC+/8irNmT1Xt7HI6igHEgeSprAarQBK5yE8/ulTpwQLgwmc0e3hQ4cpNLSdsCz5n199jV5q8rLQ0vqfx35Pzz//Ek0Yn0FHKo+o9kUr3QfjVRs2bKSEhERD74w1UwCfK1euULeYGM9/JqZneECFWHcMUGyLAJhK+WHXPiUg3b51i1tILlpIbgEJMoMlvyFbAEzP2Fhd2UK3LxpQ+M/BigrN81euWEHfVlWZqkesbmWmT6Kmr75JL77YRGgcvtCosTAH8L//53cUHtZOGHvCAnnsfCPbPbv3UPYMeXQUu+pOoF7HsoWE0B2B+tJ2PzcDkhFB1Dqnoryc4Eq9t2wvYW6EWSEXX7t4a7EhICEMCwMMWpvSvCnY/GjOETtv9qxswjtLz7X7NweSvmXjdJddYWGhKxYSZAdhgs7VnBXkEc4r1dWnqbLyMGGJcnFCHcExrM8FmcTkbCXZFcsjgFR1/LgpaIjrE76jTiKQ8b6yvUId/eroUcvXw3gyB5LcSrIMJPxRXOAN+btdQJJWAF9+GwVSwrBhHiAphfEf8LA7DwvzzZk9izp37uxauSsB6cYNc0tP8C476yvGIu92bN/uGpCgQ6JjYkipEcQaQ+ItgIRl27t3764rk3YAyZf6KP0vB5IcRih/DiQbxpACGUgpKSkeICk1Kj5+aEHt2lWqW+mV/u/LPg4k/1tIbgOJyUuP2FiaPWsWFRYWEGRPnLZu3Urz580jjDux8/W2HEjKANDLN7ePj58wgaSf/5LuUPo9J8f8kgNuv5xb9+NAckbYlYCkNwivdJw7NeiDTSnfsA9zaeD67bRTg9N1lQPJmTpqd7nl5uXJcGMISEVFRYZbJ3Y/dF27HgeSM8LOgaQPEqfHkDiQvMNySbverP7mXXbKOuPw4cPWgFRbW8uB9LC7r74ACd1z0pSclCR06R2oKJcdw7noWnGqgSAF0v375hbnu1BbS3v27NZ0+4a7fUxMN6o+ddq0956aVeHW/imTs6hVq/c8c2Wys2fK3vWLnV8Ig/lWn8lfQEJcOky8lsrWrtJSYdmJSxcvCEucw+lB7BkqPZ/95haSMgBY/tSVLZYVkX4MWUh///vfKUxBYOrKi7n5HIEMpIEDB3rGkMQDxka/37lzm3qZ6Ms3Uy6+AAkwQigZpe467Bs7NtWjyBESpk14G8Fjyqridvt/06dN93p+vIMSkNj7Hz16lDDHx+xzIvqIW112WJQvLzeXABsmf8e/+YYSEhII63PBGmH7xVuc74aXnVVrSOl/3EKSAxITq3/55Rcpj8gQkP71r39RJxc9rswoMrfPDWQgoVGBCYNHjlRaSqhYWOrciTyXAglKyIhCheLdv3+/KoyUgASF3u+zfsL6O0bu4c9zjn31FbVQCG2jBSS88w/V1YbyT/xubgJpxbJlHuDAgw5rIaHMr1y+TGNGjxa+Y75f+oR06t6tG41ITiZMzMY5WK5CSwa5hSQHgFZ++eNY56go+vXXX60B6bfffqMePXpoCoE/Xsof9wxkIPkjv4zeUwake8aAdK6mRhNGakAClFYuX2FaaYsVuNPfAVt4l+FZpUkPSHhvKHczz3jy4aqxbjg1oNwAF3HEbyyLgvBUV69eFY5169bNS+cgesjdO7cJ0wGUpi0wWeNAqvtA+qR3bxmMsMOQhYQT85cu9RIOVvgNbcuB5IywS4F0966xSN9VVVWWgdQ/Ls6Uwjaj3O0499LFixQUFCyDEeBkBEg1Z8+aer/q06dd6bLrHhMjAAdddFKwYFIsQIUkPQZdc+rU98KxWI35SBxIztRRO3X9+g0bfAPSzz//zIEUHCxELUBXglJfsb/2GZ0Ya6dA2X0tq0CqPFJpGUjhYeGmFLYdkDFzDaxR1LJlK8tAOn7c3ERZt4DU55NPBKhg3pNUjsampnqAJD2G34hoAlhpOdhwINVtILWJiKB//OMfvgEJ/+4Xpx3QUEmA6ts+biE5I+xSIMGBwojyrqgotwwkLDtg5B7+Oud8zTnVKPFGLKTDhw6Zer+zZ864YiExIBVvlU8nEQf/VdIdHEjO1D+lvHZqH5yr1D6Gu+xwgSW5ubIWjVMPXVevy4HkTIWwCqQvvzxoGUitW7c2pbDdBhMspHdVVjU1AiS4SZt5ZozruOFlpwWkT/t+yi0kGyLK1FX9iedSmhDLAGUKSLdv36bQsLAGDSUOJHeAZDTS97FjxywDqVPHTqYUthnlbse5F2svUOvWH1rusjtx4jtT78eBxCfGOg0yePpijqHaxxSQcJHMzEwOJD6GZLsMSC0ko0BCNxM8yrSSdB4S81jDeIUd4HDqGvCyw1gJe17x1oiFBAvLzLNdvHDBVQsJHnVXrlz2SteuPfCwwziR9Bh+oyuXjyE50yh0Gka4fvasWWosEvabBtJ3J07YrozcyAi77sEtJGcqgxRIt27eNKRMobT37dtrGkgtWrQgzPExo7D9cS6WKWnevLkMSnpA2rdvn+nJsfDqc6PLLiIigm7eeLTwIwBjJt28eVNzPhx3anCmjtqhQzG1QOtjGki42KhRoxoslBDiZMyYMTR8eLJXSktLE6xHWJBIWJIboVgwsOxL2rx5s9d1cW3kv/j+gwfHU9cuzq7yaYcwal3DKpAAidrz501FaoClMWtmdp2HEQNg+vgJpoC044sdlib9YnKqG0CCHCQnJ9OixYsspfjBgzX1T1xcHI0YMcKrjqC+sLrJtqWlpT7VTVav2fXYdsKECV73TkxMot6f9NZ8Zq26UV+Opaena7FIOGYJSOd5bDtd4WrfoQOV7dlNFeX7fUo5OXN071UfBFYKJLNrIcFlGbHclLrupF12UPBM2QfKFnEGjXTZlZSWELoxrb6XW0CqCzK7YcN6n+omq9t14V0C4RmwSrXexxKQcNHMiRMbhKK0WtAcSOa6DWRAum5+cT5EJtACEjzWVtXx6AxaIMkQWUpKXXZlZWXCkuBa19A7xoFkvgFpVUc0pP/Nmz9fj0XCcctA+ve//01do6M5lFRcNDmQfAOSnuJUO64FJMThQ7eU2n/r+n6nl5/A+29Yvz7g10Myqui5hWSujhrNV+l53WNj6Z///KezQMLV4XIbEhrKoaQAJQ4kc8IutZCswoEDSX9dJa283bRxIweSyW52qQLmvx/VffDh9OnThmCEkyxbSOwOc+fN40DiQPJZBsRAun//R8tWDAcSB5JRIHAL6RE4jOaZ2fMWLV7MUGFo6zOQcJfEpCSfFZLZF63r53MLKViwnuOHDKGkpCTdlJeXTz///JOQfvzROpBKd5WSNE2ZkkURbSKo18e96EoAd9nlfb5EeA+8y6JFi2TvieUjtKwfI8f2lpVR6tixuuXFyhTlG6i9JBxIzgJp1OjRhiAkPskWIP31r3+lLl0D2+3YbsBxIAXTxo0bxbKm+R1rbjEg3btnLNK3EQXLzzFnMZXt2aM5k16pEFHOdtcfN67HgeQckMADLOxq9mMLkHBThBVyQ4gClcd/UAAAA5JJREFU5R4NHUhbi4vpP//5j2F59AKSwaUnOGzMwcZIfmEirlZoF6UCRTljTk+g1E32nBxIzgApsn17+umnn5RERXefbUDCneBnzleWfVDIWIY5fcIEmpiZ4VMaPHhQQFV0dN+gxQwvTDMfMZDu3Lnjc9eTEeXLz5EDrer4cdNAQjkDSij3QOq+S0kZ6VPdZHWbAY5vg6lHz56EtcysfmwFEh4CUMJMaV44zrQ+6nK+QhmtXLXKkiyKgQRrm8NCDgs38sQqkFiho/wbegDmulxHnXw26H2M//rysR1IeBj0HSI0iJMvz69dt4DnC4wgM2Ig3bplLI6dGwq6od0DUR7MdtlJFdCGDRsCylLiusR3XTJi5EihDktlwexvR4DEHgIuf7ywfS/sQMjDgoICVuyWtmIg3bxpPkpDQwOHU++LicO+AgkCAHkIBLnlz+i7fjLr2q2lIBwF0m+//UbV1dXcA09hnlJ9qghmHRiUBNILSDc4kJwCjt517QISxpQgF8EhIRxM9bT+w5MO+h163q6Po0BiDwmPC8ybwEB/fVLEDf1dmAODGW86JhPSrRKQampq6NChQzw5mAfSQKyIB4hpHHZ8IBcFhYW8+66eAQmL7H2+ZIllTzot2XIFSOwBzp07RykpKbzVVA8EVBgzWrmSFa3PWzGQbly/Ljg1nDp1SjFYqlI0Br5Pe5FCtfw5efKElwOJnUBiQrFy5UoOpXpS58eOG0dY7cGpj6tAYi8Bt8DkESMI/uoN3coI1PeHkrH6AXxgNf/tb3+jX375RUholbOJsRxI1uCiBh2t/VIgXb1yheB2z8oFZYSy8tUKhrwEqqw39OfGnEpE4/HFnduorvALkMQPhwXoGnqBB+L7X79+XVyMpr5ffrhMRPn+/XTs66+F9EN1tQxIWIKbHefbB/lkdz4oAembY8c8+X6gokKwUq1OdGSCAXkJRDlv6M9cVFTEitCVrd+BhLf89ddf6cKFC7Rz504ak5rKBTcAzHsngXT92oMuOw4kZyAkhhrG6cSODrCQOJB89zwLVJAh/tzOkhJBH6Mnw+1PnQCS9KUBqPPnz1NFRQUVFhVRXl4e5eTkEDKLp7qRB76Y75j4WnmkUmiFV1VVEdL3338vNExOnjxJJ06e4MlPeYCuuRMnTghlgnIBnFBWVuKSies15IXX3bpRd8elpQn6FHq1uLiYDhw4QLW1tUL9E5eZP77/H6xPd3aXdtZcAAAAAElFTkSuQmCC;movable=1;resizable=1;rotatable=1;deletable=1;editable=1;locked=0;connectable=1;" vertex="1" parent="nXrkIV4bhLo-9C3fiboj-49">
          <mxGeometry x="-10.99574916294614" y="-8.002892020089348" width="420" height="805" as="geometry" />
        </mxCell>
        <mxCell id="nXrkIV4bhLo-9C3fiboj-9" value="" style="rounded=0;whiteSpace=wrap;html=1;fontSize=16;fillColor=none;strokeWidth=6;strokeColor=#000000;fontColor=#ffffff;movable=1;resizable=1;rotatable=1;deletable=1;editable=1;locked=0;connectable=1;" vertex="1" parent="nXrkIV4bhLo-9C3fiboj-49">
          <mxGeometry width="404" height="797" as="geometry" />
        </mxCell>
        <mxCell id="nXrkIV4bhLo-9C3fiboj-11" value="" style="whiteSpace=wrap;html=1;aspect=fixed;fontSize=16;movable=1;resizable=1;rotatable=1;deletable=1;editable=1;locked=0;connectable=1;" vertex="1" parent="nXrkIV4bhLo-9C3fiboj-49">
          <mxGeometry x="8" y="52" width="29" height="29" as="geometry" />
        </mxCell>
        <mxCell id="nXrkIV4bhLo-9C3fiboj-12" value="" style="whiteSpace=wrap;html=1;aspect=fixed;fontSize=16;movable=1;resizable=1;rotatable=1;deletable=1;editable=1;locked=0;connectable=1;" vertex="1" parent="nXrkIV4bhLo-9C3fiboj-49">
          <mxGeometry x="8" y="88" width="29" height="29" as="geometry" />
        </mxCell>
        <mxCell id="nXrkIV4bhLo-9C3fiboj-13" value="" style="whiteSpace=wrap;html=1;aspect=fixed;fontSize=16;movable=1;resizable=1;rotatable=1;deletable=1;editable=1;locked=0;connectable=1;" vertex="1" parent="nXrkIV4bhLo-9C3fiboj-49">
          <mxGeometry x="8" y="124" width="29" height="29" as="geometry" />
        </mxCell>
        <mxCell id="nXrkIV4bhLo-9C3fiboj-14" value="" style="whiteSpace=wrap;html=1;aspect=fixed;fontSize=16;movable=1;resizable=1;rotatable=1;deletable=1;editable=1;locked=0;connectable=1;" vertex="1" parent="nXrkIV4bhLo-9C3fiboj-49">
          <mxGeometry x="8" y="164" width="29" height="29" as="geometry" />
        </mxCell>
        <mxCell id="nXrkIV4bhLo-9C3fiboj-15" value="" style="whiteSpace=wrap;html=1;aspect=fixed;fontSize=16;movable=1;resizable=1;rotatable=1;deletable=1;editable=1;locked=0;connectable=1;" vertex="1" parent="nXrkIV4bhLo-9C3fiboj-49">
          <mxGeometry x="8" y="200" width="29" height="29" as="geometry" />
        </mxCell>
        <mxCell id="nXrkIV4bhLo-9C3fiboj-16" value="" style="whiteSpace=wrap;html=1;aspect=fixed;fontSize=16;movable=1;resizable=1;rotatable=1;deletable=1;editable=1;locked=0;connectable=1;" vertex="1" parent="nXrkIV4bhLo-9C3fiboj-49">
          <mxGeometry x="8" y="236" width="29" height="29" as="geometry" />
        </mxCell>
        <mxCell id="nXrkIV4bhLo-9C3fiboj-17" value="" style="whiteSpace=wrap;html=1;aspect=fixed;fontSize=16;movable=1;resizable=1;rotatable=1;deletable=1;editable=1;locked=0;connectable=1;" vertex="1" parent="nXrkIV4bhLo-9C3fiboj-49">
          <mxGeometry x="8" y="272" width="29" height="29" as="geometry" />
        </mxCell>
        <mxCell id="nXrkIV4bhLo-9C3fiboj-18" value="" style="whiteSpace=wrap;html=1;aspect=fixed;fontSize=16;movable=1;resizable=1;rotatable=1;deletable=1;editable=1;locked=0;connectable=1;" vertex="1" parent="nXrkIV4bhLo-9C3fiboj-49">
          <mxGeometry x="8" y="308" width="29" height="29" as="geometry" />
        </mxCell>
        <mxCell id="nXrkIV4bhLo-9C3fiboj-19" value="" style="whiteSpace=wrap;html=1;aspect=fixed;fontSize=16;movable=1;resizable=1;rotatable=1;deletable=1;editable=1;locked=0;connectable=1;" vertex="1" parent="nXrkIV4bhLo-9C3fiboj-49">
          <mxGeometry x="8" y="344" width="29" height="29" as="geometry" />
        </mxCell>
        <mxCell id="nXrkIV4bhLo-9C3fiboj-20" value="" style="whiteSpace=wrap;html=1;aspect=fixed;fontSize=16;movable=1;resizable=1;rotatable=1;deletable=1;editable=1;locked=0;connectable=1;" vertex="1" parent="nXrkIV4bhLo-9C3fiboj-49">
          <mxGeometry x="8" y="384" width="29" height="29" as="geometry" />
        </mxCell>
        <mxCell id="nXrkIV4bhLo-9C3fiboj-21" value="" style="whiteSpace=wrap;html=1;aspect=fixed;fontSize=16;movable=1;resizable=1;rotatable=1;deletable=1;editable=1;locked=0;connectable=1;" vertex="1" parent="nXrkIV4bhLo-9C3fiboj-49">
          <mxGeometry x="8" y="420" width="29" height="29" as="geometry" />
        </mxCell>
        <mxCell id="nXrkIV4bhLo-9C3fiboj-22" value="" style="whiteSpace=wrap;html=1;aspect=fixed;fontSize=16;movable=1;resizable=1;rotatable=1;deletable=1;editable=1;locked=0;connectable=1;" vertex="1" parent="nXrkIV4bhLo-9C3fiboj-49">
          <mxGeometry x="8" y="456" width="29" height="29" as="geometry" />
        </mxCell>
        <mxCell id="nXrkIV4bhLo-9C3fiboj-23" value="" style="whiteSpace=wrap;html=1;aspect=fixed;fontSize=16;movable=1;resizable=1;rotatable=1;deletable=1;editable=1;locked=0;connectable=1;" vertex="1" parent="nXrkIV4bhLo-9C3fiboj-49">
          <mxGeometry x="8" y="492" width="29" height="29" as="geometry" />
        </mxCell>
        <mxCell id="nXrkIV4bhLo-9C3fiboj-24" value="" style="whiteSpace=wrap;html=1;aspect=fixed;fontSize=16;movable=1;resizable=1;rotatable=1;deletable=1;editable=1;locked=0;connectable=1;" vertex="1" parent="nXrkIV4bhLo-9C3fiboj-49">
          <mxGeometry x="8" y="528" width="29" height="29" as="geometry" />
        </mxCell>
        <mxCell id="nXrkIV4bhLo-9C3fiboj-25" value="" style="whiteSpace=wrap;html=1;aspect=fixed;fontSize=16;movable=1;resizable=1;rotatable=1;deletable=1;editable=1;locked=0;connectable=1;" vertex="1" parent="nXrkIV4bhLo-9C3fiboj-49">
          <mxGeometry x="8" y="564" width="29" height="29" as="geometry" />
        </mxCell>
        <mxCell id="nXrkIV4bhLo-9C3fiboj-26" value="" style="whiteSpace=wrap;html=1;aspect=fixed;fontSize=16;movable=1;resizable=1;rotatable=1;deletable=1;editable=1;locked=0;connectable=1;" vertex="1" parent="nXrkIV4bhLo-9C3fiboj-49">
          <mxGeometry x="8" y="604" width="29" height="29" as="geometry" />
        </mxCell>
        <mxCell id="nXrkIV4bhLo-9C3fiboj-27" value="" style="whiteSpace=wrap;html=1;aspect=fixed;fontSize=16;movable=1;resizable=1;rotatable=1;deletable=1;editable=1;locked=0;connectable=1;" vertex="1" parent="nXrkIV4bhLo-9C3fiboj-49">
          <mxGeometry x="8" y="640" width="29" height="29" as="geometry" />
        </mxCell>
        <mxCell id="nXrkIV4bhLo-9C3fiboj-28" value="" style="whiteSpace=wrap;html=1;aspect=fixed;fontSize=16;movable=1;resizable=1;rotatable=1;deletable=1;editable=1;locked=0;connectable=1;" vertex="1" parent="nXrkIV4bhLo-9C3fiboj-49">
          <mxGeometry x="8" y="676" width="29" height="29" as="geometry" />
        </mxCell>
        <mxCell id="nXrkIV4bhLo-9C3fiboj-29" value="" style="whiteSpace=wrap;html=1;aspect=fixed;fontSize=16;movable=1;resizable=1;rotatable=1;deletable=1;editable=1;locked=0;connectable=1;" vertex="1" parent="nXrkIV4bhLo-9C3fiboj-49">
          <mxGeometry x="8" y="712" width="29" height="29" as="geometry" />
        </mxCell>
        <mxCell id="nXrkIV4bhLo-9C3fiboj-30" value="" style="whiteSpace=wrap;html=1;aspect=fixed;fontSize=16;movable=1;resizable=1;rotatable=1;deletable=1;editable=1;locked=0;connectable=1;" vertex="1" parent="nXrkIV4bhLo-9C3fiboj-49">
          <mxGeometry x="368" y="50.5" width="29" height="29" as="geometry" />
        </mxCell>
        <mxCell id="nXrkIV4bhLo-9C3fiboj-31" value="" style="whiteSpace=wrap;html=1;aspect=fixed;fontSize=16;movable=1;resizable=1;rotatable=1;deletable=1;editable=1;locked=0;connectable=1;" vertex="1" parent="nXrkIV4bhLo-9C3fiboj-49">
          <mxGeometry x="368" y="86.5" width="29" height="29" as="geometry" />
        </mxCell>
        <mxCell id="nXrkIV4bhLo-9C3fiboj-32" value="" style="whiteSpace=wrap;html=1;aspect=fixed;fontSize=16;movable=1;resizable=1;rotatable=1;deletable=1;editable=1;locked=0;connectable=1;" vertex="1" parent="nXrkIV4bhLo-9C3fiboj-49">
          <mxGeometry x="368" y="122.5" width="29" height="29" as="geometry" />
        </mxCell>
        <mxCell id="nXrkIV4bhLo-9C3fiboj-33" value="" style="whiteSpace=wrap;html=1;aspect=fixed;fontSize=16;movable=1;resizable=1;rotatable=1;deletable=1;editable=1;locked=0;connectable=1;" vertex="1" parent="nXrkIV4bhLo-9C3fiboj-49">
          <mxGeometry x="368" y="162.5" width="29" height="29" as="geometry" />
        </mxCell>
        <mxCell id="nXrkIV4bhLo-9C3fiboj-34" value="" style="whiteSpace=wrap;html=1;aspect=fixed;fontSize=16;movable=1;resizable=1;rotatable=1;deletable=1;editable=1;locked=0;connectable=1;" vertex="1" parent="nXrkIV4bhLo-9C3fiboj-49">
          <mxGeometry x="368" y="198.5" width="29" height="29" as="geometry" />
        </mxCell>
        <mxCell id="nXrkIV4bhLo-9C3fiboj-35" value="" style="whiteSpace=wrap;html=1;aspect=fixed;fontSize=16;movable=1;resizable=1;rotatable=1;deletable=1;editable=1;locked=0;connectable=1;" vertex="1" parent="nXrkIV4bhLo-9C3fiboj-49">
          <mxGeometry x="368" y="234.5" width="29" height="29" as="geometry" />
        </mxCell>
        <mxCell id="nXrkIV4bhLo-9C3fiboj-36" value="" style="whiteSpace=wrap;html=1;aspect=fixed;fontSize=16;movable=1;resizable=1;rotatable=1;deletable=1;editable=1;locked=0;connectable=1;" vertex="1" parent="nXrkIV4bhLo-9C3fiboj-49">
          <mxGeometry x="368" y="270.5" width="29" height="29" as="geometry" />
        </mxCell>
        <mxCell id="nXrkIV4bhLo-9C3fiboj-37" value="" style="whiteSpace=wrap;html=1;aspect=fixed;fontSize=16;movable=1;resizable=1;rotatable=1;deletable=1;editable=1;locked=0;connectable=1;" vertex="1" parent="nXrkIV4bhLo-9C3fiboj-49">
          <mxGeometry x="368" y="306.5" width="29" height="29" as="geometry" />
        </mxCell>
        <mxCell id="nXrkIV4bhLo-9C3fiboj-38" value="" style="whiteSpace=wrap;html=1;aspect=fixed;fontSize=16;movable=1;resizable=1;rotatable=1;deletable=1;editable=1;locked=0;connectable=1;" vertex="1" parent="nXrkIV4bhLo-9C3fiboj-49">
          <mxGeometry x="368" y="342.5" width="29" height="29" as="geometry" />
        </mxCell>
        <mxCell id="nXrkIV4bhLo-9C3fiboj-39" value="" style="whiteSpace=wrap;html=1;aspect=fixed;fontSize=16;movable=1;resizable=1;rotatable=1;deletable=1;editable=1;locked=0;connectable=1;" vertex="1" parent="nXrkIV4bhLo-9C3fiboj-49">
          <mxGeometry x="368" y="382.5" width="29" height="29" as="geometry" />
        </mxCell>
        <mxCell id="nXrkIV4bhLo-9C3fiboj-40" value="" style="whiteSpace=wrap;html=1;aspect=fixed;fontSize=16;movable=1;resizable=1;rotatable=1;deletable=1;editable=1;locked=0;connectable=1;" vertex="1" parent="nXrkIV4bhLo-9C3fiboj-49">
          <mxGeometry x="368" y="418.5" width="29" height="29" as="geometry" />
        </mxCell>
        <mxCell id="nXrkIV4bhLo-9C3fiboj-41" value="" style="whiteSpace=wrap;html=1;aspect=fixed;fontSize=16;movable=1;resizable=1;rotatable=1;deletable=1;editable=1;locked=0;connectable=1;" vertex="1" parent="nXrkIV4bhLo-9C3fiboj-49">
          <mxGeometry x="368" y="454.5" width="29" height="29" as="geometry" />
        </mxCell>
        <mxCell id="nXrkIV4bhLo-9C3fiboj-42" value="" style="whiteSpace=wrap;html=1;aspect=fixed;fontSize=16;movable=1;resizable=1;rotatable=1;deletable=1;editable=1;locked=0;connectable=1;" vertex="1" parent="nXrkIV4bhLo-9C3fiboj-49">
          <mxGeometry x="368" y="490.5" width="29" height="29" as="geometry" />
        </mxCell>
        <mxCell id="nXrkIV4bhLo-9C3fiboj-43" value="" style="whiteSpace=wrap;html=1;aspect=fixed;fontSize=16;movable=1;resizable=1;rotatable=1;deletable=1;editable=1;locked=0;connectable=1;" vertex="1" parent="nXrkIV4bhLo-9C3fiboj-49">
          <mxGeometry x="368" y="526.5" width="29" height="29" as="geometry" />
        </mxCell>
        <mxCell id="nXrkIV4bhLo-9C3fiboj-44" value="" style="whiteSpace=wrap;html=1;aspect=fixed;fontSize=16;movable=1;resizable=1;rotatable=1;deletable=1;editable=1;locked=0;connectable=1;" vertex="1" parent="nXrkIV4bhLo-9C3fiboj-49">
          <mxGeometry x="368" y="562.5" width="29" height="29" as="geometry" />
        </mxCell>
        <mxCell id="nXrkIV4bhLo-9C3fiboj-45" value="" style="whiteSpace=wrap;html=1;aspect=fixed;fontSize=16;movable=1;resizable=1;rotatable=1;deletable=1;editable=1;locked=0;connectable=1;" vertex="1" parent="nXrkIV4bhLo-9C3fiboj-49">
          <mxGeometry x="368" y="602.5" width="29" height="29" as="geometry" />
        </mxCell>
        <mxCell id="nXrkIV4bhLo-9C3fiboj-46" value="" style="whiteSpace=wrap;html=1;aspect=fixed;fontSize=16;movable=1;resizable=1;rotatable=1;deletable=1;editable=1;locked=0;connectable=1;" vertex="1" parent="nXrkIV4bhLo-9C3fiboj-49">
          <mxGeometry x="368" y="638.5" width="29" height="29" as="geometry" />
        </mxCell>
        <mxCell id="nXrkIV4bhLo-9C3fiboj-47" value="" style="whiteSpace=wrap;html=1;aspect=fixed;fontSize=16;movable=1;resizable=1;rotatable=1;deletable=1;editable=1;locked=0;connectable=1;" vertex="1" parent="nXrkIV4bhLo-9C3fiboj-49">
          <mxGeometry x="368" y="674.5" width="29" height="29" as="geometry" />
        </mxCell>
        <mxCell id="nXrkIV4bhLo-9C3fiboj-48" value="" style="whiteSpace=wrap;html=1;aspect=fixed;fontSize=16;movable=1;resizable=1;rotatable=1;deletable=1;editable=1;locked=0;connectable=1;" vertex="1" parent="nXrkIV4bhLo-9C3fiboj-49">
          <mxGeometry x="368" y="710.5" width="29" height="29" as="geometry" />
        </mxCell>
        <mxCell id="nXrkIV4bhLo-9C3fiboj-53" value="&lt;div style=&quot;text-align: left;&quot;&gt;&lt;span style=&quot;background-color: initial;&quot;&gt;MOSI&lt;/span&gt;&lt;/div&gt;&lt;div style=&quot;text-align: left;&quot;&gt;&lt;br&gt;&lt;/div&gt;&lt;div style=&quot;text-align: left;&quot;&gt;&lt;span style=&quot;background-color: initial;&quot;&gt;CS&lt;/span&gt;&lt;/div&gt;&lt;div style=&quot;text-align: left;&quot;&gt;&lt;span style=&quot;background-color: initial;&quot;&gt;&lt;br&gt;&lt;/span&gt;&lt;/div&gt;&lt;div style=&quot;text-align: left;&quot;&gt;&lt;span style=&quot;background-color: initial;&quot;&gt;MISO&lt;/span&gt;&lt;/div&gt;&lt;div style=&quot;text-align: left;&quot;&gt;&lt;span style=&quot;background-color: initial;&quot;&gt;&lt;br&gt;&lt;/span&gt;&lt;/div&gt;&lt;div style=&quot;text-align: left;&quot;&gt;&lt;span style=&quot;background-color: initial;&quot;&gt;SCK&lt;/span&gt;&lt;/div&gt;&lt;div style=&quot;text-align: left;&quot;&gt;&lt;span style=&quot;background-color: initial;&quot;&gt;&lt;br&gt;&lt;/span&gt;&lt;/div&gt;&lt;div style=&quot;text-align: left;&quot;&gt;&lt;span style=&quot;background-color: initial;&quot;&gt;VCC&lt;/span&gt;&lt;/div&gt;&lt;div style=&quot;text-align: left;&quot;&gt;&lt;span style=&quot;background-color: initial;&quot;&gt;&lt;br&gt;&lt;/span&gt;&lt;/div&gt;&lt;div style=&quot;text-align: left;&quot;&gt;&lt;span style=&quot;background-color: initial;&quot;&gt;GND&lt;/span&gt;&lt;/div&gt;" style="rounded=0;whiteSpace=wrap;html=1;fontSize=16;movable=1;resizable=1;rotatable=1;deletable=1;editable=1;locked=0;connectable=1;" vertex="1" parent="1">
          <mxGeometry x="2033" y="1518" width="142" height="225" as="geometry" />
        </mxCell>
        <mxCell id="nXrkIV4bhLo-9C3fiboj-56" value="" style="whiteSpace=wrap;html=1;aspect=fixed;fontSize=16;fillColor=#d5e8d4;strokeColor=#82b366;" vertex="1" parent="1">
          <mxGeometry x="2041" y="1561" width="28.5" height="28.5" as="geometry" />
        </mxCell>
        <mxCell id="nXrkIV4bhLo-9C3fiboj-57" value="" style="whiteSpace=wrap;html=1;aspect=fixed;fontSize=16;fillColor=#d5e8d4;strokeColor=#82b366;" vertex="1" parent="1">
          <mxGeometry x="2041" y="1599" width="28.5" height="28.5" as="geometry" />
        </mxCell>
        <mxCell id="nXrkIV4bhLo-9C3fiboj-58" value="" style="whiteSpace=wrap;html=1;aspect=fixed;fontSize=16;fillColor=#d5e8d4;strokeColor=#82b366;" vertex="1" parent="1">
          <mxGeometry x="2041" y="1637" width="28.5" height="28.5" as="geometry" />
        </mxCell>
        <mxCell id="nXrkIV4bhLo-9C3fiboj-59" value="" style="whiteSpace=wrap;html=1;aspect=fixed;fontSize=16;fillColor=#d5e8d4;strokeColor=#82b366;" vertex="1" parent="1">
          <mxGeometry x="2041" y="1674" width="28.5" height="28.5" as="geometry" />
        </mxCell>
        <mxCell id="nXrkIV4bhLo-9C3fiboj-64" value="" style="whiteSpace=wrap;html=1;aspect=fixed;fontSize=16;fillColor=#d5e8d4;strokeColor=#82b366;" vertex="1" parent="1">
          <mxGeometry x="2041" y="1523" width="28.5" height="28.5" as="geometry" />
        </mxCell>
        <mxCell id="nXrkIV4bhLo-9C3fiboj-65" value="" style="whiteSpace=wrap;html=1;aspect=fixed;fontSize=16;fillColor=#d5e8d4;strokeColor=#82b366;" vertex="1" parent="1">
          <mxGeometry x="2041" y="1711" width="28.5" height="28.5" as="geometry" />
        </mxCell>
        <mxCell id="nXrkIV4bhLo-9C3fiboj-67" style="edgeStyle=orthogonalEdgeStyle;shape=connector;rounded=0;orthogonalLoop=1;jettySize=auto;html=1;exitX=1;exitY=0.5;exitDx=0;exitDy=0;entryX=0;entryY=0.5;entryDx=0;entryDy=0;labelBackgroundColor=default;strokeColor=default;align=center;verticalAlign=middle;fontFamily=Helvetica;fontSize=12;fontColor=default;endArrow=none;endFill=0;startSize=8;endSize=8;" edge="1" parent="1" source="nXrkIV4bhLo-9C3fiboj-31" target="nXrkIV4bhLo-9C3fiboj-64">
          <mxGeometry relative="1" as="geometry">
            <Array as="points">
              <mxPoint x="1958" y="1587" />
              <mxPoint x="1958" y="1537" />
            </Array>
          </mxGeometry>
        </mxCell>
        <mxCell id="nXrkIV4bhLo-9C3fiboj-68" style="edgeStyle=orthogonalEdgeStyle;shape=connector;rounded=0;orthogonalLoop=1;jettySize=auto;html=1;exitX=1;exitY=0.5;exitDx=0;exitDy=0;entryX=0;entryY=0.5;entryDx=0;entryDy=0;labelBackgroundColor=default;strokeColor=default;align=center;verticalAlign=middle;fontFamily=Helvetica;fontSize=12;fontColor=default;endArrow=none;endFill=0;startSize=8;endSize=8;" edge="1" parent="1" source="nXrkIV4bhLo-9C3fiboj-35" target="nXrkIV4bhLo-9C3fiboj-56">
          <mxGeometry relative="1" as="geometry">
            <Array as="points">
              <mxPoint x="1970" y="1735" />
              <mxPoint x="1970" y="1575" />
            </Array>
          </mxGeometry>
        </mxCell>
        <mxCell id="nXrkIV4bhLo-9C3fiboj-69" style="edgeStyle=orthogonalEdgeStyle;shape=connector;rounded=0;orthogonalLoop=1;jettySize=auto;html=1;exitX=1;exitY=0.5;exitDx=0;exitDy=0;entryX=0.5;entryY=1;entryDx=0;entryDy=0;labelBackgroundColor=default;strokeColor=default;align=center;verticalAlign=middle;fontFamily=Helvetica;fontSize=12;fontColor=default;endArrow=none;endFill=0;startSize=8;endSize=8;" edge="1" parent="1" source="nXrkIV4bhLo-9C3fiboj-36" target="nXrkIV4bhLo-9C3fiboj-65">
          <mxGeometry relative="1" as="geometry" />
        </mxCell>
        <mxCell id="nXrkIV4bhLo-9C3fiboj-70" style="edgeStyle=orthogonalEdgeStyle;shape=connector;rounded=0;orthogonalLoop=1;jettySize=auto;html=1;exitX=1;exitY=0.5;exitDx=0;exitDy=0;entryX=0;entryY=0.5;entryDx=0;entryDy=0;labelBackgroundColor=default;strokeColor=default;align=center;verticalAlign=middle;fontFamily=Helvetica;fontSize=12;fontColor=default;endArrow=none;endFill=0;startSize=8;endSize=8;" edge="1" parent="1" source="nXrkIV4bhLo-9C3fiboj-37" target="nXrkIV4bhLo-9C3fiboj-57">
          <mxGeometry relative="1" as="geometry" />
        </mxCell>
        <mxCell id="nXrkIV4bhLo-9C3fiboj-71" style="edgeStyle=orthogonalEdgeStyle;shape=connector;rounded=0;orthogonalLoop=1;jettySize=auto;html=1;exitX=1;exitY=0.5;exitDx=0;exitDy=0;entryX=0;entryY=0.5;entryDx=0;entryDy=0;labelBackgroundColor=default;strokeColor=default;align=center;verticalAlign=middle;fontFamily=Helvetica;fontSize=12;fontColor=default;endArrow=none;endFill=0;startSize=8;endSize=8;" edge="1" parent="1" source="nXrkIV4bhLo-9C3fiboj-38" target="nXrkIV4bhLo-9C3fiboj-58">
          <mxGeometry relative="1" as="geometry">
            <Array as="points">
              <mxPoint x="2011" y="1843" />
              <mxPoint x="2011" y="1651" />
            </Array>
          </mxGeometry>
        </mxCell>
        <mxCell id="nXrkIV4bhLo-9C3fiboj-72" style="edgeStyle=orthogonalEdgeStyle;shape=connector;rounded=0;orthogonalLoop=1;jettySize=auto;html=1;exitX=1;exitY=0.5;exitDx=0;exitDy=0;entryX=0;entryY=0.5;entryDx=0;entryDy=0;labelBackgroundColor=default;strokeColor=default;align=center;verticalAlign=middle;fontFamily=Helvetica;fontSize=12;fontColor=default;endArrow=none;endFill=0;startSize=8;endSize=8;" edge="1" parent="1" source="nXrkIV4bhLo-9C3fiboj-39" target="nXrkIV4bhLo-9C3fiboj-56">
          <mxGeometry relative="1" as="geometry">
            <Array as="points">
              <mxPoint x="1970" y="1883" />
              <mxPoint x="1970" y="1575" />
            </Array>
          </mxGeometry>
        </mxCell>
      </root>
    </mxGraphModel>
  </diagram>
</mxfile>
